<?xml version="1.0" encoding="utf-8"?>
<svg viewBox="170.488 691.965 32.859 68.175" xmlns="http://www.w3.org/2000/svg">
  <defs>
    <clipPath id="ee463d1af4">
      <path d="M 172 691.332031 L 200 691.332031 L 200 710 L 172 710 Z M 172 691.332031 " clip-rule="nonzero"/>
    </clipPath>
    <clipPath id="a606606a17">
      <path d="M 174 691.332031 L 200 691.332031 L 200 710 L 174 710 Z M 174 691.332031 " clip-rule="nonzero"/>
    </clipPath>
    <clipPath id="14bad6bdc9">
      <path d="M 171 707 L 203 707 L 203 760.332031 L 171 760.332031 Z M 171 707 " clip-rule="nonzero"/>
    </clipPath>
    <clipPath id="956e15c9b0">
      <path d="M 172 709 L 202 709 L 202 759 L 172 759 Z M 172 709 " clip-rule="nonzero"/>
    </clipPath>
    <clipPath id="4c0df72d60">
      <path d="M 187.035156 709.316406 L 187.03125 709.316406 C 173.964844 708.78125 170.488281 714.703125 172.558594 726.425781 C 174.628906 738.144531 180.886719 758.175781 185.671875 758.316406 C 185.671875 758.316406 185.675781 758.316406 185.675781 758.316406 C 185.675781 758.316406 185.675781 758.316406 185.679688 758.316406 C 190.464844 758.433594 197.824219 738.773438 200.539062 727.183594 C 203.253906 715.59375 200.109375 709.492188 187.035156 709.316406 Z M 190.894531 720.117188 C 191.582031 720.265625 192.257812 720.492188 192.871094 720.828125 C 192.171875 720.769531 191.492188 720.703125 190.816406 720.660156 C 190.140625 720.617188 189.46875 720.605469 188.792969 720.601562 C 187.441406 720.59375 186.097656 720.675781 184.703125 720.769531 C 185.328125 720.445312 186.007812 720.246094 186.695312 720.105469 C 187.386719 719.96875 188.089844 719.898438 188.796875 719.898438 C 189.5 719.894531 190.203125 719.96875 190.894531 720.117188 Z M 180.484375 713.605469 C 181.335938 713.453125 182.203125 713.375 183.066406 713.398438 C 184.050781 713.414062 184.796875 713.523438 185.640625 713.726562 C 186.484375 713.925781 187.304688 714.226562 188.046875 714.664062 C 187.1875 714.570312 186.359375 714.46875 185.53125 714.402344 C 184.703125 714.328125 183.875 714.289062 183.050781 714.269531 C 181.390625 714.230469 179.746094 714.304688 178.023438 714.386719 C 178.796875 713.996094 179.640625 713.765625 180.484375 713.605469 Z M 173.097656 725.046875 C 173.5625 724.699219 174.105469 724.492188 174.660156 724.347656 C 175.214844 724.210938 175.808594 724.546875 176.378906 724.550781 C 176.953125 724.554688 177.507812 724.234375 178.058594 724.382812 C 178.609375 724.53125 179.144531 724.75 179.621094 725.070312 C 179.042969 725.066406 178.496094 725.03125 177.957031 725 C 177.417969 724.972656 176.886719 724.960938 176.355469 724.953125 C 175.285156 724.933594 174.238281 724.988281 173.097656 725.046875 Z M 177.324219 734.113281 C 177.753906 733.835938 178.230469 733.691406 178.710938 733.582031 C 179.1875 733.484375 179.679688 733.4375 180.164062 733.445312 C 180.652344 733.453125 181.140625 733.511719 181.617188 733.625 C 182.09375 733.742188 182.558594 733.898438 182.992188 734.164062 C 182.492188 734.257812 182.015625 734.285156 181.550781 734.308594 C 181.078125 734.324219 180.351562 734.410156 179.890625 734.402344 C 178.960938 734.378906 178.316406 734.265625 177.324219 734.113281 Z M 184.285156 748.125 C 183.9375 748.226562 183.582031 748.269531 183.226562 748.273438 C 182.871094 748.273438 182.515625 748.226562 182.171875 748.136719 C 181.832031 748.039062 181.496094 747.910156 181.191406 747.6875 C 181.558594 747.601562 181.902344 747.578125 182.234375 747.554688 C 182.574219 747.535156 182.898438 747.527344 183.226562 747.53125 C 183.550781 747.53125 183.875 747.535156 184.207031 747.550781 C 184.542969 747.566406 184.871094 747.582031 185.242188 747.613281 C 184.96875 747.875 184.625 748.019531 184.285156 748.125 Z M 185.457031 738.917969 C 184.878906 738.664062 184.328125 738.335938 183.878906 737.871094 C 184.53125 737.910156 185.113281 738 185.703125 738.074219 L 187.429688 738.132812 C 188.582031 738.28125 189.710938 738.554688 190.972656 738.769531 C 190.417969 739.121094 189.796875 739.285156 189.175781 739.386719 C 188.550781 739.480469 187.910156 739.484375 187.285156 739.40625 C 186.65625 739.332031 186.039062 739.167969 185.457031 738.917969 Z M 188.667969 751.679688 C 188.429688 751.746094 188.183594 751.78125 187.941406 751.78125 C 187.699219 751.78125 187.457031 751.75 187.222656 751.6875 C 186.988281 751.621094 186.761719 751.53125 186.554688 751.378906 C 186.804688 751.324219 187.035156 751.304688 187.265625 751.289062 C 187.496094 751.277344 187.71875 751.273438 187.941406 751.273438 C 188.164062 751.273438 188.386719 751.277344 188.613281 751.285156 C 188.839844 751.296875 189.066406 751.308594 189.320312 751.332031 C 189.136719 751.507812 188.898438 751.609375 188.667969 751.679688 Z M 193.195312 745.230469 C 192.78125 745.175781 192.371094 745.132812 191.953125 745.085938 C 191.121094 744.984375 190.285156 744.925781 189.371094 744.71875 C 189.777344 744.46875 190.222656 744.34375 190.675781 744.265625 C 191.125 744.1875 191.554688 744.609375 192.015625 744.65625 C 192.476562 744.707031 192.96875 744.386719 193.394531 744.582031 C 193.820312 744.777344 194.222656 745.046875 194.5 745.433594 C 194.03125 745.359375 193.617188 745.285156 193.195312 745.230469 Z M 193.460938 730.171875 C 192.875 730.242188 192.289062 730.257812 191.703125 730.21875 C 191.117188 730.179688 190.535156 730.085938 189.964844 729.9375 C 189.394531 729.789062 188.835938 729.582031 188.328125 729.269531 C 188.929688 729.253906 189.496094 729.285156 190.0625 729.316406 C 190.632812 729.34375 191.191406 729.367188 191.757812 729.410156 C 192.320312 729.445312 192.882812 729.492188 193.449219 729.539062 C 194.015625 729.589844 194.585938 729.648438 195.175781 729.75 C 194.621094 729.980469 194.042969 730.101562 193.460938 730.171875 Z M 199.480469 724.046875 C 198.964844 723.988281 198.453125 723.949219 197.941406 723.910156 C 196.910156 723.839844 195.886719 723.824219 194.761719 723.734375 C 195.238281 723.414062 195.777344 723.238281 196.324219 723.117188 C 196.875 723.003906 197.511719 723.421875 198.070312 723.457031 C 198.636719 723.496094 199.121094 723.15625 199.648438 723.351562 C 200.179688 723.546875 200.679688 723.824219 201.089844 724.214844 C 200.523438 724.171875 200.003906 724.09375 199.480469 724.046875 Z M 199.480469 724.046875 " clip-rule="nonzero"/>
    </clipPath>
    <linearGradient x1="-2.186993" gradientTransform="matrix(0.344311, 0, 0, 0.340869, 171.241451, 691.966499)" y1="122.727997" x2="92.977998" gradientUnits="userSpaceOnUse" y2="122.727997" id="c5316cff4b">
      <stop stop-opacity="1" stop-color="rgb(93.299866%, 54.098511%, 2.398682%)" offset="0"/>
      <stop stop-opacity="1" stop-color="rgb(93.334961%, 53.994751%, 2.398682%)" offset="0.0625"/>
      <stop stop-opacity="1" stop-color="rgb(93.406677%, 53.793335%, 2.398682%)" offset="0.0781"/>
      <stop stop-opacity="1" stop-color="rgb(93.475342%, 53.594971%, 2.398682%)" offset="0.0938"/>
      <stop stop-opacity="1" stop-color="rgb(93.545532%, 53.396606%, 2.398682%)" offset="0.1094"/>
      <stop stop-opacity="1" stop-color="rgb(93.614197%, 53.198242%, 2.398682%)" offset="0.125"/>
      <stop stop-opacity="1" stop-color="rgb(93.684387%, 52.999878%, 2.398682%)" offset="0.1406"/>
      <stop stop-opacity="1" stop-color="rgb(93.754578%, 52.801514%, 2.398682%)" offset="0.1563"/>
      <stop stop-opacity="1" stop-color="rgb(93.823242%, 52.603149%, 2.398682%)" offset="0.1719"/>
      <stop stop-opacity="1" stop-color="rgb(93.893433%, 52.404785%, 2.398682%)" offset="0.1875"/>
      <stop stop-opacity="1" stop-color="rgb(93.962097%, 52.206421%, 2.398682%)" offset="0.2031"/>
      <stop stop-opacity="1" stop-color="rgb(94.032288%, 52.008057%, 2.398682%)" offset="0.2188"/>
      <stop stop-opacity="1" stop-color="rgb(94.102478%, 51.811218%, 2.398682%)" offset="0.2344"/>
      <stop stop-opacity="1" stop-color="rgb(94.171143%, 51.612854%, 2.398682%)" offset="0.25"/>
      <stop stop-opacity="1" stop-color="rgb(94.241333%, 51.41449%, 2.398682%)" offset="0.2656"/>
      <stop stop-opacity="1" stop-color="rgb(94.309998%, 51.216125%, 2.398682%)" offset="0.2813"/>
      <stop stop-opacity="1" stop-color="rgb(94.380188%, 51.017761%, 2.398682%)" offset="0.2969"/>
      <stop stop-opacity="1" stop-color="rgb(94.450378%, 50.819397%, 2.398682%)" offset="0.3125"/>
      <stop stop-opacity="1" stop-color="rgb(94.519043%, 50.621033%, 2.398682%)" offset="0.3281"/>
      <stop stop-opacity="1" stop-color="rgb(94.589233%, 50.422668%, 2.398682%)" offset="0.3438"/>
      <stop stop-opacity="1" stop-color="rgb(94.657898%, 50.224304%, 2.398682%)" offset="0.3594"/>
      <stop stop-opacity="1" stop-color="rgb(94.728088%, 50.02594%, 2.398682%)" offset="0.375"/>
      <stop stop-opacity="1" stop-color="rgb(94.798279%, 49.827576%, 2.398682%)" offset="0.3906"/>
      <stop stop-opacity="1" stop-color="rgb(94.866943%, 49.629211%, 2.398682%)" offset="0.4063"/>
      <stop stop-opacity="1" stop-color="rgb(94.937134%, 49.430847%, 2.398682%)" offset="0.4219"/>
      <stop stop-opacity="1" stop-color="rgb(95.005798%, 49.232483%, 2.398682%)" offset="0.4375"/>
      <stop stop-opacity="1" stop-color="rgb(95.075989%, 49.034119%, 2.398682%)" offset="0.4531"/>
      <stop stop-opacity="1" stop-color="rgb(95.146179%, 48.835754%, 2.398682%)" offset="0.4688"/>
      <stop stop-opacity="1" stop-color="rgb(95.214844%, 48.63739%, 2.398682%)" offset="0.4844"/>
      <stop stop-opacity="1" stop-color="rgb(95.285034%, 48.439026%, 2.398682%)" offset="0.5"/>
      <stop stop-opacity="1" stop-color="rgb(95.353699%, 48.240662%, 2.398682%)" offset="0.5156"/>
      <stop stop-opacity="1" stop-color="rgb(95.423889%, 48.043823%, 2.398682%)" offset="0.5312"/>
      <stop stop-opacity="1" stop-color="rgb(95.49408%, 47.845459%, 2.398682%)" offset="0.5469"/>
      <stop stop-opacity="1" stop-color="rgb(95.562744%, 47.647095%, 2.398682%)" offset="0.5625"/>
      <stop stop-opacity="1" stop-color="rgb(95.632935%, 47.44873%, 2.398682%)" offset="0.5781"/>
      <stop stop-opacity="1" stop-color="rgb(95.701599%, 47.250366%, 2.398682%)" offset="0.5938"/>
      <stop stop-opacity="1" stop-color="rgb(95.77179%, 47.052002%, 2.398682%)" offset="0.6094"/>
      <stop stop-opacity="1" stop-color="rgb(95.84198%, 46.853638%, 2.398682%)" offset="0.625"/>
      <stop stop-opacity="1" stop-color="rgb(95.910645%, 46.655273%, 2.398682%)" offset="0.6406"/>
      <stop stop-opacity="1" stop-color="rgb(95.980835%, 46.456909%, 2.398682%)" offset="0.6563"/>
      <stop stop-opacity="1" stop-color="rgb(96.0495%, 46.258545%, 2.398682%)" offset="0.6719"/>
      <stop stop-opacity="1" stop-color="rgb(96.11969%, 46.060181%, 2.398682%)" offset="0.6875"/>
      <stop stop-opacity="1" stop-color="rgb(96.18988%, 45.861816%, 2.398682%)" offset="0.7031"/>
      <stop stop-opacity="1" stop-color="rgb(96.258545%, 45.663452%, 2.398682%)" offset="0.7188"/>
      <stop stop-opacity="1" stop-color="rgb(96.328735%, 45.465088%, 2.398682%)" offset="0.7344"/>
      <stop stop-opacity="1" stop-color="rgb(96.3974%, 45.266724%, 2.398682%)" offset="0.75"/>
      <stop stop-opacity="1" stop-color="rgb(96.46759%, 45.068359%, 2.398682%)" offset="0.7656"/>
      <stop stop-opacity="1" stop-color="rgb(96.537781%, 44.869995%, 2.398682%)" offset="0.7812"/>
      <stop stop-opacity="1" stop-color="rgb(96.606445%, 44.671631%, 2.398682%)" offset="0.7969"/>
      <stop stop-opacity="1" stop-color="rgb(96.676636%, 44.473267%, 2.398682%)" offset="0.8125"/>
      <stop stop-opacity="1" stop-color="rgb(96.7453%, 44.274902%, 2.398682%)" offset="0.8281"/>
      <stop stop-opacity="1" stop-color="rgb(96.815491%, 44.078064%, 2.398682%)" offset="0.8438"/>
      <stop stop-opacity="1" stop-color="rgb(96.885681%, 43.8797%, 2.398682%)" offset="0.8594"/>
      <stop stop-opacity="1" stop-color="rgb(96.954346%, 43.681335%, 2.398682%)" offset="0.875"/>
      <stop stop-opacity="1" stop-color="rgb(97.024536%, 43.482971%, 2.398682%)" offset="0.8906"/>
      <stop stop-opacity="1" stop-color="rgb(97.093201%, 43.284607%, 2.398682%)" offset="0.9063"/>
      <stop stop-opacity="1" stop-color="rgb(97.163391%, 43.086243%, 2.398682%)" offset="0.9219"/>
      <stop stop-opacity="1" stop-color="rgb(97.232056%, 42.887878%, 2.398682%)" offset="0.9375"/>
      <stop stop-opacity="1" stop-color="rgb(97.28241%, 42.74292%, 2.398682%)" offset="1"/>
    </linearGradient>
    <clipPath id="42e86c1028">
      <path d="M 183 709 L 202 709 L 202 759 L 183 759 Z M 183 709 " clip-rule="nonzero"/>
    </clipPath>
    <clipPath id="bb9f7f7ed3">
      <path d="M 200.632812 727.222656 C 197.914062 738.8125 190.554688 758.472656 185.769531 758.355469 L 185.769531 758.359375 C 185.765625 758.355469 185.765625 758.355469 185.765625 758.355469 C 185.765625 758.359375 185.765625 758.359375 185.765625 758.359375 L 185.765625 758.355469 C 185.121094 758.335938 184.449219 757.949219 183.769531 757.28125 C 185.035156 756.171875 186.246094 754.199219 187.382812 751.71875 C 187.566406 751.757812 187.753906 751.78125 187.941406 751.78125 C 188.183594 751.78125 188.425781 751.746094 188.664062 751.679688 C 188.898438 751.609375 189.132812 751.507812 189.320312 751.332031 C 189.066406 751.308594 188.839844 751.296875 188.613281 751.285156 C 188.386719 751.277344 188.164062 751.273438 187.941406 751.273438 C 187.824219 751.273438 187.703125 751.28125 187.582031 751.28125 C 188.433594 749.367188 189.246094 747.171875 190.011719 744.84375 C 190.683594 744.957031 191.316406 745.011719 191.953125 745.085938 C 192.367188 745.132812 192.78125 745.175781 193.195312 745.230469 C 193.617188 745.285156 194.03125 745.359375 194.5 745.433594 C 194.222656 745.046875 193.820312 744.777344 193.394531 744.582031 C 192.964844 744.386719 192.472656 744.710938 192.015625 744.660156 C 191.554688 744.609375 191.125 744.1875 190.671875 744.265625 C 190.5 744.296875 190.332031 744.335938 190.164062 744.386719 C 191.96875 738.804688 193.5 732.542969 194.65625 727.617188 C 194.96875 726.269531 195.234375 724.992188 195.4375 723.78125 C 196.300781 723.832031 197.121094 723.855469 197.941406 723.910156 C 198.453125 723.949219 198.964844 723.988281 199.480469 724.046875 C 200.003906 724.09375 200.523438 724.171875 201.09375 724.21875 C 200.679688 723.824219 200.179688 723.546875 199.648438 723.351562 C 199.121094 723.15625 198.636719 723.496094 198.070312 723.457031 C 197.511719 723.425781 196.875 723.007812 196.324219 723.121094 C 196.046875 723.179688 195.769531 723.257812 195.503906 723.359375 C 196.8125 714.964844 194.90625 709.992188 185.097656 709.332031 C 185.746094 709.324219 186.417969 709.328125 187.121094 709.359375 C 187.121094 709.359375 187.121094 709.359375 187.125 709.359375 C 187.125 709.359375 187.125 709.359375 187.128906 709.359375 C 200.199219 709.53125 203.347656 715.632812 200.632812 727.222656 Z M 200.632812 727.222656 " clip-rule="nonzero"/>
    </clipPath>
    <linearGradient x1="36.38601" gradientTransform="matrix(0.344311, 0, 0, 0.340869, 171.241451, 691.966499)" y1="122.850998" x2="93.244004" gradientUnits="userSpaceOnUse" y2="122.850998" id="aa907371bd">
      <stop stop-opacity="1" stop-color="rgb(97.299194%, 42.698669%, 2.398682%)" offset="0"/>
      <stop stop-opacity="1" stop-color="rgb(97.219849%, 42.556763%, 2.398682%)" offset="0.0156"/>
      <stop stop-opacity="1" stop-color="rgb(97.064209%, 42.274475%, 2.398682%)" offset="0.0313"/>
      <stop stop-opacity="1" stop-color="rgb(96.907043%, 41.992188%, 2.398682%)" offset="0.0469"/>
      <stop stop-opacity="1" stop-color="rgb(96.749878%, 41.7099%, 2.398682%)" offset="0.0625"/>
      <stop stop-opacity="1" stop-color="rgb(96.594238%, 41.427612%, 2.398682%)" offset="0.0781"/>
      <stop stop-opacity="1" stop-color="rgb(96.437073%, 41.145325%, 2.398682%)" offset="0.0938"/>
      <stop stop-opacity="1" stop-color="rgb(96.279907%, 40.863037%, 2.398682%)" offset="0.1094"/>
      <stop stop-opacity="1" stop-color="rgb(96.122742%, 40.58075%, 2.398682%)" offset="0.125"/>
      <stop stop-opacity="1" stop-color="rgb(95.967102%, 40.298462%, 2.398682%)" offset="0.1406"/>
      <stop stop-opacity="1" stop-color="rgb(95.809937%, 40.014648%, 2.398682%)" offset="0.1563"/>
      <stop stop-opacity="1" stop-color="rgb(95.652771%, 39.732361%, 2.398682%)" offset="0.1719"/>
      <stop stop-opacity="1" stop-color="rgb(95.497131%, 39.450073%, 2.398682%)" offset="0.1875"/>
      <stop stop-opacity="1" stop-color="rgb(95.339966%, 39.167786%, 2.398682%)" offset="0.2031"/>
      <stop stop-opacity="1" stop-color="rgb(95.1828%, 38.885498%, 2.398682%)" offset="0.2188"/>
      <stop stop-opacity="1" stop-color="rgb(95.025635%, 38.60321%, 2.398682%)" offset="0.2344"/>
      <stop stop-opacity="1" stop-color="rgb(94.869995%, 38.320923%, 2.398682%)" offset="0.25"/>
      <stop stop-opacity="1" stop-color="rgb(94.71283%, 38.038635%, 2.398682%)" offset="0.2656"/>
      <stop stop-opacity="1" stop-color="rgb(94.555664%, 37.756348%, 2.398682%)" offset="0.2813"/>
      <stop stop-opacity="1" stop-color="rgb(94.398499%, 37.472534%, 2.398682%)" offset="0.2969"/>
      <stop stop-opacity="1" stop-color="rgb(94.242859%, 37.190247%, 2.398682%)" offset="0.3125"/>
      <stop stop-opacity="1" stop-color="rgb(94.085693%, 36.907959%, 2.398682%)" offset="0.3281"/>
      <stop stop-opacity="1" stop-color="rgb(93.928528%, 36.625671%, 2.398682%)" offset="0.3438"/>
      <stop stop-opacity="1" stop-color="rgb(93.772888%, 36.343384%, 2.398682%)" offset="0.3594"/>
      <stop stop-opacity="1" stop-color="rgb(93.615723%, 36.061096%, 2.398682%)" offset="0.375"/>
      <stop stop-opacity="1" stop-color="rgb(93.458557%, 35.778809%, 2.398682%)" offset="0.3906"/>
      <stop stop-opacity="1" stop-color="rgb(93.301392%, 35.496521%, 2.398682%)" offset="0.4063"/>
      <stop stop-opacity="1" stop-color="rgb(93.145752%, 35.212708%, 2.398682%)" offset="0.4219"/>
      <stop stop-opacity="1" stop-color="rgb(92.988586%, 34.93042%, 2.398682%)" offset="0.4375"/>
      <stop stop-opacity="1" stop-color="rgb(92.831421%, 34.648132%, 2.398682%)" offset="0.4531"/>
      <stop stop-opacity="1" stop-color="rgb(92.675781%, 34.365845%, 2.398682%)" offset="0.4688"/>
      <stop stop-opacity="1" stop-color="rgb(92.518616%, 34.083557%, 2.398682%)" offset="0.4844"/>
      <stop stop-opacity="1" stop-color="rgb(92.36145%, 33.80127%, 2.398682%)" offset="0.5"/>
      <stop stop-opacity="1" stop-color="rgb(92.204285%, 33.518982%, 2.398682%)" offset="0.5156"/>
      <stop stop-opacity="1" stop-color="rgb(92.048645%, 33.236694%, 2.398682%)" offset="0.5312"/>
      <stop stop-opacity="1" stop-color="rgb(91.891479%, 32.952881%, 2.398682%)" offset="0.5469"/>
      <stop stop-opacity="1" stop-color="rgb(91.734314%, 32.670593%, 2.398682%)" offset="0.5625"/>
      <stop stop-opacity="1" stop-color="rgb(91.578674%, 32.388306%, 2.398682%)" offset="0.5781"/>
      <stop stop-opacity="1" stop-color="rgb(91.421509%, 32.106018%, 2.398682%)" offset="0.5938"/>
      <stop stop-opacity="1" stop-color="rgb(91.264343%, 31.82373%, 2.398682%)" offset="0.6094"/>
      <stop stop-opacity="1" stop-color="rgb(91.107178%, 31.541443%, 2.398682%)" offset="0.625"/>
      <stop stop-opacity="1" stop-color="rgb(90.951538%, 31.259155%, 2.398682%)" offset="0.6406"/>
      <stop stop-opacity="1" stop-color="rgb(90.794373%, 30.976868%, 2.398682%)" offset="0.6563"/>
      <stop stop-opacity="1" stop-color="rgb(90.637207%, 30.69458%, 2.398682%)" offset="0.6719"/>
      <stop stop-opacity="1" stop-color="rgb(90.480042%, 30.410767%, 2.398682%)" offset="0.6875"/>
      <stop stop-opacity="1" stop-color="rgb(90.324402%, 30.128479%, 2.398682%)" offset="0.7031"/>
      <stop stop-opacity="1" stop-color="rgb(90.167236%, 29.846191%, 2.398682%)" offset="0.7188"/>
      <stop stop-opacity="1" stop-color="rgb(90.010071%, 29.563904%, 2.398682%)" offset="0.7344"/>
      <stop stop-opacity="1" stop-color="rgb(89.854431%, 29.281616%, 2.398682%)" offset="0.75"/>
      <stop stop-opacity="1" stop-color="rgb(89.697266%, 28.999329%, 2.398682%)" offset="0.7656"/>
      <stop stop-opacity="1" stop-color="rgb(89.5401%, 28.717041%, 2.398682%)" offset="0.7812"/>
      <stop stop-opacity="1" stop-color="rgb(89.382935%, 28.434753%, 2.398682%)" offset="0.7969"/>
      <stop stop-opacity="1" stop-color="rgb(89.227295%, 28.15094%, 2.398682%)" offset="0.8125"/>
      <stop stop-opacity="1" stop-color="rgb(89.070129%, 27.868652%, 2.398682%)" offset="0.8281"/>
      <stop stop-opacity="1" stop-color="rgb(88.912964%, 27.586365%, 2.398682%)" offset="0.8438"/>
      <stop stop-opacity="1" stop-color="rgb(88.757324%, 27.304077%, 2.398682%)" offset="0.8594"/>
      <stop stop-opacity="1" stop-color="rgb(88.600159%, 27.02179%, 2.398682%)" offset="0.875"/>
      <stop stop-opacity="1" stop-color="rgb(88.442993%, 26.739502%, 2.398682%)" offset="0.8906"/>
      <stop stop-opacity="1" stop-color="rgb(88.285828%, 26.457214%, 2.398682%)" offset="0.9063"/>
      <stop stop-opacity="1" stop-color="rgb(88.20343%, 26.307678%, 2.398682%)" offset="0.9375"/>
      <stop stop-opacity="1" stop-color="rgb(88.198853%, 26.298523%, 2.398682%)" offset="1"/>
    </linearGradient>
  </defs>
  <g>
    <g clip-path="url(#ee463d1af4)">
      <path fill="#4b8c00" d="M 179.179688 709.136719 C 179.179688 709.136719 170.171875 704.4375 173.355469 700.925781 C 174.738281 699.398438 177.304688 700.304688 178.8125 701.800781 C 181.179688 704.148438 182.765625 708.289062 182.765625 708.289062 C 182.765625 708.289062 175.429688 692.621094 181.988281 691.980469 C 188.085938 691.390625 187.070312 708.019531 187.070312 708.019531 C 187.070312 708.019531 187.117188 693.039062 192.984375 694.027344 C 198.855469 695.015625 190.027344 708.171875 190.027344 708.171875 C 190.027344 708.171875 192.355469 705.085938 194.839844 703.648438 C 196.328125 702.789062 198.660156 702.488281 199.5 703.59375 C 201.539062 706.261719 194.964844 709.144531 194.964844 709.144531 Z M 179.179688 709.136719 " fill-opacity="1" fill-rule="nonzero"/>
    </g>
    <g clip-path="url(#a606606a17)">
      <path fill="#3b570d" d="M 193.972656 694.386719 C 197.707031 696.722656 190.027344 708.171875 190.027344 708.171875 C 190.027344 708.171875 190.234375 707.902344 190.578125 707.492188 C 190.125 708.085938 189.71875 708.640625 189.359375 709.144531 C 189.359375 709.144531 193.007812 701.59375 193.796875 698.003906 C 194.101562 696.613281 194.195312 695.375 193.972656 694.386719 Z M 185.601562 697.964844 C 186.542969 702.101562 187.023438 709.140625 187.023438 709.140625 L 187.125 704.398438 C 187.035156 699.542969 186.242188 691.570312 181.988281 691.980469 C 181.882812 691.992188 181.792969 692.015625 181.691406 692.035156 C 183.398438 692.78125 184.871094 694.773438 185.601562 697.964844 Z M 199.769531 704.0625 C 198.847656 705.773438 197.507812 707.140625 194.519531 709.144531 L 194.964844 709.144531 C 194.964844 709.144531 200.789062 706.589844 199.769531 704.0625 C 199.6875 704.207031 199.769531 704.0625 199.769531 704.0625 Z M 180.746094 705.226562 C 181.789062 706.632812 182.8125 708.296875 183.390625 709.140625 L 181.867188 706.199219 C 181.960938 706.429688 182.050781 706.648438 182.132812 706.847656 C 181.460938 705.425781 180.289062 703.265625 178.816406 701.800781 C 177.652344 700.648438 175.863281 699.851562 174.46875 700.242188 C 175.710938 700.71875 178.214844 701.8125 180.746094 705.226562 Z M 180.746094 705.226562 " fill-opacity="1" fill-rule="nonzero"/>
    </g>
    <path fill="#78b31a" d="M 178.465 707.781 C 178.465 707.781 172.891 704.031 173.734 701.992 C 174.082 701.156 175.305 701.496 176.273 703.133 C 177.406 705.043 178.465 707.781 178.465 707.781 Z M 182.809 698.934 C 182.68 697.016 182.418 693.09 181.062 693.297 C 179.703 693.5 180.051 697.645 180.719 700.094 C 181.387 702.543 183.164 707.176 183.164 707.176 C 183.164 707.176 182.941 700.852 182.809 698.934 Z M 191.785 697.477 C 192.473 695.883 192.574 693.426 190.641 695.5 C 188.711 697.574 188.035 704.156 188.035 704.156 C 188.035 704.156 191.098 699.066 191.785 697.477 Z M 197.328 704.707 C 198.555 703.645 197.871 702.887 195.961 703.73 C 194.051 704.57 190.73 707.809 190.73 707.809 C 190.73 707.809 196.102 705.766 197.328 704.707 Z M 197.328 704.707" fill-opacity="1" fill-rule="nonzero"/>
    <g clip-path="url(#14bad6bdc9)">
      <path fill="#e14306" d="M 201.28125 727.019531 C 198.417969 739.347656 190.667969 760.261719 185.628906 760.136719 L 185.628906 760.140625 C 185.625 760.140625 185.625 760.136719 185.625 760.136719 L 185.625 760.140625 L 185.621094 760.136719 C 180.585938 759.988281 174 738.683594 171.824219 726.222656 C 169.648438 713.753906 173.3125 707.453125 187.066406 708.019531 L 187.070312 708.019531 C 200.835938 708.199219 204.144531 714.6875 201.28125 727.019531 Z M 201.28125 727.019531 " fill-opacity="1" fill-rule="nonzero"/>
    </g>
    <g clip-path="url(#956e15c9b0)">
      <g clip-path="url(#4c0df72d60)">
        <path fill="url(#c5316cff4b)" d="M 170.488281 708.78125 L 170.488281 758.433594 L 203.253906 758.433594 L 203.253906 708.78125 Z M 170.488281 708.78125 " fill-rule="nonzero"/>
      </g>
    </g>
    <path fill="#f1a138" d="M 180.355 734.387 C 180.324 738.164 180.062 741.027 179.137 741.016 C 177.723 740.992 176.105 730.684 175.797 727.715 C 175.734 727.109 175.555 726.129 175.355 724.957 C 175.691 724.949 176.023 724.945 176.355 724.953 C 176.887 724.961 177.418 724.973 177.957 725 C 178.496 725.031 179.043 725.066 179.621 725.07 C 179.145 724.746 178.609 724.531 178.059 724.383 C 177.508 724.234 176.957 724.555 176.379 724.551 C 176.008 724.547 175.629 724.406 175.258 724.344 C 174.516 719.762 173.793 712.898 178.305 712.672 C 179.281 712.621 179.883 712.984 180.246 713.656 C 179.484 713.813 178.727 714.031 178.023 714.387 C 178.863 714.348 179.684 714.309 180.496 714.285 C 181.176 716.703 180.098 721.484 180.219 726.25 C 180.277 728.648 180.352 731.18 180.355 733.453 C 180.293 733.453 180.23 733.445 180.164 733.445 C 179.68 733.438 179.191 733.484 178.711 733.582 C 178.23 733.691 177.754 733.836 177.324 734.113 C 178.316 734.266 178.961 734.379 179.891 734.402 C 180.027 734.402 180.187 734.398 180.355 734.387 Z M 182.172 748.137 C 181.832 748.039 181.496 747.91 181.191 747.688 C 181.559 747.602 181.902 747.578 182.234 747.555 C 182.242 747.555 182.25 747.555 182.258 747.555 C 181.961 746.5 181.687 745.578 181.586 745.176 C 181.277 743.977 180.922 742.273 179.539 742.492 C 178.176 742.711 180.531 747.754 180.898 748.793 C 181.27 749.832 182.59 752.68 183.16 752.457 C 183.504 752.328 182.977 750.16 182.434 748.188 C 182.348 748.172 182.258 748.16 182.172 748.137 Z M 182.172 748.137" fill-opacity="1" fill-rule="nonzero"/>
    <g clip-path="url(#42e86c1028)">
      <g clip-path="url(#bb9f7f7ed3)">
        <path fill="url(#aa907371bd)" d="M 183.769531 709.324219 L 183.769531 758.472656 L 203.347656 758.472656 L 203.347656 709.324219 Z M 183.769531 709.324219 " fill-rule="nonzero"/>
      </g>
    </g>
  </g>
</svg>