<?xml version="1.0" encoding="utf-8"?>
<svg viewBox="395.418 1004.468 17.141 36.286" xmlns="http://www.w3.org/2000/svg">
  <defs>
    <clipPath id="29efb98dd9">
      <path d="M 396 1004.117188 L 411 1004.117188 L 411 1014 L 396 1014 Z M 396 1004.117188 " clip-rule="nonzero"/>
    </clipPath>
    <clipPath id="854c7e0eea">
      <path d="M 397 1004.117188 L 411 1004.117188 L 411 1014 L 397 1014 Z M 397 1004.117188 " clip-rule="nonzero"/>
    </clipPath>
    <clipPath id="270236b50a">
      <path d="M 395 1012 L 412 1012 L 412 1040.867188 L 395 1040.867188 Z M 395 1012 " clip-rule="nonzero"/>
    </clipPath>
    <clipPath id="107b308887">
      <path d="M 396 1013 L 412 1013 L 412 1040 L 396 1040 Z M 396 1013 " clip-rule="nonzero"/>
    </clipPath>
    <clipPath id="3694c592c1">
      <path d="M 404.050781 1013.703125 C 404.046875 1013.703125 404.046875 1013.703125 404.046875 1013.703125 C 397.230469 1013.417969 395.417969 1016.570312 396.496094 1022.808594 C 397.574219 1029.046875 400.839844 1039.707031 403.339844 1039.785156 C 405.839844 1039.847656 409.675781 1029.382812 411.09375 1023.210938 C 412.511719 1017.042969 410.871094 1013.792969 404.050781 1013.703125 Z M 406.0625 1019.453125 C 406.421875 1019.53125 406.773438 1019.648438 407.09375 1019.828125 C 406.726562 1019.800781 406.375 1019.761719 406.023438 1019.742188 C 405.667969 1019.71875 405.316406 1019.710938 404.964844 1019.707031 C 404.261719 1019.707031 403.5625 1019.75 402.832031 1019.796875 C 403.15625 1019.625 403.515625 1019.519531 403.871094 1019.445312 C 404.230469 1019.371094 404.597656 1019.335938 404.96875 1019.335938 C 405.335938 1019.332031 405.703125 1019.375 406.0625 1019.453125 Z M 400.632812 1015.984375 C 401.074219 1015.902344 401.527344 1015.863281 401.976562 1015.875 C 402.492188 1015.882812 402.882812 1015.941406 403.320312 1016.050781 C 403.761719 1016.15625 404.191406 1016.316406 404.578125 1016.550781 C 404.128906 1016.5 403.695312 1016.445312 403.265625 1016.410156 C 402.832031 1016.371094 402.402344 1016.351562 401.96875 1016.339844 C 401.105469 1016.316406 400.246094 1016.359375 399.347656 1016.402344 C 399.75 1016.191406 400.191406 1016.070312 400.632812 1015.984375 Z M 396.777344 1022.074219 C 397.019531 1021.890625 397.304688 1021.78125 397.59375 1021.703125 C 397.882812 1021.628906 398.191406 1021.808594 398.488281 1021.8125 C 398.789062 1021.8125 399.078125 1021.640625 399.367188 1021.722656 C 399.652344 1021.800781 399.933594 1021.917969 400.179688 1022.089844 C 399.878906 1022.085938 399.59375 1022.066406 399.3125 1022.050781 C 399.03125 1022.035156 398.753906 1022.03125 398.476562 1022.027344 C 397.917969 1022.015625 397.371094 1022.042969 396.777344 1022.074219 Z M 398.984375 1026.902344 C 399.207031 1026.753906 399.457031 1026.675781 399.707031 1026.621094 C 399.957031 1026.566406 400.210938 1026.542969 400.464844 1026.546875 C 400.71875 1026.550781 400.972656 1026.582031 401.222656 1026.640625 C 401.472656 1026.703125 401.714844 1026.789062 401.941406 1026.929688 C 401.679688 1026.980469 401.429688 1026.992188 401.1875 1027.003906 C 400.941406 1027.011719 400.5625 1027.058594 400.324219 1027.054688 C 399.835938 1027.042969 399.5 1026.984375 398.984375 1026.902344 Z M 402.613281 1034.359375 C 402.433594 1034.414062 402.246094 1034.4375 402.0625 1034.4375 C 401.875 1034.4375 401.691406 1034.414062 401.511719 1034.367188 C 401.335938 1034.3125 401.160156 1034.246094 401 1034.125 C 401.191406 1034.082031 401.371094 1034.070312 401.546875 1034.058594 C 401.722656 1034.046875 401.890625 1034.042969 402.0625 1034.042969 C 402.230469 1034.042969 402.402344 1034.046875 402.574219 1034.054688 C 402.746094 1034.0625 402.917969 1034.070312 403.113281 1034.089844 C 402.972656 1034.226562 402.792969 1034.304688 402.613281 1034.359375 Z M 403.226562 1029.460938 C 402.925781 1029.324219 402.636719 1029.148438 402.402344 1028.902344 C 402.742188 1028.921875 403.046875 1028.96875 403.351562 1029.007812 L 404.257812 1029.039062 C 404.855469 1029.121094 405.445312 1029.265625 406.101562 1029.378906 C 405.816406 1029.566406 405.492188 1029.652344 405.164062 1029.707031 C 404.839844 1029.757812 404.507812 1029.761719 404.179688 1029.71875 C 403.851562 1029.679688 403.53125 1029.589844 403.226562 1029.460938 Z M 404.898438 1036.253906 C 404.777344 1036.289062 404.648438 1036.304688 404.523438 1036.304688 C 404.394531 1036.304688 404.269531 1036.289062 404.148438 1036.257812 C 404.023438 1036.21875 403.90625 1036.171875 403.796875 1036.09375 C 403.929688 1036.0625 404.050781 1036.054688 404.167969 1036.042969 C 404.289062 1036.039062 404.40625 1036.035156 404.523438 1036.035156 C 404.636719 1036.035156 404.753906 1036.039062 404.871094 1036.042969 C 404.992188 1036.046875 405.109375 1036.054688 405.242188 1036.066406 C 405.144531 1036.160156 405.023438 1036.214844 404.898438 1036.253906 Z M 407.265625 1032.820312 C 407.046875 1032.789062 406.832031 1032.765625 406.617188 1032.742188 C 406.179688 1032.6875 405.746094 1032.65625 405.265625 1032.546875 C 405.480469 1032.414062 405.710938 1032.347656 405.949219 1032.304688 C 406.183594 1032.265625 406.410156 1032.488281 406.648438 1032.515625 C 406.886719 1032.542969 407.144531 1032.371094 407.367188 1032.472656 C 407.589844 1032.578125 407.796875 1032.722656 407.945312 1032.925781 C 407.699219 1032.886719 407.484375 1032.847656 407.265625 1032.820312 Z M 407.402344 1024.804688 C 407.097656 1024.839844 406.789062 1024.847656 406.484375 1024.828125 C 406.179688 1024.808594 405.875 1024.757812 405.578125 1024.679688 C 405.28125 1024.601562 404.988281 1024.488281 404.722656 1024.324219 C 405.035156 1024.316406 405.332031 1024.332031 405.628906 1024.347656 C 405.925781 1024.363281 406.21875 1024.375 406.511719 1024.398438 C 406.804688 1024.414062 407.101562 1024.441406 407.394531 1024.46875 C 407.691406 1024.492188 407.988281 1024.523438 408.296875 1024.578125 C 408.007812 1024.703125 407.703125 1024.765625 407.402344 1024.804688 Z M 410.542969 1021.542969 C 410.273438 1021.511719 410.007812 1021.492188 409.738281 1021.46875 C 409.199219 1021.433594 408.667969 1021.425781 408.082031 1021.375 C 408.328125 1021.207031 408.609375 1021.113281 408.894531 1021.046875 C 409.183594 1020.988281 409.515625 1021.210938 409.808594 1021.230469 C 410.101562 1021.25 410.355469 1021.066406 410.628906 1021.171875 C 410.90625 1021.277344 411.167969 1021.425781 411.382812 1021.632812 C 411.085938 1021.609375 410.816406 1021.566406 410.542969 1021.542969 Z M 410.542969 1021.542969 " clip-rule="nonzero"/>
    </clipPath>
    <linearGradient x1="-2.186965" gradientTransform="matrix(0.179641, 0, 0, 0.181442, 395.80905, 1004.466915)" y1="122.727997" x2="92.978027" gradientUnits="userSpaceOnUse" y2="122.727997" id="4c62fb57dd">
      <stop stop-opacity="1" stop-color="rgb(93.299866%, 54.098511%, 2.398682%)" offset="0"/>
      <stop stop-opacity="1" stop-color="rgb(93.334961%, 53.994751%, 2.398682%)" offset="0.0625"/>
      <stop stop-opacity="1" stop-color="rgb(93.406677%, 53.793335%, 2.398682%)" offset="0.0781"/>
      <stop stop-opacity="1" stop-color="rgb(93.475342%, 53.594971%, 2.398682%)" offset="0.0938"/>
      <stop stop-opacity="1" stop-color="rgb(93.545532%, 53.396606%, 2.398682%)" offset="0.1094"/>
      <stop stop-opacity="1" stop-color="rgb(93.614197%, 53.198242%, 2.398682%)" offset="0.125"/>
      <stop stop-opacity="1" stop-color="rgb(93.684387%, 52.999878%, 2.398682%)" offset="0.1406"/>
      <stop stop-opacity="1" stop-color="rgb(93.754578%, 52.801514%, 2.398682%)" offset="0.1563"/>
      <stop stop-opacity="1" stop-color="rgb(93.823242%, 52.603149%, 2.398682%)" offset="0.1719"/>
      <stop stop-opacity="1" stop-color="rgb(93.893433%, 52.404785%, 2.398682%)" offset="0.1875"/>
      <stop stop-opacity="1" stop-color="rgb(93.962097%, 52.206421%, 2.398682%)" offset="0.2031"/>
      <stop stop-opacity="1" stop-color="rgb(94.032288%, 52.008057%, 2.398682%)" offset="0.2188"/>
      <stop stop-opacity="1" stop-color="rgb(94.102478%, 51.811218%, 2.398682%)" offset="0.2344"/>
      <stop stop-opacity="1" stop-color="rgb(94.171143%, 51.612854%, 2.398682%)" offset="0.25"/>
      <stop stop-opacity="1" stop-color="rgb(94.241333%, 51.41449%, 2.398682%)" offset="0.2656"/>
      <stop stop-opacity="1" stop-color="rgb(94.309998%, 51.216125%, 2.398682%)" offset="0.2813"/>
      <stop stop-opacity="1" stop-color="rgb(94.380188%, 51.017761%, 2.398682%)" offset="0.2969"/>
      <stop stop-opacity="1" stop-color="rgb(94.450378%, 50.819397%, 2.398682%)" offset="0.3125"/>
      <stop stop-opacity="1" stop-color="rgb(94.519043%, 50.621033%, 2.398682%)" offset="0.3281"/>
      <stop stop-opacity="1" stop-color="rgb(94.589233%, 50.422668%, 2.398682%)" offset="0.3438"/>
      <stop stop-opacity="1" stop-color="rgb(94.657898%, 50.224304%, 2.398682%)" offset="0.3594"/>
      <stop stop-opacity="1" stop-color="rgb(94.728088%, 50.02594%, 2.398682%)" offset="0.375"/>
      <stop stop-opacity="1" stop-color="rgb(94.798279%, 49.827576%, 2.398682%)" offset="0.3906"/>
      <stop stop-opacity="1" stop-color="rgb(94.866943%, 49.629211%, 2.398682%)" offset="0.4063"/>
      <stop stop-opacity="1" stop-color="rgb(94.937134%, 49.430847%, 2.398682%)" offset="0.4219"/>
      <stop stop-opacity="1" stop-color="rgb(95.005798%, 49.232483%, 2.398682%)" offset="0.4375"/>
      <stop stop-opacity="1" stop-color="rgb(95.075989%, 49.034119%, 2.398682%)" offset="0.4531"/>
      <stop stop-opacity="1" stop-color="rgb(95.146179%, 48.835754%, 2.398682%)" offset="0.4688"/>
      <stop stop-opacity="1" stop-color="rgb(95.214844%, 48.63739%, 2.398682%)" offset="0.4844"/>
      <stop stop-opacity="1" stop-color="rgb(95.285034%, 48.439026%, 2.398682%)" offset="0.5"/>
      <stop stop-opacity="1" stop-color="rgb(95.353699%, 48.240662%, 2.398682%)" offset="0.5156"/>
      <stop stop-opacity="1" stop-color="rgb(95.423889%, 48.043823%, 2.398682%)" offset="0.5312"/>
      <stop stop-opacity="1" stop-color="rgb(95.49408%, 47.845459%, 2.398682%)" offset="0.5469"/>
      <stop stop-opacity="1" stop-color="rgb(95.562744%, 47.647095%, 2.398682%)" offset="0.5625"/>
      <stop stop-opacity="1" stop-color="rgb(95.632935%, 47.44873%, 2.398682%)" offset="0.5781"/>
      <stop stop-opacity="1" stop-color="rgb(95.701599%, 47.250366%, 2.398682%)" offset="0.5938"/>
      <stop stop-opacity="1" stop-color="rgb(95.77179%, 47.052002%, 2.398682%)" offset="0.6094"/>
      <stop stop-opacity="1" stop-color="rgb(95.84198%, 46.853638%, 2.398682%)" offset="0.625"/>
      <stop stop-opacity="1" stop-color="rgb(95.910645%, 46.655273%, 2.398682%)" offset="0.6406"/>
      <stop stop-opacity="1" stop-color="rgb(95.980835%, 46.456909%, 2.398682%)" offset="0.6563"/>
      <stop stop-opacity="1" stop-color="rgb(96.0495%, 46.258545%, 2.398682%)" offset="0.6719"/>
      <stop stop-opacity="1" stop-color="rgb(96.11969%, 46.060181%, 2.398682%)" offset="0.6875"/>
      <stop stop-opacity="1" stop-color="rgb(96.18988%, 45.861816%, 2.398682%)" offset="0.7031"/>
      <stop stop-opacity="1" stop-color="rgb(96.258545%, 45.663452%, 2.398682%)" offset="0.7188"/>
      <stop stop-opacity="1" stop-color="rgb(96.328735%, 45.465088%, 2.398682%)" offset="0.7344"/>
      <stop stop-opacity="1" stop-color="rgb(96.3974%, 45.266724%, 2.398682%)" offset="0.75"/>
      <stop stop-opacity="1" stop-color="rgb(96.46759%, 45.068359%, 2.398682%)" offset="0.7656"/>
      <stop stop-opacity="1" stop-color="rgb(96.537781%, 44.869995%, 2.398682%)" offset="0.7812"/>
      <stop stop-opacity="1" stop-color="rgb(96.606445%, 44.671631%, 2.398682%)" offset="0.7969"/>
      <stop stop-opacity="1" stop-color="rgb(96.676636%, 44.473267%, 2.398682%)" offset="0.8125"/>
      <stop stop-opacity="1" stop-color="rgb(96.7453%, 44.274902%, 2.398682%)" offset="0.8281"/>
      <stop stop-opacity="1" stop-color="rgb(96.815491%, 44.078064%, 2.398682%)" offset="0.8438"/>
      <stop stop-opacity="1" stop-color="rgb(96.885681%, 43.8797%, 2.398682%)" offset="0.8594"/>
      <stop stop-opacity="1" stop-color="rgb(96.954346%, 43.681335%, 2.398682%)" offset="0.875"/>
      <stop stop-opacity="1" stop-color="rgb(97.024536%, 43.482971%, 2.398682%)" offset="0.8906"/>
      <stop stop-opacity="1" stop-color="rgb(97.093201%, 43.284607%, 2.398682%)" offset="0.9063"/>
      <stop stop-opacity="1" stop-color="rgb(97.163391%, 43.086243%, 2.398682%)" offset="0.9219"/>
      <stop stop-opacity="1" stop-color="rgb(97.232056%, 42.887878%, 2.398682%)" offset="0.9375"/>
      <stop stop-opacity="1" stop-color="rgb(97.28241%, 42.74292%, 2.398682%)" offset="1"/>
    </linearGradient>
    <clipPath id="ad3e954591">
      <path d="M 402 1013 L 412 1013 L 412 1040 L 402 1040 Z M 402 1013 " clip-rule="nonzero"/>
    </clipPath>
    <clipPath id="79b782ed6c">
      <path d="M 411.144531 1023.234375 C 409.722656 1029.402344 405.886719 1039.867188 403.386719 1039.804688 L 403.390625 1039.808594 C 403.386719 1039.804688 403.386719 1039.804688 403.386719 1039.804688 C 403.386719 1039.808594 403.386719 1039.804688 403.386719 1039.804688 C 403.050781 1039.796875 402.699219 1039.589844 402.34375 1039.234375 C 403.003906 1038.644531 403.636719 1037.59375 404.230469 1036.273438 C 404.328125 1036.292969 404.425781 1036.304688 404.523438 1036.304688 C 404.648438 1036.304688 404.777344 1036.289062 404.898438 1036.253906 C 405.023438 1036.214844 405.144531 1036.160156 405.242188 1036.066406 C 405.109375 1036.054688 404.992188 1036.046875 404.871094 1036.042969 C 404.753906 1036.039062 404.636719 1036.035156 404.523438 1036.035156 C 404.460938 1036.035156 404.398438 1036.039062 404.335938 1036.039062 C 404.78125 1035.019531 405.203125 1033.851562 405.601562 1032.613281 C 405.953125 1032.671875 406.285156 1032.703125 406.617188 1032.742188 C 406.832031 1032.765625 407.046875 1032.789062 407.265625 1032.820312 C 407.484375 1032.847656 407.699219 1032.886719 407.945312 1032.925781 C 407.796875 1032.722656 407.589844 1032.578125 407.367188 1032.472656 C 407.144531 1032.371094 406.886719 1032.542969 406.648438 1032.515625 C 406.40625 1032.488281 406.183594 1032.265625 405.949219 1032.304688 C 405.859375 1032.320312 405.769531 1032.34375 405.679688 1032.367188 C 406.625 1029.398438 407.421875 1026.066406 408.023438 1023.441406 C 408.1875 1022.726562 408.328125 1022.046875 408.433594 1021.402344 C 408.882812 1021.429688 409.3125 1021.441406 409.738281 1021.472656 C 410.007812 1021.492188 410.273438 1021.511719 410.542969 1021.542969 C 410.816406 1021.570312 411.085938 1021.609375 411.382812 1021.632812 C 411.167969 1021.425781 410.90625 1021.277344 410.628906 1021.171875 C 410.355469 1021.070312 410.101562 1021.25 409.808594 1021.230469 C 409.515625 1021.210938 409.183594 1020.988281 408.894531 1021.050781 C 408.75 1021.082031 408.605469 1021.121094 408.46875 1021.175781 C 409.152344 1016.707031 408.15625 1014.0625 403.039062 1013.710938 C 403.375 1013.707031 403.726562 1013.707031 404.09375 1013.726562 C 404.09375 1013.726562 404.09375 1013.726562 404.097656 1013.726562 C 410.917969 1013.816406 412.558594 1017.0625 411.144531 1023.234375 Z M 411.144531 1023.234375 " clip-rule="nonzero"/>
    </clipPath>
    <linearGradient x1="36.386038" gradientTransform="matrix(0.179641, 0, 0, 0.181442, 395.80905, 1004.466915)" y1="122.850998" x2="93.244033" gradientUnits="userSpaceOnUse" y2="122.850998" id="a1e01a434c">
      <stop stop-opacity="1" stop-color="rgb(97.299194%, 42.698669%, 2.398682%)" offset="0"/>
      <stop stop-opacity="1" stop-color="rgb(97.219849%, 42.556763%, 2.398682%)" offset="0.0156"/>
      <stop stop-opacity="1" stop-color="rgb(97.064209%, 42.274475%, 2.398682%)" offset="0.0313"/>
      <stop stop-opacity="1" stop-color="rgb(96.907043%, 41.992188%, 2.398682%)" offset="0.0469"/>
      <stop stop-opacity="1" stop-color="rgb(96.749878%, 41.7099%, 2.398682%)" offset="0.0625"/>
      <stop stop-opacity="1" stop-color="rgb(96.594238%, 41.427612%, 2.398682%)" offset="0.0781"/>
      <stop stop-opacity="1" stop-color="rgb(96.437073%, 41.145325%, 2.398682%)" offset="0.0938"/>
      <stop stop-opacity="1" stop-color="rgb(96.279907%, 40.863037%, 2.398682%)" offset="0.1094"/>
      <stop stop-opacity="1" stop-color="rgb(96.122742%, 40.58075%, 2.398682%)" offset="0.125"/>
      <stop stop-opacity="1" stop-color="rgb(95.967102%, 40.298462%, 2.398682%)" offset="0.1406"/>
      <stop stop-opacity="1" stop-color="rgb(95.809937%, 40.014648%, 2.398682%)" offset="0.1563"/>
      <stop stop-opacity="1" stop-color="rgb(95.652771%, 39.732361%, 2.398682%)" offset="0.1719"/>
      <stop stop-opacity="1" stop-color="rgb(95.497131%, 39.450073%, 2.398682%)" offset="0.1875"/>
      <stop stop-opacity="1" stop-color="rgb(95.339966%, 39.167786%, 2.398682%)" offset="0.2031"/>
      <stop stop-opacity="1" stop-color="rgb(95.1828%, 38.885498%, 2.398682%)" offset="0.2188"/>
      <stop stop-opacity="1" stop-color="rgb(95.025635%, 38.60321%, 2.398682%)" offset="0.2344"/>
      <stop stop-opacity="1" stop-color="rgb(94.869995%, 38.320923%, 2.398682%)" offset="0.25"/>
      <stop stop-opacity="1" stop-color="rgb(94.71283%, 38.038635%, 2.398682%)" offset="0.2656"/>
      <stop stop-opacity="1" stop-color="rgb(94.555664%, 37.756348%, 2.398682%)" offset="0.2813"/>
      <stop stop-opacity="1" stop-color="rgb(94.398499%, 37.472534%, 2.398682%)" offset="0.2969"/>
      <stop stop-opacity="1" stop-color="rgb(94.242859%, 37.190247%, 2.398682%)" offset="0.3125"/>
      <stop stop-opacity="1" stop-color="rgb(94.085693%, 36.907959%, 2.398682%)" offset="0.3281"/>
      <stop stop-opacity="1" stop-color="rgb(93.928528%, 36.625671%, 2.398682%)" offset="0.3438"/>
      <stop stop-opacity="1" stop-color="rgb(93.772888%, 36.343384%, 2.398682%)" offset="0.3594"/>
      <stop stop-opacity="1" stop-color="rgb(93.615723%, 36.061096%, 2.398682%)" offset="0.375"/>
      <stop stop-opacity="1" stop-color="rgb(93.458557%, 35.778809%, 2.398682%)" offset="0.3906"/>
      <stop stop-opacity="1" stop-color="rgb(93.301392%, 35.496521%, 2.398682%)" offset="0.4063"/>
      <stop stop-opacity="1" stop-color="rgb(93.145752%, 35.212708%, 2.398682%)" offset="0.4219"/>
      <stop stop-opacity="1" stop-color="rgb(92.988586%, 34.93042%, 2.398682%)" offset="0.4375"/>
      <stop stop-opacity="1" stop-color="rgb(92.831421%, 34.648132%, 2.398682%)" offset="0.4531"/>
      <stop stop-opacity="1" stop-color="rgb(92.675781%, 34.365845%, 2.398682%)" offset="0.4688"/>
      <stop stop-opacity="1" stop-color="rgb(92.518616%, 34.083557%, 2.398682%)" offset="0.4844"/>
      <stop stop-opacity="1" stop-color="rgb(92.36145%, 33.80127%, 2.398682%)" offset="0.5"/>
      <stop stop-opacity="1" stop-color="rgb(92.204285%, 33.518982%, 2.398682%)" offset="0.5156"/>
      <stop stop-opacity="1" stop-color="rgb(92.048645%, 33.236694%, 2.398682%)" offset="0.5312"/>
      <stop stop-opacity="1" stop-color="rgb(91.891479%, 32.952881%, 2.398682%)" offset="0.5469"/>
      <stop stop-opacity="1" stop-color="rgb(91.734314%, 32.670593%, 2.398682%)" offset="0.5625"/>
      <stop stop-opacity="1" stop-color="rgb(91.578674%, 32.388306%, 2.398682%)" offset="0.5781"/>
      <stop stop-opacity="1" stop-color="rgb(91.421509%, 32.106018%, 2.398682%)" offset="0.5938"/>
      <stop stop-opacity="1" stop-color="rgb(91.264343%, 31.82373%, 2.398682%)" offset="0.6094"/>
      <stop stop-opacity="1" stop-color="rgb(91.107178%, 31.541443%, 2.398682%)" offset="0.625"/>
      <stop stop-opacity="1" stop-color="rgb(90.951538%, 31.259155%, 2.398682%)" offset="0.6406"/>
      <stop stop-opacity="1" stop-color="rgb(90.794373%, 30.976868%, 2.398682%)" offset="0.6563"/>
      <stop stop-opacity="1" stop-color="rgb(90.637207%, 30.69458%, 2.398682%)" offset="0.6719"/>
      <stop stop-opacity="1" stop-color="rgb(90.480042%, 30.410767%, 2.398682%)" offset="0.6875"/>
      <stop stop-opacity="1" stop-color="rgb(90.324402%, 30.128479%, 2.398682%)" offset="0.7031"/>
      <stop stop-opacity="1" stop-color="rgb(90.167236%, 29.846191%, 2.398682%)" offset="0.7188"/>
      <stop stop-opacity="1" stop-color="rgb(90.010071%, 29.563904%, 2.398682%)" offset="0.7344"/>
      <stop stop-opacity="1" stop-color="rgb(89.854431%, 29.281616%, 2.398682%)" offset="0.75"/>
      <stop stop-opacity="1" stop-color="rgb(89.697266%, 28.999329%, 2.398682%)" offset="0.7656"/>
      <stop stop-opacity="1" stop-color="rgb(89.5401%, 28.717041%, 2.398682%)" offset="0.7812"/>
      <stop stop-opacity="1" stop-color="rgb(89.382935%, 28.434753%, 2.398682%)" offset="0.7969"/>
      <stop stop-opacity="1" stop-color="rgb(89.227295%, 28.15094%, 2.398682%)" offset="0.8125"/>
      <stop stop-opacity="1" stop-color="rgb(89.070129%, 27.868652%, 2.398682%)" offset="0.8281"/>
      <stop stop-opacity="1" stop-color="rgb(88.912964%, 27.586365%, 2.398682%)" offset="0.8438"/>
      <stop stop-opacity="1" stop-color="rgb(88.757324%, 27.304077%, 2.398682%)" offset="0.8594"/>
      <stop stop-opacity="1" stop-color="rgb(88.600159%, 27.02179%, 2.398682%)" offset="0.875"/>
      <stop stop-opacity="1" stop-color="rgb(88.442993%, 26.739502%, 2.398682%)" offset="0.8906"/>
      <stop stop-opacity="1" stop-color="rgb(88.285828%, 26.457214%, 2.398682%)" offset="0.9063"/>
      <stop stop-opacity="1" stop-color="rgb(88.20343%, 26.307678%, 2.398682%)" offset="0.9375"/>
      <stop stop-opacity="1" stop-color="rgb(88.198853%, 26.298523%, 2.398682%)" offset="1"/>
    </linearGradient>
  </defs>
  <g>
    <g clip-path="url(#29efb98dd9)">
      <path fill="#4b8c00" d="M 399.949219 1013.605469 C 399.949219 1013.605469 395.25 1011.105469 396.914062 1009.234375 C 397.632812 1008.421875 398.972656 1008.90625 399.761719 1009.703125 C 400.992188 1010.949219 401.820312 1013.15625 401.820312 1013.15625 C 401.820312 1013.15625 397.992188 1004.816406 401.417969 1004.476562 C 404.597656 1004.160156 404.066406 1013.011719 404.066406 1013.011719 C 404.066406 1013.011719 404.09375 1005.039062 407.152344 1005.566406 C 410.214844 1006.089844 405.609375 1013.09375 405.609375 1013.09375 C 405.609375 1013.09375 406.824219 1011.449219 408.121094 1010.6875 C 408.898438 1010.226562 410.113281 1010.066406 410.554688 1010.65625 C 411.617188 1012.078125 408.1875 1013.609375 408.1875 1013.609375 Z M 399.949219 1013.605469 " fill-opacity="1" fill-rule="nonzero"/>
    </g>
    <g clip-path="url(#854c7e0eea)">
      <path fill="#3b570d" d="M 407.667969 1005.753906 C 409.617188 1007 405.609375 1013.09375 405.609375 1013.09375 C 405.609375 1013.09375 405.71875 1012.949219 405.898438 1012.730469 C 405.660156 1013.046875 405.449219 1013.34375 405.261719 1013.609375 C 405.261719 1013.609375 407.164062 1009.589844 407.578125 1007.679688 C 407.738281 1006.941406 407.785156 1006.28125 407.667969 1005.753906 Z M 403.300781 1007.660156 C 403.792969 1009.863281 404.042969 1013.609375 404.042969 1013.609375 L 404.097656 1011.082031 C 404.046875 1008.5 403.636719 1004.253906 401.417969 1004.476562 C 401.359375 1004.480469 401.3125 1004.492188 401.261719 1004.503906 C 402.152344 1004.902344 402.917969 1005.960938 403.300781 1007.660156 Z M 410.695312 1010.90625 C 410.210938 1011.816406 409.511719 1012.542969 407.953125 1013.609375 L 408.1875 1013.609375 C 408.1875 1013.609375 411.226562 1012.25 410.695312 1010.90625 C 410.648438 1010.980469 410.695312 1010.90625 410.695312 1010.90625 Z M 400.769531 1011.523438 C 401.3125 1012.273438 401.847656 1013.160156 402.148438 1013.609375 L 401.351562 1012.042969 C 401.402344 1012.164062 401.449219 1012.28125 401.492188 1012.386719 C 401.140625 1011.632812 400.527344 1010.480469 399.761719 1009.703125 C 399.152344 1009.089844 398.21875 1008.664062 397.492188 1008.871094 C 398.140625 1009.125 399.445312 1009.707031 400.769531 1011.523438 Z M 400.769531 1011.523438 " fill-opacity="1" fill-rule="nonzero"/>
    </g>
    <path fill="#78b31a" d="M 399.578 1012.887 C 399.578 1012.887 396.668 1010.891 397.109 1009.805 C 397.293 1009.359 397.93 1009.539 398.434 1010.41 C 399.023 1011.426 399.578 1012.887 399.578 1012.887 Z M 401.844 1008.176 C 401.777 1007.156 401.641 1005.066 400.934 1005.176 C 400.223 1005.285 400.406 1007.488 400.754 1008.793 C 401.102 1010.098 402.027 1012.563 402.027 1012.563 C 402.027 1012.563 401.914 1009.195 401.844 1008.176 Z M 406.527 1007.398 C 406.887 1006.551 406.938 1005.242 405.93 1006.348 C 404.926 1007.453 404.57 1010.953 404.57 1010.953 C 404.57 1010.953 406.168 1008.246 406.527 1007.398 Z M 409.418 1011.246 C 410.059 1010.684 409.703 1010.277 408.707 1010.727 C 407.711 1011.176 405.977 1012.898 405.977 1012.898 C 405.977 1012.898 408.777 1011.813 409.418 1011.246 Z M 409.418 1011.246" fill-opacity="1" fill-rule="nonzero"/>
    <g clip-path="url(#270236b50a)">
      <path fill="#e14306" d="M 411.480469 1023.125 C 409.988281 1029.6875 405.945312 1040.820312 403.316406 1040.753906 C 403.3125 1040.753906 403.3125 1040.753906 403.3125 1040.753906 C 400.683594 1040.675781 397.25 1029.335938 396.113281 1022.699219 C 394.976562 1016.0625 396.890625 1012.710938 404.066406 1013.011719 C 411.25 1013.109375 412.976562 1016.5625 411.480469 1023.125 Z M 411.480469 1023.125 " fill-opacity="1" fill-rule="nonzero"/>
    </g>
    <g clip-path="url(#107b308887)">
      <g clip-path="url(#3694c592c1)">
        <path fill="url(#4c62fb57dd)" d="M 395.417969 1013.417969 L 395.417969 1039.847656 L 412.511719 1039.847656 L 412.511719 1013.417969 Z M 395.417969 1013.417969 " fill-rule="nonzero"/>
      </g>
    </g>
    <path fill="#f1a138" d="M 400.563 1027.047 C 400.551 1029.059 400.41 1030.582 399.93 1030.574 C 399.191 1030.563 398.348 1025.074 398.188 1023.496 C 398.152 1023.172 398.059 1022.652 397.957 1022.027 C 398.129 1022.023 398.305 1022.023 398.477 1022.023 C 398.754 1022.031 399.031 1022.035 399.313 1022.051 C 399.594 1022.066 399.879 1022.086 400.18 1022.09 C 399.934 1021.918 399.652 1021.801 399.367 1021.723 C 399.078 1021.641 398.789 1021.813 398.492 1021.813 C 398.297 1021.809 398.098 1021.734 397.902 1021.703 C 397.516 1019.262 397.141 1015.609 399.496 1015.488 C 400.004 1015.461 400.32 1015.656 400.508 1016.012 C 400.109 1016.098 399.715 1016.211 399.348 1016.402 C 399.785 1016.379 400.215 1016.359 400.637 1016.348 C 400.992 1017.633 400.43 1020.18 400.492 1022.715 C 400.523 1023.992 400.563 1025.34 400.566 1026.551 C 400.531 1026.551 400.5 1026.547 400.465 1026.547 C 400.211 1026.543 399.957 1026.566 399.707 1026.621 C 399.457 1026.676 399.207 1026.754 398.984 1026.902 C 399.5 1026.984 399.836 1027.043 400.324 1027.055 C 400.395 1027.055 400.477 1027.051 400.563 1027.047 Z M 401.512 1034.367 C 401.336 1034.313 401.16 1034.246 401 1034.125 C 401.191 1034.082 401.371 1034.07 401.547 1034.059 C 401.551 1034.055 401.555 1034.055 401.559 1034.055 C 401.402 1033.492 401.258 1033.004 401.207 1032.789 C 401.047 1032.152 400.859 1031.246 400.141 1031.359 C 399.426 1031.477 400.656 1034.16 400.848 1034.715 C 401.043 1035.266 401.73 1036.785 402.027 1036.668 C 402.207 1036.598 401.934 1035.441 401.648 1034.395 C 401.602 1034.383 401.559 1034.379 401.512 1034.367 Z M 401.512 1034.367" fill-opacity="1" fill-rule="nonzero"/>
    <g clip-path="url(#ad3e954591)">
      <g clip-path="url(#79b782ed6c)">
        <path fill="url(#a1e01a434c)" d="M 402.34375 1013.707031 L 402.34375 1039.867188 L 412.558594 1039.867188 L 412.558594 1013.707031 Z M 402.34375 1013.707031 " fill-rule="nonzero"/>
      </g>
    </g>
  </g>
</svg>