<?xml version="1.0" encoding="utf-8"?>
<svg viewBox="398.216 802.922 20.553 32.977" xmlns="http://www.w3.org/2000/svg">
  <defs>
    <clipPath id="69a77de773">
      <path d="M 407 833 L 411 833 L 411 835.90625 L 407 835.90625 Z M 407 833 " clip-rule="nonzero"/>
    </clipPath>
    <clipPath id="161a33c0d8">
      <path d="M 410 835 L 412 835 L 412 835.90625 L 410 835.90625 Z M 410 835 " clip-rule="nonzero"/>
    </clipPath>
    <clipPath id="3fd3788ee6">
      <path d="M 405 826 L 412 826 L 412 835.90625 L 405 835.90625 Z M 405 826 " clip-rule="nonzero"/>
    </clipPath>
    <clipPath id="65289dba54">
      <path d="M 405 834 L 412 834 L 412 835.90625 L 405 835.90625 Z M 405 834 " clip-rule="nonzero"/>
    </clipPath>
    <clipPath id="e07e3238c5">
      <path d="M 411 835 L 412 835 L 412 835.90625 L 411 835.90625 Z M 411 835 " clip-rule="nonzero"/>
    </clipPath>
    <clipPath id="d38dde5722">
      <path d="M 405 834 L 412 834 L 412 835.90625 L 405 835.90625 Z M 405 834 " clip-rule="nonzero"/>
    </clipPath>
    <clipPath id="649856b1ff">
      <path d="M 405 834 L 407 834 L 407 835.90625 L 405 835.90625 Z M 405 834 " clip-rule="nonzero"/>
    </clipPath>
    <clipPath id="93145dcefe">
      <path d="M 411 802.90625 L 416 802.90625 L 416 806 L 411 806 Z M 411 802.90625 " clip-rule="nonzero"/>
    </clipPath>
    <clipPath id="d8f75ce33a">
      <path d="M 398 804 L 418.949219 804 L 418.949219 828 L 398 828 Z M 398 804 " clip-rule="nonzero"/>
    </clipPath>
    <clipPath id="33c31f2a1a">
      <path d="M 412 815 L 418.949219 815 L 418.949219 826 L 412 826 Z M 412 815 " clip-rule="nonzero"/>
    </clipPath>
    <clipPath id="04d5db2458">
      <path d="M 408 804 L 418.949219 804 L 418.949219 819 L 408 819 Z M 408 804 " clip-rule="nonzero"/>
    </clipPath>
    <clipPath id="77eeea42e0">
      <path d="M 415 816 L 418.949219 816 L 418.949219 819 L 415 819 Z M 415 816 " clip-rule="nonzero"/>
    </clipPath>
    <clipPath id="c56c94410d">
      <path d="M 415 815 L 418.949219 815 L 418.949219 819 L 415 819 Z M 415 815 " clip-rule="nonzero"/>
    </clipPath>
    <clipPath id="306b8c732a">
      <path d="M 415 807 L 418.949219 807 L 418.949219 818 L 415 818 Z M 415 807 " clip-rule="nonzero"/>
    </clipPath>
  </defs>
  <g>
    <g>
      <path fill="#a46322" d="M 412.461 831.961 C 412.461 831.961 413.656 832.66 413.852 832.734 C 414.043 832.812 415.016 833.059 415.078 833.141 C 415.145 833.223 415.355 833.504 415.066 833.648 C 414.922 833.719 412.223 833.066 412.223 833.066 L 412.461 831.961" fill-opacity="1" fill-rule="nonzero"/>
      <path fill="#5b382e" d="M 415.391 833.633 C 415.391 833.633 416.082 833.898 416.293 834.32 L 415.188 834.059 L 415.391 833.633" fill-opacity="1" fill-rule="nonzero"/>
      <path fill="#dd9743" d="M 411.445 825.648 C 411.445 825.648 411.578 830.641 412.398 831.918 L 413.672 832.801 C 413.672 832.801 414.191 833.055 415.125 833.387 C 415.125 833.387 415.402 833.441 415.512 833.719 C 415.621 833.996 415.508 834.184 415.301 834.168 C 415.09 834.156 412.57 833.309 412.219 833.297 C 412.219 833.297 411.57 833.531 411.148 834.043 C 410.824 834.434 410.5 834.133 410.348 833.918 C 410.191 833.703 410.902 833.375 411.398 832.191 C 411.398 832.191 410.219 825.531 409.988 825.371 L 411.445 825.648" fill-opacity="1" fill-rule="nonzero"/>
      <path fill="#d7ae8f" d="M 410.816 834.234 C 410.922 834.234 411.031 834.184 411.145 834.051 C 411.031 834.184 410.922 834.234 410.816 834.234 M 415.301 834.168 C 415.09 834.156 412.57 833.309 412.219 833.297 C 412.219 833.297 411.57 833.531 411.148 834.043 C 411.148 834.047 411.145 834.047 411.145 834.047 C 411.145 834.047 411.148 834.047 411.148 834.043 C 411.57 833.531 412.219 833.297 412.219 833.297 C 412.57 833.309 415.09 834.156 415.301 834.168 M 410.352 833.926 C 410.352 833.922 410.352 833.922 410.352 833.922 C 410.352 833.922 410.352 833.922 410.352 833.926 M 410.352 833.922 C 410.352 833.922 410.348 833.918 410.348 833.918 C 410.348 833.918 410.352 833.922 410.352 833.922 M 410.359 833.754 L 410.359 833.75 C 410.363 833.742 410.371 833.734 410.375 833.727 L 410.375 833.723 C 410.371 833.734 410.363 833.742 410.359 833.754 M 410.473 833.602 L 410.473 833.598 L 410.488 833.582 L 410.535 833.523 L 410.555 833.504 C 410.523 833.539 410.496 833.57 410.473 833.602" fill-opacity="1" fill-rule="nonzero"/>
      <path fill="#c67b39" d="M 410.816 834.234 C 410.625 834.234 410.457 834.062 410.355 833.926 C 410.352 833.926 410.352 833.926 410.352 833.926 C 410.352 833.922 410.352 833.922 410.352 833.922 C 410.352 833.922 410.348 833.918 410.348 833.918 L 410.336 833.898 L 410.332 833.891 L 410.328 833.879 L 410.328 833.871 L 410.324 833.855 L 410.328 833.848 L 410.328 833.824 L 410.336 833.801 L 410.34 833.785 L 410.348 833.777 L 410.359 833.754 C 410.363 833.742 410.371 833.734 410.375 833.723 L 410.383 833.715 L 410.395 833.695 L 410.406 833.684 L 410.418 833.664 L 410.43 833.648 L 410.445 833.633 L 410.457 833.617 L 410.473 833.602 C 410.496 833.57 410.523 833.539 410.555 833.504 C 410.574 833.5 410.594 833.5 410.613 833.5 C 410.73 833.5 410.863 833.527 410.992 833.602 C 411.043 833.633 411.102 833.645 411.16 833.645 C 411.555 833.645 412.125 833.113 412.246 832.977 C 412.293 832.926 412.379 832.902 412.484 832.902 C 412.695 832.902 412.973 832.992 413.07 833.074 C 413.203 833.187 414.684 833.801 415.016 833.801 C 415.039 833.801 415.055 833.797 415.066 833.793 C 415.152 833.742 415.219 833.598 415.289 833.457 C 415.371 833.504 415.461 833.586 415.512 833.719 C 415.551 833.816 415.563 833.902 415.551 833.973 C 415.496 834.086 415.406 834.168 415.309 834.168 C 415.309 834.168 415.305 834.168 415.301 834.168 C 415.09 834.156 412.57 833.309 412.219 833.297 C 412.219 833.297 411.57 833.531 411.148 834.043 C 411.148 834.047 411.145 834.047 411.145 834.047 C 411.145 834.047 411.145 834.047 411.145 834.051 C 411.031 834.184 410.922 834.234 410.816 834.234" fill-opacity="1" fill-rule="nonzero"/>
      <path fill="#d7ae8f" d="M 410.977 832.969 L 410.977 832.965 C 410.992 832.941 411.012 832.918 411.027 832.891 L 411.031 832.883 C 411.047 832.859 411.063 832.836 411.078 832.812 L 411.086 832.797 C 411.102 832.773 411.113 832.75 411.129 832.727 L 411.141 832.707 C 411.152 832.684 411.168 832.66 411.18 832.641 C 411.184 832.629 411.188 832.621 411.195 832.613 C 411.207 832.59 411.219 832.566 411.23 832.547 C 411.234 832.535 411.242 832.523 411.246 832.512 C 411.258 832.492 411.27 832.469 411.281 832.445 C 411.281 832.445 411.281 832.441 411.285 832.437 C 411.281 832.449 411.273 832.457 411.27 832.469 C 411.176 832.66 411.074 832.824 410.977 832.969" fill-opacity="1" fill-rule="nonzero"/>
      <path fill="#c67b39" d="M 410.977 832.969 C 411.074 832.824 411.176 832.66 411.27 832.469 C 411.484 832.426 411.77 832.359 411.816 832.312 C 411.867 832.262 411.352 830.16 410.965 828.559 C 411.027 828.574 411.102 828.586 411.18 828.586 C 411.523 830.086 412.063 832.254 412.176 832.371 C 412.305 832.504 411.512 832.859 410.977 832.969" fill-opacity="1" fill-rule="nonzero"/>
      <path fill="#d7ae8f" d="M 411.383 832.219 C 411.387 832.211 411.391 832.199 411.398 832.191 C 411.395 832.195 411.395 832.199 411.391 832.199 C 411.391 832.207 411.387 832.215 411.383 832.219" fill-opacity="1" fill-rule="nonzero"/>
      <path fill="#c67b39" d="M 411.391 832.199 C 411.395 832.199 411.395 832.195 411.398 832.191 C 411.395 832.195 411.395 832.199 411.391 832.199" fill-opacity="1" fill-rule="nonzero"/>
      <path fill="#a6562c" d="M 411.336 832.324 L 411.328 832.348 C 411.309 832.387 411.289 832.43 411.27 832.469 C 411.484 832.426 411.77 832.359 411.816 832.312 C 411.895 832.234 410.539 826.934 410.559 826.762 C 410.57 826.648 411.125 826.559 411.484 826.531 C 411.453 825.996 411.445 825.648 411.445 825.648 L 409.988 825.371 C 410.219 825.531 411.398 832.191 411.398 832.191 C 411.379 832.238 411.355 832.281 411.336 832.324" fill-opacity="1" fill-rule="nonzero"/>
      <path fill="#5b382e" d="M 410.801 833.777 L 410.473 833.848 C 410.473 833.848 410.301 834.687 410.641 834.887 L 410.938 834.086 L 410.801 833.777" fill-opacity="1" fill-rule="nonzero"/>
      <g clip-path="url(#69a77de773)">
        <path fill="#a46322" d="M 408.230469 833.097656 C 408.230469 833.097656 409.335938 833.929688 409.519531 834.03125 C 409.703125 834.128906 410.636719 834.492188 410.691406 834.582031 C 410.746094 834.671875 410.921875 834.976562 410.617188 835.082031 C 410.464844 835.136719 407.863281 834.164062 407.863281 834.164062 L 408.230469 833.097656 " fill-opacity="1" fill-rule="nonzero"/>
      </g>
      <g clip-path="url(#161a33c0d8)">
        <path fill="#5b382e" d="M 410.941406 835.105469 C 410.941406 835.105469 411.59375 835.457031 411.757812 835.898438 L 410.6875 835.503906 L 410.941406 835.105469 " fill-opacity="1" fill-rule="nonzero"/>
      </g>
    </g>
    <g clip-path="url(#3fd3788ee6)">
      <path fill="#dd9743" d="M 407.96875 826.703125 C 407.96875 826.703125 407.511719 831.675781 408.171875 833.046875 L 409.335938 834.078125 C 409.335938 834.078125 409.816406 834.390625 410.707031 834.832031 C 410.707031 834.832031 410.976562 834.917969 411.050781 835.207031 C 411.128906 835.492188 410.996094 835.667969 410.789062 835.628906 C 410.582031 835.589844 408.179688 834.445312 407.832031 834.394531 C 407.832031 834.394531 407.160156 834.546875 406.679688 835.003906 C 406.316406 835.355469 406.027344 835.015625 405.898438 834.78125 C 405.773438 834.550781 406.515625 834.3125 407.144531 833.195312 C 407.144531 833.195312 406.761719 826.441406 406.554688 826.253906 L 407.96875 826.703125 " fill-opacity="1" fill-rule="nonzero"/>
    </g>
    <g clip-path="url(#65289dba54)">
      <path fill="#d7ae8f" d="M 410.789062 835.628906 C 410.582031 835.589844 408.179688 834.445312 407.832031 834.394531 C 407.832031 834.394531 407.160156 834.546875 406.679688 835.003906 C 406.566406 835.113281 406.460938 835.15625 406.367188 835.15625 C 406.460938 835.15625 406.566406 835.113281 406.679688 835.003906 C 407.160156 834.546875 407.832031 834.394531 407.832031 834.394531 C 408.179688 834.445312 410.582031 835.589844 410.789062 835.628906 M 411.039062 835.164062 C 411.023438 835.125 411.007812 835.089844 410.988281 835.058594 C 411.007812 835.089844 411.023438 835.125 411.039062 835.164062 M 405.902344 834.785156 L 405.902344 834.785156 M 406.132812 834.417969 L 406.136719 834.414062 C 406.136719 834.414062 406.132812 834.414062 406.132812 834.417969 " fill-opacity="1" fill-rule="nonzero"/>
    </g>
    <g>
      <g clip-path="url(#e07e3238c5)">
        <path fill="#774430" d="M 411.050781 835.207031 C 411.046875 835.191406 411.042969 835.175781 411.039062 835.164062 C 411.042969 835.175781 411.046875 835.191406 411.050781 835.207031 " fill-opacity="1" fill-rule="nonzero"/>
      </g>
      <g>
        <g clip-path="url(#d38dde5722)">
          <path fill="#c67b39" d="M 410.820312 835.632812 C 410.808594 835.632812 410.796875 835.632812 410.789062 835.628906 C 410.582031 835.589844 408.179688 834.445312 407.832031 834.394531 C 407.832031 834.394531 407.160156 834.546875 406.679688 835.003906 C 406.566406 835.113281 406.460938 835.15625 406.367188 835.15625 C 406.152344 835.15625 405.992188 834.945312 405.902344 834.785156 C 405.902344 834.785156 405.902344 834.785156 405.898438 834.78125 L 405.890625 834.761719 L 405.890625 834.753906 L 405.886719 834.742188 L 405.886719 834.710938 L 405.898438 834.675781 L 405.914062 834.644531 L 405.925781 834.628906 L 405.933594 834.621094 C 405.9375 834.613281 405.945312 834.605469 405.953125 834.59375 L 405.976562 834.570312 L 405.988281 834.554688 L 406.0625 834.480469 L 406.082031 834.464844 L 406.097656 834.449219 L 406.117188 834.433594 L 406.132812 834.417969 C 406.132812 834.414062 406.136719 834.414062 406.136719 834.414062 L 406.15625 834.398438 C 406.285156 834.402344 406.4375 834.441406 406.578125 834.546875 C 406.640625 834.59375 406.714844 834.613281 406.800781 834.613281 C 407.191406 834.613281 407.765625 834.195312 407.894531 834.078125 C 407.933594 834.042969 407.992188 834.03125 408.0625 834.03125 C 408.285156 834.03125 408.605469 834.167969 408.703125 834.273438 C 408.824219 834.40625 410.292969 835.230469 410.570312 835.230469 C 410.585938 835.230469 410.59375 835.230469 410.601562 835.226562 C 410.691406 835.1875 410.777344 835.050781 410.859375 834.921875 C 410.902344 834.953125 410.949219 835 410.988281 835.058594 C 411.007812 835.089844 411.023438 835.125 411.039062 835.164062 C 411.042969 835.175781 411.046875 835.191406 411.050781 835.207031 C 411.078125 835.308594 411.078125 835.394531 411.058594 835.464844 C 410.996094 835.5625 410.910156 835.632812 410.820312 835.632812 " fill-opacity="1" fill-rule="nonzero"/>
        </g>
        <path fill="#d7ae8f" d="M 406.637 833.914 C 406.656 833.895 406.676 833.871 406.695 833.848 L 406.703 833.84 C 406.719 833.816 406.738 833.797 406.758 833.773 L 406.766 833.762 C 406.785 833.738 406.801 833.719 406.816 833.695 L 406.832 833.676 C 406.848 833.656 406.863 833.637 406.879 833.613 C 406.883 833.605 406.891 833.598 406.895 833.59 C 406.91 833.57 406.926 833.547 406.938 833.527 C 406.945 833.52 406.953 833.508 406.961 833.496 C 406.969 833.484 406.977 833.469 406.988 833.457 C 406.871 833.633 406.75 833.785 406.637 833.914" fill-opacity="1" fill-rule="nonzero"/>
        <path fill="#c67b39" d="M 406.637 833.914 C 406.75 833.785 406.871 833.633 406.988 833.457 C 407.207 833.437 407.496 833.406 407.551 833.367 C 407.613 833.316 407.258 830.52 407.07 828.871 C 407.133 828.891 407.203 828.906 407.285 828.91 C 407.426 830.34 407.785 833.316 407.898 833.469 C 408.008 833.617 407.18 833.871 406.637 833.914" fill-opacity="1" fill-rule="nonzero"/>
        <path fill="#d7ae8f" d="M 406.988 833.453 C 406.988 833.449 406.992 833.445 406.996 833.441 C 406.992 833.445 406.988 833.449 406.988 833.453 M 407.066 833.332 C 407.07 833.328 407.07 833.324 407.074 833.316 C 407.074 833.32 407.07 833.32 407.07 833.324 L 407.066 833.332 M 407.141 833.203 C 407.145 833.199 407.145 833.199 407.145 833.195 C 407.145 833.199 407.145 833.199 407.141 833.203" fill-opacity="1" fill-rule="nonzero"/>
        <path fill="#a6562c" d="M 407.07 833.324 L 407.059 833.34 C 407.035 833.383 407.012 833.418 406.988 833.457 C 407.207 833.437 407.496 833.406 407.551 833.367 C 407.637 833.297 406.914 827.871 406.957 827.703 C 406.98 827.594 407.539 827.57 407.902 827.586 C 407.934 827.051 407.969 826.703 407.969 826.703 L 406.555 826.254 C 406.762 826.441 407.145 833.195 407.145 833.195 C 407.121 833.238 407.098 833.281 407.07 833.324" fill-opacity="1" fill-rule="nonzero"/>
        <path fill="#bb7a54" d="M 404.848 826.254 C 404.848 826.254 406.59 828.293 406.852 828.77 C 406.852 828.77 407.273 829.094 407.863 828.77 C 408.453 828.445 409.887 826.785 410.324 826.598 C 410.766 826.414 408.977 825.984 408.977 825.984 L 404.848 826.254" fill-opacity="1" fill-rule="nonzero"/>
        <path fill="#9e603d" d="M 408.547 825.641 C 408.547 825.641 410.453 827.969 410.715 828.445 C 410.715 828.445 411.141 828.77 411.73 828.445 C 412.316 828.121 413.656 825.66 414.094 825.477 C 414.535 825.289 412.676 825.371 412.676 825.371 L 408.547 825.641" fill-opacity="1" fill-rule="nonzero"/>
        <g clip-path="url(#649856b1ff)">
          <path fill="#5b382e" d="M 406.367188 834.699219 L 406.035156 834.726562 C 406.035156 834.726562 405.761719 835.539062 406.078125 835.777344 L 406.46875 835.019531 L 406.367188 834.699219 " fill-opacity="1" fill-rule="nonzero"/>
        </g>
        <path fill="#e8c16c" d="M 412.324 805.777 C 412.324 805.777 412.285 805.402 412.109 805.453 C 412.109 805.453 410 805.996 409.879 807.148 C 409.879 807.148 410.383 806.961 411.527 807.109 C 412.398 807.219 412.371 806.902 412.371 806.902 L 412.324 805.777" fill-opacity="1" fill-rule="nonzero"/>
        <path fill="#fdebc2" d="M 411.934 805.586 C 411.934 805.586 411.285 805.77 411.164 805.922 C 411.043 806.078 410.395 806.547 410.457 806.59 C 410.523 806.629 411.273 806.641 411.418 806.605 C 411.563 806.566 412.145 806.539 412.145 806.539 L 411.711 806.395 C 411.711 806.395 410.82 806.555 410.816 806.477 C 410.816 806.398 411.414 806.059 411.414 806.059 L 411.934 805.586" fill-opacity="1" fill-rule="nonzero"/>
        <path fill="#d5a782" d="M 410.266 806.41 C 410.27 806.406 410.273 806.402 410.277 806.398 L 410.281 806.395 C 410.273 806.402 410.27 806.406 410.266 806.41" fill-opacity="1" fill-rule="nonzero"/>
        <path fill="#ce9355" d="M 409.879 807.148 C 409.883 807.113 409.891 807.082 409.895 807.051 L 409.898 807.031 C 409.906 807.004 409.914 806.973 409.922 806.945 L 409.93 806.926 C 409.938 806.898 409.949 806.871 409.961 806.844 L 409.965 806.836 C 409.977 806.809 409.992 806.781 410.008 806.754 L 410.016 806.734 C 410.031 806.707 410.047 806.68 410.066 806.652 L 410.07 806.645 C 410.09 806.621 410.105 806.594 410.125 806.57 L 410.133 806.559 C 410.152 806.535 410.176 806.508 410.195 806.484 L 410.211 806.469 C 410.227 806.449 410.246 806.43 410.266 806.41 C 410.27 806.406 410.273 806.402 410.281 806.395 C 410.305 806.371 410.328 806.348 410.355 806.324 L 410.367 806.312 C 410.395 806.289 410.418 806.27 410.445 806.25 L 410.461 806.234 C 410.484 806.215 410.512 806.195 410.539 806.176 L 410.543 806.172 C 410.574 806.152 410.602 806.133 410.629 806.113 L 410.648 806.098 C 410.676 806.078 410.703 806.062 410.734 806.043 L 410.746 806.035 C 410.773 806.02 410.801 806 410.828 805.984 L 410.844 805.977 C 410.871 805.961 410.898 805.945 410.93 805.926 L 410.949 805.918 C 410.98 805.902 411.008 805.883 411.039 805.871 L 411.047 805.863 C 411.074 805.852 411.102 805.836 411.129 805.824 L 411.148 805.812 C 411.18 805.801 411.207 805.785 411.234 805.773 L 411.258 805.766 C 411.281 805.754 411.305 805.742 411.328 805.73 L 411.344 805.723 C 411.363 805.715 411.383 805.707 411.402 805.699 C 411.008 805.984 410.258 806.551 410.309 806.703 C 410.309 806.703 410.609 806.652 410.859 806.652 C 410.941 806.652 411.02 806.656 411.074 806.672 C 411.195 806.707 411.301 806.723 411.387 806.723 C 411.461 806.723 411.52 806.711 411.57 806.687 C 411.648 806.652 411.957 806.617 412.145 806.602 C 412.203 806.629 412.234 806.641 412.234 806.641 C 412.234 806.641 411.992 806.727 411.766 806.812 C 411.52 806.871 411.289 806.934 411.254 806.973 C 411.238 806.988 411.238 807.004 411.246 807.012 C 411.242 807.012 411.242 807.012 411.238 807.012 C 411.113 807.012 410.977 807.02 410.832 807.027 C 410.832 807.027 410.832 807.031 410.836 807.031 C 410.758 807.035 410.691 807.039 410.641 807.051 C 410.121 807.059 409.883 807.145 409.879 807.148" fill-opacity="1" fill-rule="nonzero"/>
        <path fill="#7f5621" d="M 409.887 807.094 C 409.887 807.094 410.188 806.781 410.465 806.73 C 410.742 806.68 411.32 806.812 411.508 806.738 C 411.695 806.668 412.168 806.578 412.27 806.574 C 412.371 806.57 412.07 806.738 412.07 806.738 C 412.07 806.738 411.484 806.883 411.344 806.906 C 411.199 806.93 410.609 806.809 410.523 806.812 C 410.434 806.816 409.973 807.008 409.887 807.094" fill-opacity="1" fill-rule="nonzero"/>
        <g clip-path="url(#93145dcefe)">
          <path fill="#ef3048" d="M 411.496094 805.632812 C 411.496094 805.632812 411.414062 805.164062 411.609375 805 C 411.800781 804.835938 411.792969 804.824219 411.789062 804.164062 C 411.789062 804.164062 412.007812 803.710938 412.429688 803.84375 C 412.675781 803.917969 412.625 803.9375 412.851562 803.972656 C 413.078125 804.011719 412.941406 803.132812 413.597656 803.101562 L 413.585938 803.386719 C 413.585938 803.386719 413.773438 802.90625 414.199219 802.921875 C 414.628906 802.9375 414.011719 803.375 414.011719 803.375 C 414.011719 803.375 414.484375 802.992188 414.820312 803.148438 C 415.15625 803.304688 414.808594 803.40625 414.808594 803.40625 C 414.808594 803.40625 415.472656 803.796875 415.371094 804.101562 C 415.15625 804.742188 412.957031 804.972656 412.6875 805.367188 C 412.492188 805.644531 412.03125 805.636719 411.738281 805.625 C 411.621094 805.621094 411.53125 805.617188 411.496094 805.632812 " fill-opacity="1" fill-rule="nonzero"/>
        </g>
        <path fill="#cc7a84" d="M 411.789 804.164 C 411.789 804.164 411.957 803.82 412.277 803.82 C 411.957 803.82 411.789 804.164 411.789 804.164 M 412.867 803.973 C 412.984 803.973 412.996 803.695 413.109 803.449 C 412.996 803.695 412.984 803.973 412.867 803.973 M 412.43 803.84 C 412.426 803.84 412.426 803.84 412.426 803.84 C 412.426 803.84 412.426 803.84 412.43 803.84" fill-opacity="1" fill-rule="nonzero"/>
        <path fill="#c82546" d="M 411.496 805.633 C 411.496 805.633 411.48 805.535 411.48 805.41 C 411.48 805.266 411.504 805.09 411.609 805 C 411.773 804.859 411.793 804.832 411.793 804.422 C 411.793 804.348 411.793 804.262 411.789 804.164 C 411.789 804.164 411.957 803.82 412.277 803.82 C 412.324 803.82 412.375 803.824 412.426 803.84 C 412.426 803.84 412.426 803.84 412.43 803.84 C 412.43 803.844 412.43 803.844 412.43 803.844 C 412.676 803.918 412.625 803.937 412.852 803.973 C 412.855 803.973 412.859 803.973 412.867 803.973 C 412.984 803.973 412.996 803.695 413.109 803.449 C 413.188 803.273 413.324 803.113 413.598 803.102 C 413.598 803.102 413.32 803.594 413.316 803.902 C 413.313 804.211 413.199 804.371 413.199 804.371 C 413.199 804.371 413.219 804.375 413.254 804.375 C 413.344 804.375 413.531 804.359 413.73 804.242 C 413.949 804.113 414.352 803.973 414.563 803.973 C 414.617 803.973 414.656 803.984 414.68 804.004 C 414.762 804.082 414.598 804.473 414.449 804.672 C 414.242 804.582 414.043 804.488 413.773 804.488 C 413.551 804.488 413.277 804.551 412.914 804.734 C 412.914 804.734 412.852 804.891 412.727 805.074 C 412.723 805.078 412.719 805.078 412.715 805.078 C 412.676 805.137 412.633 805.199 412.586 805.254 C 412.512 805.32 412.5 805.371 412.418 805.398 C 412.352 805.422 412.289 805.441 412.23 805.453 C 412.117 805.48 412.023 805.496 411.934 805.512 C 411.773 805.535 411.637 805.555 411.5 805.633 C 411.5 805.633 411.5 805.633 411.496 805.633" fill-opacity="1" fill-rule="nonzero"/>
        <g clip-path="url(#d8f75ce33a)">
          <path fill="#df9960" d="M 418.753906 818.25 C 418.753906 818.566406 418.496094 818.507812 418.496094 818.507812 C 418.554688 820.488281 417.8125 822.816406 417.558594 823.105469 C 417.300781 823.390625 417.019531 823.277344 417.019531 823.277344 C 416.761719 823.9375 415.964844 824.339844 415.964844 824.339844 C 415.480469 825.546875 413.714844 825.632812 413.433594 825.71875 C 413.148438 825.804688 412.976562 826.492188 412.976562 826.492188 C 412.492188 827.441406 411.125 827.382812 410.699219 827.328125 C 410.273438 827.269531 409.875 826.667969 409.875 826.667969 C 408.992188 827.328125 407.710938 826.894531 407.710938 826.894531 C 407.058594 826.894531 406.03125 826.695312 406.03125 826.695312 L 406.289062 826.894531 C 405.703125 826.894531 404.355469 826.292969 404.355469 826.292969 L 404.523438 826.609375 C 403.898438 826.4375 403.328125 826.121094 403.328125 826.121094 L 403.585938 826.464844 C 402.816406 826.175781 402.363281 825.574219 402.363281 825.574219 L 402.449219 825.890625 C 402.390625 825.875 402.335938 825.851562 402.285156 825.816406 C 401.917969 825.582031 401.679688 824.941406 401.679688 824.941406 C 401.679688 824.941406 401.480469 824.425781 401.253906 824.339844 C 401.023438 824.253906 400.769531 823.390625 400.769531 823.390625 C 400.484375 823.191406 399.601562 822.816406 399.542969 822.617188 C 399.488281 822.414062 399.859375 822.128906 399.859375 822.128906 C 399.859375 822.128906 398.945312 821.78125 398.917969 821.4375 C 398.890625 821.09375 399.0625 820.71875 399.0625 820.71875 C 399.0625 820.71875 398.75 820.488281 398.691406 820.144531 C 398.632812 819.800781 398.890625 819.425781 398.890625 819.425781 C 398.578125 819.109375 398.71875 818.738281 398.71875 818.738281 C 397.949219 817.359375 398.292969 816.871094 398.292969 816.871094 C 398.320312 816.726562 398.492188 816.441406 398.492188 816.441406 C 398.492188 816.441406 398.292969 816.4375 398.292969 816.207031 C 398.292969 815.980469 398.75 815.691406 398.75 815.691406 C 398.75 815.691406 398.578125 815.289062 398.519531 814.972656 C 398.464844 814.65625 398.777344 814.371094 398.832031 814.082031 C 398.890625 813.796875 398.804688 813.710938 398.804688 813.710938 C 398.605469 813.335938 398.433594 812.789062 399.003906 812.53125 C 399.34375 812.378906 399.640625 812.457031 399.828125 812.546875 L 399.574219 812.386719 C 400.667969 812.5 401.8125 813.503906 401.847656 813.535156 L 401.195312 812.820312 C 401.878906 813.191406 403.3125 814.246094 403.3125 814.246094 C 405.585938 814.09375 408.089844 814.359375 408.089844 814.359375 C 409.003906 814.042969 410.945312 813.9375 410.945312 813.9375 C 411.074219 813.335938 412.320312 810.722656 412.492188 809.917969 C 412.664062 809.113281 412.464844 808.164062 412.464844 808.164062 C 412.375 808.125 412.257812 808.082031 412.128906 808.035156 C 411.695312 807.875 411.683594 807.125 411.617188 807.101562 C 411.53125 807.074219 411.167969 807.058594 411.253906 806.972656 C 411.339844 806.886719 412.410156 806.671875 412.410156 806.671875 C 412.410156 806.671875 412.011719 806.378906 411.640625 806.121094 C 411.273438 805.859375 411.496094 805.632812 411.496094 805.632812 C 411.625 805.5625 411.695312 805.578125 411.789062 805.59375 C 411.882812 805.605469 411.996094 805.621094 412.207031 805.550781 C 412.289062 805.523438 412.367188 805.472656 412.441406 805.40625 C 412.753906 805.128906 412.914062 804.734375 412.914062 804.734375 C 413.882812 804.246094 414.210938 804.601562 414.691406 804.773438 C 415.175781 804.949219 416.039062 805.785156 416.457031 806.589844 C 416.714844 807.082031 416.789062 808.25 416.789062 808.25 C 416.875 808.882812 417.898438 812.960938 417.898438 812.960938 C 418.953125 814.828125 418.753906 817.933594 418.753906 818.25 " fill-opacity="1" fill-rule="nonzero"/>
        </g>
        <path fill="#d0834f" d="M 415.047 818.598 C 415.141 818.891 414.574 819.758 414.199 820.102 C 413.824 820.445 413.094 820.793 412.535 820.836 C 412.254 820.859 412.156 820.715 412.07 820.566 C 411.98 820.422 411.902 820.277 411.66 820.297 C 411.172 820.336 411.199 819.988 411.406 819.719 C 411.613 819.453 411.73 818.609 411.406 818.598 C 411.082 818.586 409.816 818.133 409.355 818.301 C 408.895 818.469 408.047 819.105 407.781 819.258 C 407.516 819.414 407.781 818.609 407.48 818.605 C 407.176 818.602 406.684 819.297 406.34 819.297 C 406 819.297 407.102 818.109 406.684 818.148 C 406.266 818.187 405.012 819.375 405.012 819.375 C 405.242 818.914 406.453 817.727 406.453 817.367 C 406.453 817.008 405.391 816.656 405.09 816.77 C 404.785 816.883 404.559 816.387 403.949 816.387 C 403.344 816.387 401.75 817.191 401.75 817.191 L 402.207 815.879 L 403.949 814.703 C 403.949 814.703 403.004 814.703 402.637 814.559 C 402.273 814.414 401.75 814.664 401.371 814.777 C 400.992 814.895 400.914 815.16 400.648 815.43 C 400.383 815.699 400.309 814.816 399.891 814.738 C 399.473 814.664 399.238 814.246 399.008 814.547 C 398.777 814.848 398.828 816.695 399.305 817.176 C 399.781 817.656 400.184 818.523 400.086 819.105 C 399.988 819.687 400.043 820.332 399.574 820.293 C 399.102 820.254 399.32 819.91 399.133 819.527 C 399.066 819.395 398.895 819.238 398.703 819.094 C 398.727 819.199 398.781 819.316 398.891 819.426 C 398.891 819.426 398.633 819.801 398.691 820.145 C 398.75 820.488 399.063 820.719 399.063 820.719 C 399.063 820.719 398.891 821.094 398.918 821.437 C 398.945 821.781 399.859 822.129 399.859 822.129 C 399.859 822.129 399.488 822.414 399.543 822.617 C 399.602 822.816 400.484 823.191 400.77 823.391 C 400.77 823.391 400.777 823.426 400.797 823.484 C 401.309 823.387 401.949 823.254 402.348 823.137 C 402.711 823.027 402.945 823.187 403.164 823.348 C 403.398 823.52 403.609 823.691 403.938 823.543 C 404.574 823.25 405.355 821.598 405.961 821.711 C 406.258 821.766 406.898 821.516 407.516 821.266 C 408.176 821 408.809 820.734 408.977 820.836 C 409.293 821.035 406.605 822.094 406.871 822.285 C 407.137 822.477 406.949 822.977 407.367 823.137 C 407.781 823.293 407.328 823.742 407.555 824.164 C 407.781 824.582 408.047 824.277 408.492 824.852 C 408.938 825.426 407.781 826.449 407.781 826.449 L 409.723 826.348 C 409.723 826.348 410.211 826.574 411.027 826.348 C 411.844 826.117 414.082 822.555 414.199 822.516 C 414.32 822.477 415.676 821.52 415.863 821.25 C 416.055 820.984 416.395 819.184 416.395 819.031 C 416.395 818.875 414.953 818.301 415.047 818.598" fill-opacity="1" fill-rule="nonzero"/>
        <path fill="#c16d42" d="M 412.48 820.84 C 412.242 820.84 412.152 820.703 412.07 820.566 C 411.988 820.43 411.91 820.293 411.703 820.293 C 411.688 820.293 411.672 820.293 411.66 820.297 C 411.633 820.297 411.609 820.297 411.586 820.297 C 411.172 820.297 411.207 819.973 411.406 819.719 C 411.461 819.648 411.512 819.531 411.547 819.402 C 411.617 819.395 411.66 819.391 411.66 819.391 C 411.66 819.391 412.422 820.352 412.801 820.52 C 412.938 820.578 412.816 820.727 412.492 820.84 C 412.488 820.84 412.484 820.84 412.48 820.84 M 405.012 819.375 C 405.039 819.32 405.082 819.254 405.133 819.184 C 405.168 819.164 405.23 819.141 405.305 819.109 C 405.129 819.266 405.012 819.375 405.012 819.375" fill-opacity="1" fill-rule="nonzero"/>
        <path fill="#bc663d" d="M 402.004 821.445 C 401.664 821.445 402.008 820.469 402.016 820.445 C 402.012 820.449 402.012 820.449 402.008 820.453 C 402.008 820.457 402.004 820.461 402.004 820.465 C 402 820.469 401.996 820.473 401.996 820.477 C 401.996 820.477 401.996 820.477 401.992 820.477 C 401.992 820.477 401.992 820.477 401.992 820.48 C 401.988 820.484 401.988 820.488 401.984 820.488 C 401.555 821.121 401.156 821.215 401.008 821.219 C 401.004 821.219 401.004 821.219 401 821.219 C 400.98 821.219 400.965 821.215 400.953 821.215 C 400.883 821.195 401.145 820.957 401.008 820.957 C 401 820.957 400.992 820.957 400.984 820.957 C 401.047 820.84 401.141 820.695 401.27 820.52 C 401.797 819.809 402.492 818.937 402.879 818.461 C 403.008 818.363 403.105 818.234 403.172 818.102 C 403.168 818.121 403.004 818.57 402.895 818.75 C 402.781 818.93 402.496 819.418 402.738 819.449 C 402.891 819.465 403.047 819.52 403.246 819.52 C 403.359 819.52 403.488 819.5 403.633 819.449 C 403.855 819.367 404.023 819.352 404.164 819.352 C 404.277 819.352 404.371 819.363 404.457 819.363 C 404.656 819.363 404.938 819.277 405.133 819.184 C 405.082 819.254 405.039 819.32 405.012 819.375 C 405.012 819.375 405.129 819.266 405.305 819.109 C 405.629 818.98 406.227 818.762 406.227 818.762 C 406.164 818.789 406.078 818.875 405.969 818.996 C 405.961 819 405.219 819.414 405.031 819.527 C 404.844 819.645 404.16 819.758 403.949 819.855 C 403.742 819.949 403.684 820.543 403.477 820.582 C 403.469 820.582 403.461 820.582 403.453 820.582 C 403.391 820.582 403.387 820.523 403.391 820.465 C 403.391 820.461 403.391 820.461 403.391 820.457 C 403.395 820.395 403.402 820.332 403.348 820.332 C 403.32 820.332 403.281 820.348 403.219 820.383 C 403.219 820.387 403.219 820.387 403.219 820.387 C 403.215 820.387 403.215 820.387 403.215 820.387 C 403.215 820.387 403.215 820.387 403.211 820.387 C 403.211 820.391 403.211 820.391 403.211 820.391 C 402.867 820.602 402.375 821.426 402.016 821.441 C 402.012 821.445 402.008 821.445 402.004 821.445 M 404.172 821.379 C 404.328 821.199 404.496 820.98 404.672 820.742 C 404.496 820.98 404.328 821.199 404.172 821.379 M 405.629 821.215 C 405.613 821.066 405.605 820.836 405.645 820.652 C 405.672 820.527 405.859 820.113 406.035 819.703 C 406.023 819.852 406.043 819.957 406.109 819.965 C 406.117 819.965 406.129 819.969 406.141 819.969 C 406.254 819.969 406.438 819.902 406.613 819.84 C 406.793 819.777 406.965 819.715 407.066 819.715 C 407.082 819.715 407.094 819.715 407.105 819.719 C 407.25 819.758 407.199 820.145 407.41 820.145 C 407.445 820.145 407.488 820.133 407.539 820.109 C 407.902 819.937 408.273 819.621 408.641 819.535 C 408.688 819.523 408.734 819.52 408.781 819.52 C 408.906 819.52 409.039 819.555 409.164 819.59 C 409.293 819.625 409.418 819.66 409.539 819.66 C 409.605 819.66 409.672 819.648 409.734 819.621 C 410.066 819.477 410.531 819.477 410.641 819.477 C 410.723 819.477 411.301 819.426 411.547 819.402 C 411.512 819.531 411.461 819.648 411.406 819.719 C 411.207 819.973 411.172 820.297 411.586 820.297 C 411.609 820.297 411.633 820.297 411.66 820.297 C 411.672 820.293 411.688 820.293 411.703 820.293 C 411.91 820.293 411.988 820.43 412.07 820.566 C 412.152 820.703 412.242 820.84 412.48 820.84 C 412.484 820.84 412.488 820.84 412.492 820.84 C 412.305 820.906 412.055 820.957 411.746 820.98 C 411.809 820.887 411.91 820.836 411.91 820.836 C 411.91 820.836 411.719 820.855 411.461 820.855 C 411.094 820.855 410.602 820.82 410.344 820.641 C 409.906 820.332 408.633 820.437 408.492 820.234 C 408.492 820.234 408.578 820.359 408.781 820.52 C 408.766 820.52 406.688 820.707 406.324 820.871 C 406.152 820.918 406.016 820.996 405.91 821.078 C 405.84 821.113 405.766 821.156 405.688 821.207 C 405.668 821.211 405.648 821.215 405.629 821.215 M 404.672 820.742 C 404.676 820.742 404.676 820.742 404.676 820.742 C 404.676 820.742 404.676 820.742 404.672 820.742" fill-opacity="1" fill-rule="nonzero"/>
        <path fill="#9b6245" d="M 408.641 827.035 C 408.922 827.035 409.238 826.992 409.531 826.863 C 409.238 826.992 408.922 827.035 408.641 827.035" fill-opacity="1" fill-rule="nonzero"/>
        <path fill="#854f35" d="M 411.168 827.355 C 411.75 827.352 412.594 827.207 412.965 826.516 C 412.594 827.207 411.75 827.352 411.168 827.355 M 410.703 827.328 C 410.703 827.328 410.699 827.328 410.699 827.328 C 410.273 827.27 409.875 826.668 409.875 826.668 C 409.875 826.668 410.273 827.27 410.699 827.328 C 410.699 827.328 410.703 827.328 410.703 827.328 M 409.531 826.863 C 409.645 826.816 409.758 826.754 409.859 826.676 C 409.758 826.754 409.645 826.816 409.531 826.863 M 412.969 826.512 C 412.969 826.504 412.973 826.5 412.977 826.492 C 412.977 826.492 413.047 826.207 413.172 825.984 C 413.047 826.207 412.977 826.492 412.977 826.492 C 412.973 826.5 412.969 826.504 412.969 826.512" fill-opacity="1" fill-rule="nonzero"/>
        <path fill="#b4774d" d="M 411.141 827.355 C 410.957 827.355 410.805 827.34 410.703 827.328 C 410.703 827.328 410.699 827.328 410.699 827.328 C 410.273 827.27 409.875 826.668 409.875 826.668 C 409.871 826.668 409.867 826.672 409.859 826.676 C 409.758 826.754 409.645 826.816 409.531 826.863 C 409.238 826.992 408.922 827.035 408.641 827.035 C 408.637 827.035 408.637 827.035 408.637 827.035 C 408.125 827.035 407.719 826.898 407.711 826.895 C 407.059 826.895 406.031 826.695 406.031 826.695 L 406.289 826.895 C 405.703 826.895 404.355 826.293 404.355 826.293 L 404.523 826.609 C 403.898 826.437 403.328 826.121 403.328 826.121 L 403.586 826.465 C 402.816 826.176 402.363 825.574 402.363 825.574 L 402.449 825.891 C 402.391 825.875 402.336 825.852 402.285 825.816 C 401.918 825.582 401.68 824.941 401.68 824.941 C 401.68 824.941 401.48 824.426 401.254 824.34 C 401.023 824.254 400.77 823.395 400.77 823.391 C 400.77 823.391 400.777 823.426 400.797 823.484 C 401.309 823.387 401.949 823.254 402.348 823.137 C 402.43 823.109 402.504 823.098 402.574 823.098 C 402.816 823.098 402.996 823.223 403.164 823.348 C 403.336 823.473 403.492 823.598 403.695 823.598 C 403.77 823.598 403.852 823.582 403.938 823.543 C 403.945 823.555 403.957 823.57 403.965 823.582 C 403.941 823.66 403.93 823.738 403.922 823.816 C 403.922 823.82 403.922 823.82 403.922 823.82 C 403.922 823.824 403.922 823.824 403.922 823.824 C 403.918 823.871 403.918 823.914 403.918 823.949 C 403.918 824.031 403.926 824.094 403.938 824.137 C 403.703 823.977 403.328 823.551 403.152 823.473 C 403.145 823.469 403.137 823.469 403.129 823.469 C 402.973 823.469 404 824.789 404.254 825.121 C 404.441 825.398 404.512 825.672 404.777 825.859 C 404.867 825.949 404.961 826.012 405.055 826.012 C 405.07 826.012 405.086 826.008 405.102 826.004 C 405.27 826.055 405.492 826.07 405.719 826.07 C 406.168 826.07 406.633 826.004 406.742 825.988 C 406.75 825.988 406.758 825.988 406.766 825.988 C 406.746 826.012 406.672 826.121 406.672 826.203 C 406.672 826.242 406.688 826.27 406.738 826.277 C 406.82 826.293 407.309 826.375 407.852 826.387 C 407.809 826.426 407.781 826.449 407.781 826.449 L 409.723 826.348 C 409.723 826.348 409.941 826.449 410.328 826.449 C 410.52 826.449 410.758 826.422 411.027 826.348 C 411.844 826.117 414.082 822.555 414.199 822.516 C 414.32 822.477 415.676 821.52 415.863 821.25 C 415.961 821.113 416.098 820.582 416.207 820.074 C 416.305 820.363 416.363 820.621 416.363 820.691 C 416.363 820.805 416.145 821.496 416.352 821.496 C 416.355 821.496 416.359 821.496 416.363 821.496 C 416.59 821.465 416.762 820.633 416.363 820.059 C 416.363 820.059 417.188 820.719 417.188 821.121 C 417.188 821.523 416.961 822.156 416.789 822.328 C 416.621 822.5 416.422 823.191 416.363 823.277 C 416.305 823.363 415.848 824.398 415.48 824.684 C 415.109 824.973 413.113 825.527 413.172 825.984 C 413.047 826.207 412.977 826.492 412.977 826.492 C 412.973 826.5 412.969 826.504 412.969 826.512 C 412.965 826.516 412.965 826.516 412.965 826.516 C 412.594 827.207 411.75 827.352 411.168 827.355 C 411.16 827.355 411.152 827.355 411.141 827.355 M 413.387 825.738 C 413.402 825.73 413.418 825.723 413.43 825.719 C 413.418 825.723 413.402 825.73 413.387 825.738 M 415.965 824.34 C 415.977 824.336 416.277 824.18 416.566 823.906 C 416.684 823.797 416.797 823.672 416.887 823.527 C 416.566 824.031 415.977 824.332 415.965 824.34 M 404.094 824.195 C 404.102 824.187 404.113 824.176 404.125 824.168 C 404.117 824.18 404.105 824.191 404.094 824.195 M 416.891 823.523 C 416.891 823.523 416.891 823.523 416.895 823.52 C 416.891 823.523 416.891 823.523 416.891 823.523 M 417.004 823.309 C 417.004 823.309 417.004 823.305 417.004 823.305 C 417.004 823.305 417.004 823.309 417.004 823.309 M 417.008 823.297 C 417.012 823.297 417.012 823.297 417.012 823.293 C 417.012 823.297 417.012 823.297 417.008 823.297 M 417.012 823.289 C 417.012 823.285 417.016 823.285 417.016 823.285 C 417.016 823.285 417.012 823.285 417.012 823.289 M 417.016 823.285 C 417.016 823.285 417.016 823.281 417.016 823.281 C 417.016 823.281 417.016 823.285 417.016 823.285 M 417.016 823.277 C 417.016 823.277 417.016 823.277 417.02 823.277 C 417.016 823.277 417.016 823.277 417.016 823.277" fill-opacity="1" fill-rule="nonzero"/>
        <path fill="#aa6842" d="M 410.328 826.449 C 409.941 826.449 409.723 826.348 409.723 826.348 L 407.781 826.449 C 407.781 826.449 407.809 826.426 407.852 826.387 C 407.891 826.387 407.93 826.387 407.969 826.387 C 408.512 826.387 409.086 826.305 409.336 826.008 C 409.422 826.004 409.543 825.996 409.723 825.984 C 410.395 825.93 410.891 825.336 411.156 825.336 C 411.18 825.336 411.199 825.34 411.219 825.352 C 411.457 825.461 410.391 826.199 410.602 826.199 C 410.609 826.199 410.621 826.195 410.641 826.191 C 410.992 826.117 411.73 825.926 411.91 825.504 C 412.094 825.082 412.449 824.316 412.832 823.973 C 413.215 823.625 413.172 823.129 413.172 823.129 C 413.172 823.129 412.262 823.359 412.02 823.359 C 411.781 823.359 412.656 822.746 412.656 822.746 C 412.656 822.746 412.375 822.746 411.91 822.746 C 411.449 822.746 410.969 822.094 410.953 821.789 C 410.941 821.48 410.629 821.25 409.723 820.984 C 409.637 820.957 409.559 820.93 409.484 820.902 C 409.434 820.863 409.383 820.828 409.328 820.793 L 409.109 820.445 C 410.039 820.852 410.848 820.988 411.473 820.988 C 411.566 820.988 411.66 820.984 411.746 820.98 C 411.664 821.094 411.648 821.27 411.973 821.48 C 412.047 821.531 412.133 821.551 412.227 821.551 C 412.898 821.551 414.004 820.523 414.004 820.523 C 414.004 820.523 413.703 821.023 414.199 821.047 C 414.23 821.051 414.258 821.051 414.285 821.051 C 414.676 821.051 414.523 820.867 414.879 820.836 C 414.891 820.836 414.902 820.836 414.91 820.836 C 415.031 820.836 415.137 820.891 415.234 820.941 C 415.332 820.996 415.422 821.047 415.512 821.047 C 415.602 821.047 415.691 820.996 415.789 820.836 C 416.02 820.465 415.762 819.547 415.625 819.129 C 415.73 819.172 415.84 819.246 415.965 819.484 C 416.059 819.66 416.141 819.875 416.207 820.074 C 416.098 820.582 415.961 821.113 415.863 821.25 C 415.676 821.52 414.32 822.477 414.199 822.516 C 414.082 822.555 411.844 826.117 411.027 826.348 C 410.758 826.422 410.52 826.449 410.328 826.449 M 403.695 823.598 C 403.492 823.598 403.336 823.473 403.164 823.348 C 402.996 823.223 402.816 823.098 402.574 823.098 C 402.504 823.098 402.43 823.109 402.348 823.137 C 401.949 823.254 401.309 823.387 400.797 823.484 C 400.777 823.426 400.77 823.391 400.77 823.391 C 400.684 823.332 400.547 823.258 400.395 823.176 C 400.426 823.191 400.453 823.207 400.48 823.223 C 400.453 823.207 400.426 823.191 400.395 823.176 C 400.23 823.09 400.051 822.992 399.895 822.902 C 399.902 822.906 399.906 822.91 399.91 822.914 C 399.906 822.91 399.902 822.906 399.895 822.902 C 399.891 822.902 399.883 822.898 399.879 822.895 C 399.875 822.895 399.875 822.891 399.871 822.891 C 399.875 822.891 399.875 822.895 399.879 822.895 C 399.77 822.828 399.672 822.766 399.613 822.707 L 399.629 822.723 L 399.613 822.707 C 399.598 822.691 399.582 822.68 399.574 822.664 C 399.715 822.727 399.875 822.805 400.063 822.871 C 400.227 822.93 400.41 822.984 400.613 823.012 C 400.66 823.02 400.715 823.023 400.766 823.023 C 401.012 823.023 401.277 822.949 401.539 822.855 C 401.563 822.848 401.582 822.84 401.605 822.832 L 401.613 822.828 C 401.953 822.707 402.289 822.566 402.586 822.547 C 402.672 822.555 402.754 822.559 402.836 822.562 C 403.238 822.656 403.688 823.121 403.938 823.543 C 403.852 823.582 403.77 823.598 403.695 823.598 M 399.914 822.914 C 399.941 822.93 399.969 822.945 399.996 822.961 C 399.969 822.945 399.941 822.93 399.914 822.914 M 399.859 822.883 C 399.84 822.871 399.82 822.859 399.801 822.848 C 399.82 822.859 399.84 822.871 399.859 822.883 M 399.742 822.809 C 399.758 822.816 399.77 822.824 399.781 822.836 C 399.77 822.824 399.758 822.816 399.742 822.809 M 399.695 822.773 C 399.703 822.781 399.711 822.785 399.719 822.793 C 399.711 822.785 399.703 822.781 399.695 822.773 M 399.645 822.734 C 399.652 822.742 399.664 822.75 399.672 822.758 C 399.664 822.75 399.652 822.742 399.645 822.734 M 399.578 822.672 L 399.59 822.684 L 399.578 822.672 M 402.586 822.547 C 402.586 822.547 402.59 822.547 402.59 822.547 C 402.586 822.547 402.586 822.547 402.586 822.547" fill-opacity="1" fill-rule="nonzero"/>
        <path fill="#9b5435" d="M 411.473 820.988 C 410.848 820.988 410.039 820.852 409.109 820.445 C 409.109 820.445 408.957 820.461 408.781 820.52 C 408.578 820.359 408.492 820.234 408.492 820.234 C 408.633 820.437 409.906 820.332 410.344 820.641 C 410.602 820.82 411.094 820.855 411.461 820.855 C 411.719 820.855 411.91 820.836 411.91 820.836 C 411.91 820.836 411.809 820.887 411.746 820.98 C 411.66 820.984 411.566 820.988 411.473 820.988" fill-opacity="1" fill-rule="nonzero"/>
      </g>
      <g clip-path="url(#33c31f2a1a)">
        <path fill="#eaab85" d="M 418.753906 818.25 C 418.753906 818.160156 418.769531 817.84375 418.769531 817.394531 L 415.480469 815.691406 L 413.078125 815.878906 L 412.335938 817.636719 L 413.640625 817.242188 C 413.640625 817.242188 413.945312 817.066406 414.445312 817.242188 C 414.941406 817.414062 415.25 818.429688 415.480469 818.597656 C 415.601562 818.6875 415.429688 818.621094 415.222656 818.554688 C 415.050781 818.496094 414.855469 818.4375 414.800781 818.476562 C 414.683594 818.566406 415.1875 818.824219 415.375 818.996094 C 415.566406 819.167969 415.738281 819.054688 415.964844 819.484375 C 416.191406 819.914062 416.363281 820.574219 416.363281 820.691406 C 416.363281 820.804688 416.136719 821.523438 416.363281 821.496094 C 416.589844 821.464844 416.761719 820.632812 416.363281 820.058594 C 416.363281 820.058594 417.1875 820.71875 417.1875 821.121094 C 417.1875 821.523438 416.960938 822.15625 416.789062 822.328125 C 416.621094 822.5 416.421875 823.191406 416.363281 823.277344 C 416.304688 823.363281 415.847656 824.398438 415.480469 824.683594 C 415.109375 824.972656 413.113281 825.527344 413.171875 825.984375 C 413.242188 825.855469 413.332031 825.75 413.433594 825.71875 C 413.714844 825.632812 415.480469 825.546875 415.964844 824.339844 C 415.964844 824.339844 416.273438 824.183594 416.566406 823.90625 C 416.746094 823.738281 416.921875 823.527344 417.019531 823.277344 C 417.019531 823.277344 417.300781 823.390625 417.558594 823.105469 C 417.8125 822.816406 418.554688 820.488281 418.496094 818.507812 C 418.496094 818.507812 418.753906 818.566406 418.753906 818.25 " fill-opacity="1" fill-rule="nonzero"/>
      </g>
      <g clip-path="url(#04d5db2458)">
        <path fill="#d0834f" d="M 410.945312 813.9375 C 411.132812 814.550781 409.648438 814.648438 409.449219 814.898438 C 409.335938 815.039062 408.554688 815.566406 408.914062 815.605469 C 409.277344 815.644531 410.195312 815.335938 410.195312 815.335938 C 409.925781 815.796875 409.242188 816.328125 409.242188 816.328125 C 408.820312 816.5625 408.84375 816.984375 409.648438 816.679688 C 410.195312 816.46875 410.046875 816.792969 410.046875 816.792969 C 410.046875 816.792969 409.34375 817.960938 409.816406 818.132812 C 410.292969 818.304688 411.164062 817.328125 411.164062 817.328125 L 410.683594 818.230469 C 411.335938 818.269531 412.867188 817.464844 412.867188 817.464844 C 412.867188 817.464844 412.074219 818.019531 412.359375 818 C 412.644531 817.980469 414.257812 816.773438 414.484375 816.714844 C 414.710938 816.660156 415.054688 816.871094 415.054688 816.871094 C 415.054688 816.871094 415.453125 817.519531 415.699219 817.597656 C 415.945312 817.675781 415.984375 816.984375 415.984375 816.984375 C 415.984375 816.984375 416.25 817.558594 416.34375 817.636719 C 416.40625 817.6875 416.53125 817.6875 416.660156 817.6875 C 416.726562 817.6875 416.792969 817.6875 416.855469 817.691406 C 417.046875 817.710938 417.386719 818.402344 417.765625 818.554688 C 418.144531 818.707031 418.011719 818.496094 418.089844 818.09375 C 418.164062 817.691406 417.558594 815.949219 417.558594 815.949219 L 417.632812 816.5625 C 417.558594 815.949219 416.589844 814.378906 416.589844 814.378906 L 416.589844 814.878906 C 416.496094 814.535156 415.375 812.617188 415.375 812.617188 L 415.472656 813.117188 C 415.472656 813.117188 414.75 811.355469 414.597656 811.066406 C 414.445312 810.777344 414.429688 810.050781 414.808594 809.246094 C 415.1875 808.441406 415.300781 807.410156 415.300781 807.410156 L 415.375 808.078125 C 415.472656 807.90625 415.472656 806.820312 415.472656 806.820312 L 415.625 807.578125 C 415.625 807.324219 415.5 805.730469 414.667969 805.042969 C 414.015625 804.503906 413.113281 804.917969 412.714844 805.078125 C 412.636719 805.195312 412.542969 805.316406 412.441406 805.40625 C 412.410156 805.433594 412.378906 805.457031 412.347656 805.480469 L 412.40625 806.523438 C 412.554688 806.59375 412.023438 806.792969 412.023438 806.792969 C 412.023438 806.792969 411.855469 806.851562 411.667969 806.921875 L 411.527344 807.109375 L 411.660156 807.34375 C 411.6875 807.546875 411.886719 807.945312 412.128906 808.035156 C 412.257812 808.082031 412.375 808.125 412.464844 808.164062 C 412.464844 808.164062 412.664062 809.113281 412.492188 809.917969 C 412.320312 810.722656 411.074219 813.335938 410.945312 813.9375 " fill-opacity="1" fill-rule="nonzero"/>
      </g>
      <g>
        <path fill="#ef3048" d="M 410.832 807.027 C 410.832 807.027 411.055 807.523 411.055 807.84 C 411.055 808.156 410.883 808.672 411.453 808.871 C 411.453 808.871 411.453 809.445 411.652 809.445 C 411.852 809.445 411.879 809.246 412.191 809.273 C 412.504 809.305 413.387 809.391 413.301 808.156 C 413.301 808.156 413.117 806.855 410.832 807.027" fill-opacity="1" fill-rule="nonzero"/>
        <path fill="#c5243b" d="M 412.402 809.086 C 412.238 809.086 412.047 809.078 411.953 809.035 C 411.813 808.969 411.84 808.836 411.68 808.672 C 411.52 808.508 411.66 808.297 411.555 808.039 C 411.453 807.781 411.125 807.508 411.125 807.508 L 410.867 807.031 C 411.141 807.066 411.387 807.117 411.613 807.184 C 411.77 807.344 412.102 807.707 412.445 807.832 L 413.199 808.121 C 413.199 808.121 413.242 808.137 413.301 808.156 C 413.305 808.227 413.309 808.293 413.305 808.359 C 413.211 808.805 412.742 809.082 412.621 809.082 C 412.578 809.082 412.496 809.086 412.402 809.086" fill-opacity="1" fill-rule="nonzero"/>
        <path fill="#8d162a" d="M 411.66 807.566 C 411.859 807.707 412.242 808.434 412.441 808.441 C 412.641 808.449 413.27 808.344 413.301 808.156 C 413.301 808.156 412.91 807.102 410.953 807.027 C 410.953 807.027 411.402 807.379 411.66 807.566" fill-opacity="1" fill-rule="nonzero"/>
        <path fill="#d96f36" d="M 414.199 809.117 L 412.875 810.242 C 412.438 812.875 410.953 815.141 410.953 815.141 C 409.98 817.605 413.027 817.152 413.285 817.348 C 413.313 817.367 413.355 817.383 413.414 817.391 C 413.891 817.074 414.367 816.746 414.484 816.715 C 414.711 816.66 415.055 816.871 415.055 816.871 C 415.055 816.871 415.133 817 415.242 817.148 C 415.609 817.047 415.91 816.926 416.012 816.805 C 416.324 816.43 414.418 812.207 414.273 811.691 C 414.125 811.172 414.199 809.117 414.199 809.117" fill-opacity="1" fill-rule="nonzero"/>
      </g>
      <g>
        <g>
          <g clip-path="url(#77eeea42e0)">
            <path fill="#c18562" d="M 417.789062 818.5625 C 417.78125 818.5625 417.773438 818.558594 417.765625 818.554688 C 417.386719 818.402344 417.046875 817.710938 416.855469 817.691406 C 416.796875 817.6875 416.734375 817.6875 416.671875 817.6875 C 416.667969 817.6875 416.664062 817.6875 416.660156 817.6875 C 416.65625 817.6875 416.652344 817.6875 416.652344 817.6875 C 416.523438 817.6875 416.40625 817.683594 416.34375 817.636719 C 416.25 817.558594 415.984375 816.984375 415.984375 816.984375 C 415.984375 816.984375 415.949219 817.601562 415.734375 817.601562 C 415.722656 817.601562 415.710938 817.601562 415.699219 817.597656 C 415.5625 817.554688 415.378906 817.335938 415.242188 817.148438 C 415.378906 817.335938 415.5625 817.554688 415.699219 817.597656 C 415.710938 817.601562 415.722656 817.601562 415.734375 817.601562 C 415.949219 817.601562 415.984375 816.984375 415.984375 816.984375 C 415.984375 816.984375 416.25 817.558594 416.34375 817.636719 C 416.40625 817.683594 416.523438 817.6875 416.652344 817.6875 C 416.652344 817.6875 416.65625 817.6875 416.660156 817.6875 C 416.664062 817.6875 416.667969 817.6875 416.671875 817.6875 C 416.734375 817.6875 416.796875 817.6875 416.855469 817.691406 C 417.046875 817.710938 417.386719 818.402344 417.765625 818.554688 C 417.773438 818.558594 417.78125 818.5625 417.789062 818.5625 M 418.058594 818.410156 C 418.058594 818.386719 418.058594 818.359375 418.0625 818.328125 C 418.0625 818.332031 418.0625 818.332031 418.0625 818.332031 C 418.058594 818.359375 418.058594 818.386719 418.058594 818.410156 " fill-opacity="1" fill-rule="nonzero"/>
          </g>
          <g clip-path="url(#c56c94410d)">
            <path fill="#b26e43" d="M 417.894531 818.597656 C 417.863281 818.589844 417.832031 818.578125 417.789062 818.5625 C 417.78125 818.5625 417.773438 818.558594 417.765625 818.554688 C 417.386719 818.402344 417.046875 817.710938 416.855469 817.691406 C 416.796875 817.6875 416.734375 817.6875 416.671875 817.6875 C 416.667969 817.6875 416.664062 817.6875 416.660156 817.6875 C 416.65625 817.6875 416.652344 817.6875 416.652344 817.6875 C 416.523438 817.6875 416.40625 817.683594 416.34375 817.636719 C 416.25 817.558594 415.984375 816.984375 415.984375 816.984375 C 415.984375 816.984375 415.949219 817.601562 415.734375 817.601562 C 415.722656 817.601562 415.710938 817.601562 415.699219 817.597656 C 415.5625 817.554688 415.378906 817.335938 415.242188 817.148438 C 415.609375 817.046875 415.910156 816.925781 416.011719 816.804688 C 416.046875 816.761719 416.054688 816.667969 416.039062 816.539062 C 416.101562 816.625 416.167969 816.707031 416.230469 816.734375 C 416.25 816.742188 416.265625 816.75 416.277344 816.75 C 416.378906 816.75 416.296875 816.480469 416.230469 815.96875 C 416.21875 815.871094 416.21875 815.828125 416.230469 815.828125 C 416.28125 815.828125 416.578125 816.78125 416.800781 816.933594 C 416.832031 816.957031 416.855469 816.964844 416.878906 816.964844 C 417.042969 816.964844 416.964844 816.425781 417.003906 816.390625 C 417.0625 816.390625 417.863281 817.851562 418.0625 818.328125 C 418.058594 818.359375 418.058594 818.386719 418.058594 818.410156 C 418.054688 818.449219 418.050781 818.480469 418.046875 818.507812 C 418.011719 818.535156 417.960938 818.566406 417.894531 818.597656 " fill-opacity="1" fill-rule="nonzero"/>
          </g>
          <g>
            <path fill="#b26e43" d="M 412.688 817.852 C 412.816 817.629 412.91 817.418 412.969 817.289 C 413.129 817.305 413.242 817.316 413.285 817.348 C 413.313 817.367 413.355 817.383 413.414 817.391 C 413.613 817.262 413.809 817.125 413.98 817.012 C 413.582 817.277 413.043 817.648 412.688 817.852 M 410.781 815.75 C 410.52 815.172 410.477 814.59 410.73 814.379 C 410.848 814.301 410.93 814.215 410.953 814.105 C 411.098 813.871 411.219 813.551 411.32 813.223 L 411.637 813.402 C 411.637 813.402 411.59 813.781 411.52 814.145 C 411.199 814.766 410.953 815.141 410.953 815.141 C 410.863 815.367 410.809 815.57 410.781 815.75 M 410.945 813.937" fill-opacity="1" fill-rule="nonzero"/>
            <path fill="#b86234" d="M 413.414 817.391 C 413.355 817.383 413.313 817.367 413.285 817.348 C 413.242 817.316 413.129 817.305 412.969 817.289 C 413.008 817.203 413.027 817.152 413.027 817.152 C 413.027 817.152 413.027 817.152 413.023 817.152 C 412.938 817.172 412.848 817.184 412.766 817.187 C 412.734 817.191 412.703 817.191 412.672 817.191 C 411.785 817.191 411.109 816.473 410.781 815.75 C 410.809 815.57 410.863 815.367 410.953 815.141 C 410.953 815.141 411.199 814.766 411.52 814.145 C 411.477 814.375 411.422 814.598 411.367 814.723 C 411.223 815.051 410.914 815.719 410.945 815.816 C 410.945 815.824 410.949 815.828 410.957 815.828 C 411.035 815.828 411.367 815.355 411.367 815.355 C 411.367 815.355 411.109 815.875 411.195 816.047 C 411.207 816.07 411.219 816.078 411.238 816.078 C 411.34 816.078 411.531 815.66 411.59 815.645 C 411.59 815.645 411.594 815.645 411.594 815.645 C 411.652 815.645 411.504 816.219 411.59 816.258 C 411.594 816.258 411.594 816.258 411.598 816.258 C 411.703 816.258 412.191 815.605 412.305 815.547 C 412.305 815.547 412.309 815.547 412.313 815.547 C 412.398 815.547 412.063 816.641 412.305 816.715 C 412.32 816.723 412.336 816.723 412.348 816.723 C 412.563 816.723 412.664 816.223 412.867 815.988 C 412.918 815.926 412.945 815.902 412.957 815.902 C 412.996 815.902 412.914 816.121 413.102 816.238 C 413.152 816.27 413.195 816.285 413.23 816.285 C 413.379 816.285 413.457 816.07 413.652 815.797 C 413.719 815.699 413.75 815.668 413.762 815.668 C 413.781 815.668 413.77 815.723 413.777 815.777 C 413.781 815.832 413.805 815.887 413.887 815.887 C 413.891 815.887 413.895 815.887 413.898 815.887 C 414.133 815.875 414.129 814.832 414.328 814.832 C 414.336 814.832 414.348 814.836 414.355 814.84 C 414.578 814.934 414.313 815.801 414.484 815.887 C 414.496 815.891 414.508 815.895 414.52 815.895 C 414.656 815.895 414.66 815.414 414.668 815.395 C 414.684 815.395 414.922 815.859 415.043 816.008 C 415.152 816.145 415.434 816.934 415.613 816.934 C 415.637 816.934 415.66 816.922 415.68 816.891 C 415.852 816.621 415.754 816.391 415.813 816.297 C 415.816 816.285 415.824 816.281 415.832 816.281 C 415.875 816.281 415.953 816.414 416.039 816.539 C 416.055 816.668 416.047 816.762 416.012 816.805 C 415.91 816.926 415.609 817.047 415.242 817.148 C 415.137 817.004 415.059 816.875 415.055 816.871 C 415.055 816.871 414.789 816.707 414.57 816.707 C 414.543 816.707 414.512 816.711 414.484 816.715 C 414.418 816.734 414.227 816.852 413.98 817.012 C 413.809 817.125 413.613 817.262 413.414 817.391" fill-opacity="1" fill-rule="nonzero"/>
            <path fill="#925a39" d="M 412.508 809.437 C 412.508 809.437 412.523 809.687 412.613 809.879 C 412.703 810.07 412.773 810.242 412.785 810.34 C 412.797 810.434 412.789 810.664 412.867 810.777 C 412.949 810.895 413.281 810.836 413.086 811.047 C 412.891 811.258 412.691 811.355 412.867 811.547 C 413.043 811.738 413.117 811.832 413.168 812.141 C 413.215 812.445 413.328 812.906 413.309 813 C 413.289 813.098 413.438 812.465 413.535 812.254 C 413.633 812.043 413.762 811.91 413.793 811.391 C 413.82 810.875 413.629 810.664 413.793 810.359 C 413.953 810.051 414.465 809.055 414.332 808.805 C 414.199 808.559 413.898 808.574 413.934 808.434 C 413.973 808.289 414.191 808.301 414.234 808.008 C 414.277 807.715 414.145 806.75 414.145 806.75 C 414.145 806.75 412.652 808.52 412.508 809.437" fill-opacity="1" fill-rule="nonzero"/>
            <path fill="#76452c" d="M 413.203 808.187 C 413.203 808.187 413.836 808.852 414.004 808.609 C 414.172 808.363 414.051 808.293 414.117 808.187 C 414.184 808.082 414.254 807.937 414.273 807.773 C 414.289 807.613 414.316 807.344 414.316 807.344 L 414.258 806.719 L 413.203 808.187" fill-opacity="1" fill-rule="nonzero"/>
            <path fill="#76452c" d="M 412.41 809.266 C 412.41 809.266 412.434 809.52 412.645 809.68 C 412.852 809.84 412.969 810.012 412.969 810.012 L 413.102 810.242 C 413.102 810.242 413.066 810.012 413.113 809.754 C 413.156 809.496 413.367 809.344 413.309 809.152 C 413.25 808.961 413.297 808.184 413.309 808.187 C 413.32 808.187 412.969 807.992 412.969 807.992 L 412.41 809.266" fill-opacity="1" fill-rule="nonzero"/>
            <path fill="#f03d60" d="M 414.41 806.465 C 414.375 806.687 414.203 806.625 414.164 806.988 C 414.125 807.352 414.09 807.871 413.957 808.121 C 413.824 808.367 413.199 808.121 413.199 808.121 L 412.445 807.832 C 412.012 807.676 411.594 807.133 411.527 807.109 C 411.441 807.078 411.316 807.07 411.402 806.984 C 411.488 806.898 412.234 806.641 412.234 806.641 C 412.234 806.641 411.801 806.469 411.43 806.211 C 411.063 805.949 411.496 805.633 411.496 805.633 C 411.754 805.488 411.992 805.543 412.418 805.398 C 412.5 805.371 412.512 805.32 412.586 805.254 L 412.535 805.449 C 412.656 805.477 412.703 805.484 412.766 805.449 C 413.09 805.262 413.422 805.012 413.867 805.32 C 414.246 805.586 414.449 806.242 414.41 806.465" fill-opacity="1" fill-rule="nonzero"/>
            <path fill="#b94c49" d="M 412.676 805.473 C 412.676 805.473 412.672 805.473 412.672 805.473 C 412.672 805.473 412.676 805.473 412.68 805.473 C 412.711 805.473 412.734 805.465 412.766 805.449 C 412.734 805.465 412.711 805.473 412.676 805.473 M 412.77 805.445 C 412.77 805.445 412.77 805.445 412.773 805.445 C 412.77 805.445 412.77 805.445 412.77 805.445 M 412.773 805.445 C 412.988 805.32 413.203 805.176 413.449 805.176 C 413.203 805.176 412.988 805.32 412.773 805.445 M 413.871 805.324 C 413.871 805.324 413.867 805.32 413.867 805.32 C 413.867 805.32 413.871 805.324 413.871 805.324 M 413.867 805.32 C 413.863 805.32 413.863 805.32 413.863 805.316 C 413.863 805.32 413.863 805.32 413.867 805.32 M 413.449 805.176" fill-opacity="1" fill-rule="nonzero"/>
            <path fill="#c82b4f" d="M 413.301 806.512 C 413.039 806.512 412.836 806.285 412.73 806.145 C 412.703 806.141 412.68 806.141 412.652 806.141 C 412.645 806.141 412.637 806.141 412.629 806.141 C 412.617 806.141 412.609 806.141 412.598 806.141 C 412.414 806.141 412.164 806.043 412.215 805.996 C 412.223 805.988 412.234 805.984 412.246 805.984 C 412.258 805.984 412.273 805.988 412.289 805.992 C 412.309 805.996 412.328 806 412.348 806 C 412.402 806 412.473 805.98 412.563 805.883 C 412.648 805.789 412.797 805.687 412.949 805.598 C 412.941 805.598 412.938 805.598 412.93 805.598 C 412.859 805.598 412.715 805.645 412.578 805.691 C 412.441 805.738 412.309 805.785 412.27 805.785 C 412.258 805.785 412.254 805.785 412.254 805.777 C 412.262 805.738 412.508 805.578 412.672 805.473 C 412.672 805.473 412.676 805.473 412.676 805.473 C 412.711 805.473 412.734 805.465 412.766 805.449 C 412.766 805.449 412.766 805.449 412.77 805.449 C 412.77 805.445 412.77 805.445 412.77 805.445 C 412.77 805.445 412.77 805.445 412.773 805.445 C 412.988 805.32 413.203 805.176 413.449 805.176 C 413.578 805.176 413.715 805.215 413.863 805.316 C 413.863 805.32 413.863 805.32 413.867 805.32 C 413.867 805.32 413.871 805.324 413.871 805.324 C 413.926 805.363 413.977 805.414 414.027 805.465 C 414.129 805.633 414.188 805.812 414.129 805.812 C 414.121 805.812 414.113 805.812 414.105 805.809 C 414.039 805.781 413.93 805.762 413.852 805.75 C 413.859 805.766 413.863 805.781 413.863 805.793 C 413.871 805.891 413.75 806.031 413.75 806.031 C 413.75 806.031 413.621 806.293 413.375 806.293 C 413.348 806.293 413.32 806.289 413.293 806.281 C 413.172 806.254 413.059 806.219 412.949 806.191 C 413.113 806.398 413.352 806.434 413.484 806.434 C 413.543 806.434 413.578 806.426 413.578 806.426 C 413.48 806.488 413.387 806.512 413.301 806.512" fill-opacity="1" fill-rule="nonzero"/>
            <path fill="#cc7a84" d="M 411.473 805.652 C 411.48 805.645 411.488 805.641 411.492 805.637 C 411.488 805.641 411.48 805.645 411.473 805.652" fill-opacity="1" fill-rule="nonzero"/>
            <path fill="#b62044" d="M 411.934 805.512 C 412.023 805.496 412.117 805.48 412.23 805.453 C 412.117 805.48 412.023 805.496 411.934 805.512 M 412.23 805.453" fill-opacity="1" fill-rule="nonzero"/>
            <path fill="#c82b4f" d="M 411.723 805.785 C 411.633 805.785 411.555 805.758 411.5 805.691 C 411.492 805.68 411.48 805.668 411.473 805.652 C 411.48 805.645 411.488 805.641 411.492 805.637 C 411.605 805.578 411.727 805.547 411.852 805.523 C 411.879 805.52 411.906 805.516 411.934 805.512 C 412.023 805.496 412.117 805.48 412.23 805.453 C 412.289 805.441 412.352 805.422 412.418 805.398 C 412.5 805.371 412.512 805.32 412.586 805.254 L 412.555 805.379 C 412.512 805.41 412.477 805.434 412.461 805.453 C 412.41 805.516 412.012 805.785 411.723 805.785" fill-opacity="1" fill-rule="nonzero"/>
            <g clip-path="url(#306b8c732a)">
              <path fill="#e6a474" d="M 417.222656 810.203125 C 417.082031 809.980469 416.886719 809.679688 416.667969 809.417969 C 416.25 808.921875 415.753906 808.289062 415.71875 808.019531 C 415.679688 807.753906 415.640625 809.515625 415.585938 809.785156 C 415.527344 810.050781 415.507812 810.933594 415.585938 811.238281 L 415.375 810.816406 C 415.375 810.816406 415.492188 812.023438 415.792969 812.578125 C 416.097656 813.136719 416.703125 813.921875 416.855469 814.1875 C 416.984375 814.414062 418.324219 816.609375 418.765625 817.789062 C 418.785156 816.789062 418.75 814.472656 417.898438 812.960938 C 417.898438 812.960938 417.535156 811.507812 417.222656 810.203125 " fill-opacity="1" fill-rule="nonzero"/>
            </g>
            <path fill="#d92f56" d="M 414.41 806.465 C 414.426 806.375 414.449 806.211 414.441 806.031 C 414.254 806.637 413.23 806.687 413.449 806.723 C 413.711 806.758 414 806.723 414 806.723 C 413.566 807.137 412.363 806.598 412.613 806.902 C 412.863 807.211 414.156 807.078 413.984 807.238 C 413.813 807.398 413.348 807.41 413.188 807.367 C 413.027 807.328 412.496 807.141 412.391 807.191 C 412.285 807.238 412.57 807.332 412.75 807.406 C 412.93 807.477 413.074 807.66 412.93 807.629 C 412.789 807.602 412.484 807.187 412.121 807.18 C 411.762 807.176 411.477 806.895 411.375 807.043 C 411.367 807.102 411.488 807.094 411.527 807.109 C 411.594 807.133 411.906 807.723 412.34 807.883 L 413.199 808.121 C 413.199 808.121 413.824 808.367 413.957 808.121 C 414.09 807.871 414.125 807.352 414.164 806.988 C 414.203 806.625 414.375 806.687 414.41 806.465" fill-opacity="1" fill-rule="nonzero"/>
            <path fill="#8d162a" d="M 411.754 806.82 C 411.754 806.82 412 806.809 412.219 806.805 C 412.434 806.801 412.785 807.039 413.219 806.957 C 413.324 806.937 412.602 806.82 412.484 806.742 C 412.367 806.66 412.223 806.578 412.168 806.609 C 412.109 806.645 411.629 806.809 411.754 806.82" fill-opacity="1" fill-rule="nonzero"/>
            <path fill="#a51d42" d="M 413.98 808.066 C 413.988 808.047 414.055 807.781 414.063 807.762 L 413.961 807.879 C 413.703 807.969 413.273 807.949 412.953 807.75 C 412.48 807.453 412.258 807.363 412.258 807.363 L 412.438 807.699 C 412.227 807.633 411.816 806.973 411.406 807.07 C 411.438 807.086 411.488 807.094 411.527 807.109 C 411.594 807.133 412.012 807.676 412.445 807.832 L 413.199 808.121 C 413.199 808.121 413.824 808.367 413.957 808.121 C 413.965 808.102 413.973 808.086 413.98 808.066" fill-opacity="1" fill-rule="nonzero"/>
            <path fill="#a51d42" d="M 411.793 805.77 C 411.793 805.77 411.316 806.008 411.422 806.066 C 411.523 806.125 412.176 805.855 411.793 805.77" fill-opacity="1" fill-rule="nonzero"/>
            <path fill="#ecaa7a" d="M 413.832 806.445 C 413.832 806.445 414.09 806.262 414.203 806.133 C 414.316 806.008 414.582 805.863 414.656 805.879 C 414.734 805.895 414.855 806.113 414.82 806.16 C 414.82 806.16 414.762 806.293 414.656 806.324 C 414.656 806.324 414.797 806.254 414.855 806.199 C 414.918 806.141 414.762 806.406 414.684 806.445 C 414.684 806.445 414.777 806.414 414.828 806.352 C 414.883 806.289 414.934 806.602 414.754 806.676 C 414.574 806.746 414.23 806.766 413.832 806.445" fill-opacity="1" fill-rule="nonzero"/>
            <path fill="#141010" d="M 411.824 805.777 C 411.805 805.867 411.629 806.008 411.551 806.008 C 411.508 806.008 411.496 805.977 411.496 805.945 C 411.426 805.996 411.383 806.043 411.422 806.066 C 411.523 806.121 412.133 805.871 411.824 805.777" fill-opacity="1" fill-rule="nonzero"/>
            <path fill="#f3608b" d="M 412.988 804.098 C 413.117 803.961 413.367 803.273 413.59 803.102 C 412.941 803.141 413.078 804.012 412.852 803.973 C 412.625 803.937 412.676 803.918 412.43 803.844 C 412.008 803.711 411.789 804.164 411.789 804.164 C 411.793 804.824 411.801 804.836 411.609 805 C 411.422 805.16 411.496 805.594 411.496 805.633 L 411.504 805.633 C 411.52 805.625 411.547 805.617 411.586 805.613 C 411.59 805.492 411.535 805.187 411.793 805.008 C 412.086 804.805 411.891 804.156 411.891 804.156 C 411.891 804.156 412.191 803.875 412.492 803.937 C 412.793 803.996 412.84 804.258 412.988 804.098" fill-opacity="1" fill-rule="nonzero"/>
            <path fill="#e6a474" d="M 411.133 814.648 C 411.383 814.496 412.172 811.871 412.41 811.277 C 412.586 810.848 412.563 810.07 412.531 809.68 C 412.523 809.758 412.508 809.84 412.492 809.918 C 412.32 810.723 411.074 813.336 410.945 813.937 C 411.133 814.551 409.648 814.648 409.449 814.898 C 409.434 814.918 409.398 814.949 409.355 814.984 C 409.355 814.984 410.879 814.801 411.133 814.648" fill-opacity="1" fill-rule="nonzero"/>
            <path fill="#f03969" d="M 413.078 808.086 C 413.078 808.086 413.648 808.168 413.797 807.844 C 413.945 807.516 413.859 807.402 413.941 807.273 C 414.023 807.141 414.148 806.73 414.258 806.719 C 414.258 806.719 414.219 806.969 414.258 807.133 C 414.297 807.297 414.242 807.449 414.211 807.48 C 414.184 807.516 414.203 807.719 414.191 807.746 C 414.184 807.773 414.176 808.012 414.004 808.156 C 413.965 808.187 413.996 808.512 413.746 808.473 C 413.547 808.445 413.242 808.219 413.125 808.125 C 413.098 808.102 413.078 808.086 413.078 808.086" fill-opacity="1" fill-rule="nonzero"/>
            <path fill="#a51d42" d="M 414.199 806.758 C 414.105 806.863 414.008 807.164 413.941 807.273 C 413.859 807.402 413.945 807.516 413.797 807.844 C 413.648 808.168 413.078 808.086 413.078 808.086 C 413.078 808.086 413.098 808.102 413.125 808.125 C 413.297 808.172 413.473 808.207 413.566 808.176 C 413.777 808.109 414.031 807.91 414.004 807.699 C 413.977 807.488 413.969 807.437 414.004 807.344 C 414.043 807.25 414.199 806.766 414.199 806.758" fill-opacity="1" fill-rule="nonzero"/>
            <path fill="#e6a474" d="M 417.004 809.27 C 416.996 809.238 416.988 809.211 416.984 809.184 L 416.984 809.18 C 416.969 809.121 416.957 809.066 416.945 809.012 C 416.938 808.984 416.934 808.957 416.926 808.93 C 416.922 808.906 416.914 808.883 416.91 808.855 L 416.91 808.852 C 416.902 808.828 416.898 808.805 416.895 808.781 L 416.895 808.777 C 416.887 808.758 416.883 808.734 416.879 808.711 L 416.879 808.707 C 416.871 808.687 416.867 808.664 416.863 808.645 L 416.863 808.641 C 416.859 808.621 416.855 808.602 416.852 808.582 L 416.852 808.578 C 416.848 808.559 416.844 808.547 416.84 808.531 L 416.836 808.516 C 416.836 808.5 416.832 808.488 416.828 808.473 L 416.828 808.461 C 416.824 808.449 416.82 808.437 416.82 808.426 L 416.816 808.41 C 416.816 808.398 416.813 808.391 416.813 808.383 L 416.805 808.344 L 416.801 808.32 L 416.797 808.305 L 416.793 808.285 C 416.793 808.273 416.793 808.262 416.789 808.25 C 416.789 808.25 416.715 807.082 416.457 806.59 C 416.039 805.785 415.176 804.949 414.691 804.773 C 414.238 804.613 413.926 804.293 413.09 804.652 C 413.535 804.574 414.531 804.613 415.043 805.113 C 415.719 805.762 416.848 808.609 417.004 809.27" fill-opacity="1" fill-rule="nonzero"/>
            <path fill="#eaab85" d="M 410.73 814.375 C 411.109 814.066 411.371 813.121 411.52 812.437 C 411.242 813.102 410.996 813.691 410.945 813.937 C 410.945 813.937 409.004 814.043 408.09 814.359 C 408.09 814.359 405.895 814.125 403.742 814.223 C 403.297 814.387 402.457 814.516 402.395 814.738 C 402.32 815.008 403.457 814.816 403.305 814.984 C 403.152 815.156 402.738 815.008 402.207 815.316 C 401.676 815.621 401.598 816.309 401.523 816.578 C 401.477 816.734 401.277 816.668 401.066 816.602 C 400.914 816.555 400.758 816.508 400.648 816.539 C 400.383 816.617 400.043 817.766 399.574 817.461 C 399.102 817.152 399.207 816.617 398.98 816.195 C 398.754 815.773 399.207 815.891 399.055 815.43 C 398.902 814.969 399.285 814.895 399.359 814.547 C 399.41 814.324 399.094 814.102 398.852 813.922 C 398.852 813.965 398.848 814.02 398.832 814.082 C 398.777 814.371 398.465 814.656 398.52 814.973 C 398.578 815.289 398.75 815.691 398.75 815.691 C 398.75 815.691 398.293 815.98 398.293 816.207 C 398.293 816.437 398.492 816.441 398.492 816.441 C 398.492 816.441 398.32 816.727 398.293 816.871 C 398.293 816.871 398.277 816.891 398.262 816.941 C 398.461 817.246 398.699 817.539 398.828 817.789 C 399.094 818.312 399.551 817.918 399.574 818.605 C 399.598 819.293 400.117 819.719 400.117 819.719 C 400.117 819.719 400.043 819.031 400.117 818.914 C 400.195 818.801 400.117 818.379 400.383 817.996 C 400.648 817.613 400.992 817.496 401.219 817.535 C 401.445 817.574 400.914 818.457 401.371 818.605 C 401.824 818.754 401.977 818.723 402.586 818.598 C 403.191 818.469 403.418 817.574 403.23 817.535 C 403.16 817.523 403.016 817.578 402.879 817.629 C 402.652 817.723 402.445 817.816 402.66 817.574 C 403.004 817.191 403.57 816.309 403.23 816.387 C 402.887 816.465 401.941 817.039 401.941 817.039 C 401.941 817.039 402.207 816.617 402.469 816.309 C 402.738 816.004 403.531 815.543 403.914 815.691 C 404.121 815.773 404.281 815.641 404.488 815.512 C 404.664 815.402 404.871 815.293 405.164 815.305 C 405.809 815.336 406.418 815.582 407.25 815.691 C 408.086 815.801 408.82 814.984 408.82 814.984 C 408.82 814.984 408.164 816.387 407.898 816.73 C 407.633 817.078 407.746 816.922 407.898 817.27 C 408.047 817.613 408.465 817.535 408.656 817.789 C 408.844 818.043 408.617 817.957 408.492 818.34 C 408.367 818.723 409.566 818.598 409.566 818.598 C 409.566 818.598 409.719 818.609 409.906 818.762 C 410.098 818.914 410.211 818.762 410.563 818.605 C 410.746 818.523 410.84 818.637 410.992 818.75 C 411.129 818.852 411.309 818.953 411.641 818.914 C 412.352 818.84 413.027 817.152 413.027 817.152 C 411.203 817.535 410.121 814.879 410.73 814.375" fill-opacity="1" fill-rule="nonzero"/>
          </g>
          <g>
            <path fill="#f5c8aa" d="M 399.207 813.164 C 399.512 813.273 399.699 813.359 399.965 813.398 C 400.23 813.437 400.383 814.164 400.801 814.121 C 401.219 814.074 400.727 814.012 401.41 813.707 C 401.676 813.586 402.023 813.555 402.348 813.559 C 401.941 813.281 401.496 812.984 401.195 812.82 L 401.848 813.535 C 401.813 813.504 400.668 812.5 399.574 812.387 L 399.828 812.547 C 399.641 812.457 399.344 812.379 399.004 812.531 C 398.57 812.73 398.566 813.094 398.68 813.422 C 398.793 813.25 399.008 813.09 399.207 813.164" fill-opacity="1" fill-rule="nonzero"/>
            <path fill="#956246" d="M 402.586 822.547 C 402.586 822.547 403.191 822.211 403.836 821.711 C 404.48 821.215 405.84 818.941 406.227 818.762 C 406.617 818.582 405.707 820.363 405.645 820.652 C 405.582 820.945 405.645 821.367 405.645 821.367 C 405.645 821.367 405.961 820.805 406.684 820.836 C 407.402 820.867 408.242 820.809 408.492 820.648 C 408.746 820.488 409.109 820.445 409.109 820.445 L 409.355 820.836 C 409.355 820.836 407.547 821.57 407.078 822.043 C 406.605 822.516 406.188 823.141 406.152 823.137 C 406.113 823.129 405.629 823.703 405.645 823.816 C 405.652 823.875 405.039 823.527 404.352 823.18 C 403.652 822.828 402.875 822.477 402.586 822.547" fill-opacity="1" fill-rule="nonzero"/>
            <path fill="#a35932" d="M 412.766 817.187 C 412.848 817.184 412.938 817.172 413.023 817.152 C 412.938 817.172 412.848 817.184 412.766 817.187 M 413.023 817.152" fill-opacity="1" fill-rule="nonzero"/>
            <path fill="#bb7a4d" d="M 407.406 815.703 C 407.355 815.703 407.305 815.699 407.25 815.691 C 407.25 815.691 407.25 815.691 407.246 815.691 C 407.25 815.691 407.25 815.691 407.25 815.691 C 407.305 815.699 407.355 815.703 407.406 815.703 C 408.176 815.703 408.82 814.984 408.82 814.984 C 408.82 814.984 408.176 815.703 407.406 815.703 M 407.246 815.691 C 407.246 815.691 407.242 815.691 407.242 815.691 C 407.242 815.691 407.246 815.691 407.246 815.691 M 407.242 815.691 C 407.238 815.691 407.238 815.691 407.238 815.691 C 407.238 815.691 407.238 815.691 407.242 815.691 M 407.238 815.691 C 407.234 815.691 407.234 815.687 407.234 815.687 C 407.234 815.691 407.234 815.691 407.238 815.691 M 407.23 815.687 C 407.23 815.687 407.227 815.687 407.223 815.687 C 407.227 815.687 407.23 815.687 407.23 815.687 M 407.223 815.687 C 407.219 815.687 407.215 815.687 407.211 815.687 C 407.215 815.687 407.219 815.687 407.223 815.687 M 407.211 815.687 C 407.211 815.687 407.211 815.687 407.207 815.687 C 407.211 815.687 407.211 815.687 407.211 815.687 M 407.207 815.687 C 407.168 815.68 407.133 815.676 407.094 815.668 C 407.133 815.676 407.168 815.68 407.207 815.687 M 407.094 815.668 C 407.09 815.668 407.086 815.668 407.082 815.668 C 407.086 815.668 407.09 815.668 407.094 815.668 M 407.082 815.668 C 407.082 815.668 407.082 815.668 407.078 815.668 C 407.082 815.668 407.082 815.668 407.082 815.668 M 407.078 815.668 C 407.078 815.668 407.074 815.668 407.074 815.668 C 407.074 815.668 407.078 815.668 407.078 815.668 M 407.074 815.668 C 407.074 815.664 407.07 815.664 407.07 815.664 C 407.07 815.664 407.07 815.664 407.074 815.668 M 407.07 815.664 C 407.066 815.664 407.066 815.664 407.066 815.664 C 407.066 815.664 407.066 815.664 407.07 815.664 M 407.063 815.664" fill-opacity="1" fill-rule="nonzero"/>
            <path fill="#c18562" d="M 411.508 818.922 C 411.258 818.922 411.109 818.836 410.992 818.75 C 410.875 818.664 410.793 818.578 410.68 818.578 C 410.645 818.578 410.605 818.586 410.563 818.605 C 410.313 818.715 410.184 818.824 410.063 818.824 C 410.012 818.824 409.965 818.805 409.906 818.762 C 409.719 818.609 409.566 818.598 409.566 818.598 C 409.566 818.598 409.375 818.617 409.156 818.617 C 408.852 818.617 408.484 818.578 408.484 818.395 C 408.484 818.379 408.488 818.359 408.492 818.34 C 408.582 818.062 408.727 818.031 408.727 817.937 C 408.727 817.902 408.707 817.859 408.656 817.789 C 408.465 817.535 408.047 817.613 407.898 817.27 C 407.813 817.074 407.738 817.039 407.738 816.98 C 407.738 816.937 407.781 816.883 407.898 816.73 C 408.164 816.387 408.82 814.984 408.82 814.984 C 408.82 814.984 408.176 815.703 407.406 815.703 C 407.355 815.703 407.305 815.699 407.25 815.691 C 407.25 815.691 407.25 815.691 407.246 815.691 C 407.246 815.691 407.242 815.691 407.242 815.691 C 407.238 815.691 407.238 815.691 407.238 815.691 C 407.234 815.691 407.234 815.691 407.234 815.687 C 407.23 815.687 407.23 815.687 407.23 815.687 C 407.23 815.687 407.227 815.687 407.223 815.687 C 407.219 815.687 407.215 815.687 407.211 815.687 C 407.211 815.687 407.211 815.687 407.207 815.687 C 407.168 815.68 407.133 815.676 407.094 815.668 C 407.09 815.668 407.086 815.668 407.082 815.668 C 407.082 815.668 407.082 815.668 407.078 815.668 C 407.078 815.668 407.074 815.668 407.074 815.668 C 407.07 815.664 407.07 815.664 407.07 815.664 C 407.066 815.664 407.066 815.664 407.066 815.664 C 407.066 815.664 407.063 815.664 407.063 815.664 C 406.84 815.629 406.633 815.586 406.438 815.539 C 406.477 815.551 406.523 815.555 406.57 815.555 C 406.906 815.555 407.387 815.34 407.539 815.238 C 407.715 815.121 408.977 814.441 408.977 814.441 C 408.977 814.441 409.355 814.984 408.977 815.32 C 408.594 815.652 409.184 816.078 409.531 816.078 C 409.535 816.078 409.535 816.078 409.535 816.078 C 409.883 816.078 409.758 816.961 410.73 817.461 C 410.934 817.562 411.152 817.602 411.371 817.602 C 411.902 817.602 412.438 817.363 412.766 817.187 C 412.848 817.184 412.938 817.172 413.023 817.152 C 413.027 817.152 413.027 817.152 413.027 817.152 C 413.027 817.152 413.008 817.203 412.969 817.289 C 412.789 817.691 412.227 818.852 411.641 818.914 C 411.594 818.922 411.551 818.922 411.508 818.922" fill-opacity="1" fill-rule="nonzero"/>
            <path fill="#502b1b" d="M 402.586 822.547 C 402.586 822.547 403.949 822.395 404.711 821.285 C 405.469 820.18 405.969 819.184 405.969 819.184 C 405.969 819.184 405.09 821.098 404.711 821.672 C 404.328 822.246 403.762 822.652 402.586 822.547" fill-opacity="1" fill-rule="nonzero"/>
            <path fill="#8c5437" d="M 399.629 822.723 L 399.613 822.707 L 399.629 822.723" fill-opacity="1" fill-rule="nonzero"/>
            <path fill="#8c5437" d="M 399.59 822.684 L 399.578 822.672 L 399.59 822.684" fill-opacity="1" fill-rule="nonzero"/>
            <path fill="#ccbbb1" d="M 399.063 820.719 C 399.063 820.719 398.75 820.488 398.691 820.145 C 398.66 819.949 398.727 819.75 398.789 819.609 C 398.738 819.723 398.684 819.883 398.684 820.043 C 398.684 820.074 398.684 820.109 398.691 820.145 C 398.75 820.488 399.063 820.719 399.063 820.719" fill-opacity="1" fill-rule="nonzero"/>
            <path fill="#ad6a42" d="M 400.766 823.023 C 400.715 823.023 400.66 823.02 400.613 823.012 C 400.41 822.984 400.227 822.93 400.063 822.871 C 399.875 822.805 399.715 822.727 399.574 822.664 C 399.559 822.648 399.551 822.633 399.543 822.617 C 399.539 822.602 399.539 822.586 399.539 822.57 C 399.539 822.375 399.859 822.129 399.859 822.129 C 399.859 822.129 398.945 821.781 398.918 821.437 C 398.918 821.41 398.914 821.383 398.914 821.359 C 398.914 821.039 399.063 820.719 399.063 820.719 C 399.063 820.719 398.75 820.488 398.691 820.145 C 398.684 820.109 398.684 820.074 398.684 820.043 C 398.684 819.883 398.738 819.723 398.789 819.609 C 398.879 819.727 398.949 819.84 398.941 819.91 C 398.922 820.102 398.98 820.582 399.34 820.676 C 399.699 820.773 399.617 821.078 399.574 821.137 C 399.531 821.191 399.348 821.598 399.695 821.598 C 399.703 821.598 399.711 821.598 399.719 821.598 C 400.098 821.578 400.707 821.023 400.953 820.965 C 400.965 820.961 400.977 820.961 400.984 820.957 C 400.992 820.957 401 820.957 401.008 820.957 C 401.145 820.957 400.883 821.195 400.953 821.215 C 400.965 821.215 400.98 821.219 401 821.219 C 401.004 821.219 401.004 821.219 401.008 821.219 C 401.156 821.215 401.555 821.121 401.984 820.488 C 401.988 820.488 401.988 820.484 401.992 820.48 C 401.992 820.477 401.992 820.477 401.992 820.477 C 401.996 820.477 401.996 820.477 401.996 820.477 C 401.996 820.473 402 820.469 402.004 820.465 C 402.004 820.461 402.008 820.457 402.008 820.453 C 402.012 820.449 402.012 820.449 402.016 820.445 C 402.008 820.469 401.664 821.445 402.004 821.445 C 402.008 821.445 402.012 821.445 402.016 821.441 C 402.375 821.426 402.867 820.602 403.211 820.391 C 403.211 820.391 403.211 820.391 403.211 820.387 C 403.215 820.387 403.215 820.387 403.215 820.387 C 403.215 820.387 403.215 820.387 403.219 820.387 C 403.219 820.387 403.219 820.387 403.219 820.383 C 403.281 820.348 403.32 820.332 403.348 820.332 C 403.402 820.332 403.395 820.395 403.391 820.457 C 403.391 820.461 403.391 820.461 403.391 820.465 C 403.387 820.523 403.391 820.582 403.453 820.582 C 403.461 820.582 403.469 820.582 403.477 820.582 C 403.684 820.543 403.742 819.949 403.949 819.855 C 404.16 819.758 404.844 819.645 405.031 819.527 C 405.219 819.414 405.961 819 405.969 818.996 C 405.66 819.352 405.191 820.039 404.746 820.641 C 404.547 820.918 404.348 821.176 404.172 821.379 C 404.047 821.52 403.934 821.637 403.836 821.711 C 403.207 822.199 402.613 822.531 402.586 822.547 C 402.328 822.566 402.035 822.676 401.738 822.785 C 401.695 822.801 401.648 822.816 401.605 822.832 L 401.602 822.832 C 401.582 822.84 401.559 822.848 401.539 822.855 C 401.277 822.949 401.012 823.023 400.766 823.023" fill-opacity="1" fill-rule="nonzero"/>
            <path fill="#9f5535" d="M 402.004 821.445 C 402.008 821.445 402.012 821.445 402.016 821.441 C 402.012 821.445 402.008 821.445 402.004 821.445 M 404.172 821.379 C 404.348 821.176 404.547 820.918 404.746 820.641 C 404.723 820.676 404.699 820.707 404.676 820.742 C 404.676 820.742 404.676 820.742 404.672 820.742 C 404.496 820.98 404.328 821.199 404.172 821.379 M 401.008 821.219 C 401.156 821.215 401.555 821.121 401.984 820.488 C 401.555 821.121 401.156 821.215 401.008 821.219 M 400.953 821.215 C 400.883 821.195 401.145 820.957 401.008 820.957 C 401 820.957 400.992 820.957 400.984 820.957 C 400.992 820.957 401 820.957 401.008 820.957 C 401.145 820.957 400.883 821.195 400.953 821.215 M 403.453 820.582 C 403.461 820.582 403.469 820.582 403.477 820.582 C 403.469 820.582 403.461 820.582 403.453 820.582 M 401.992 820.48 C 401.992 820.477 401.992 820.477 401.992 820.477 C 401.992 820.477 401.992 820.477 401.992 820.48 M 401.996 820.477 C 401.996 820.473 402 820.469 402.004 820.465 C 402 820.469 401.996 820.473 401.996 820.477 M 403.391 820.465 C 403.391 820.461 403.391 820.461 403.391 820.457 C 403.391 820.461 403.391 820.461 403.391 820.465 M 402.004 820.465 C 402.004 820.461 402.008 820.457 402.008 820.453 C 402.008 820.457 402.004 820.461 402.004 820.465 M 403.211 820.391 C 403.211 820.391 403.211 820.391 403.211 820.387 C 403.211 820.391 403.211 820.391 403.211 820.391 M 403.215 820.387 C 403.215 820.387 403.215 820.387 403.219 820.387 C 403.215 820.387 403.215 820.387 403.215 820.387 M 403.219 820.383 C 403.281 820.348 403.32 820.332 403.348 820.332 C 403.32 820.332 403.281 820.348 403.219 820.383" fill-opacity="1" fill-rule="nonzero"/>
            <path fill="#925739" d="M 400.766 823.023 C 400.715 823.023 400.66 823.02 400.613 823.012 C 400.41 822.984 400.227 822.93 400.063 822.871 C 400.227 822.93 400.41 822.984 400.613 823.012 C 400.66 823.02 400.715 823.023 400.766 823.023 C 401.012 823.023 401.277 822.949 401.539 822.855 C 401.277 822.949 401.012 823.023 400.766 823.023 M 401.605 822.832 C 401.648 822.816 401.695 822.801 401.738 822.785 C 402.035 822.676 402.328 822.566 402.586 822.547 C 402.289 822.566 401.953 822.707 401.613 822.828 L 401.605 822.832" fill-opacity="1" fill-rule="nonzero"/>
            <path fill="#82523b" d="M 402.586 822.547 C 402.613 822.531 403.207 822.199 403.836 821.711 C 403.207 822.199 402.613 822.531 402.586 822.547 M 404.676 820.742 C 404.699 820.707 404.723 820.676 404.746 820.641 C 405.191 820.039 405.66 819.352 405.969 818.996 C 405.641 819.371 405.141 820.113 404.676 820.742" fill-opacity="1" fill-rule="nonzero"/>
            <path fill="#a4653f" d="M 402.586 822.547 C 402.602 822.543 402.621 822.539 402.641 822.539 C 402.617 822.543 402.602 822.543 402.594 822.547 C 402.59 822.547 402.59 822.547 402.586 822.547" fill-opacity="1" fill-rule="nonzero"/>
            <path fill="#7f5038" d="M 402.586 822.547 C 402.602 822.543 402.621 822.539 402.641 822.539 C 402.621 822.539 402.602 822.543 402.586 822.547" fill-opacity="1" fill-rule="nonzero"/>
          </g>
        </g>
        <g>
          <path fill="#502c1c" d="M 402.727 822.547 C 402.703 822.543 402.68 822.543 402.656 822.543 C 402.637 822.543 402.613 822.543 402.59 822.547 C 402.59 822.547 402.59 822.547 402.594 822.547 C 402.602 822.543 402.617 822.543 402.641 822.539 C 402.652 822.539 402.66 822.539 402.668 822.539 C 402.691 822.539 402.711 822.539 402.738 822.539 L 402.727 822.547" fill-opacity="1" fill-rule="nonzero"/>
          <path fill="#a4653f" d="M 400.395 823.176 C 400.266 823.105 400.129 823.035 400 822.965 C 400.129 823.035 400.266 823.105 400.395 823.176" fill-opacity="1" fill-rule="nonzero"/>
          <path fill="#8c5437" d="M 400.48 823.223 C 400.453 823.207 400.426 823.191 400.395 823.176 C 400.426 823.191 400.453 823.207 400.48 823.223" fill-opacity="1" fill-rule="nonzero"/>
          <path fill="#a4653f" d="M 399.895 822.902 C 399.891 822.902 399.883 822.898 399.879 822.895 C 399.883 822.898 399.891 822.902 399.895 822.902" fill-opacity="1" fill-rule="nonzero"/>
          <path fill="#8c5437" d="M 399.91 822.914 C 399.906 822.91 399.902 822.906 399.895 822.902 C 399.902 822.906 399.906 822.91 399.91 822.914 M 399.879 822.895 C 399.875 822.895 399.875 822.891 399.871 822.891 C 399.875 822.891 399.875 822.895 399.879 822.895" fill-opacity="1" fill-rule="nonzero"/>
          <path fill="#8c5437" d="M 399.859 822.883 C 399.84 822.871 399.82 822.859 399.801 822.848 C 399.82 822.859 399.84 822.871 399.859 822.883" fill-opacity="1" fill-rule="nonzero"/>
          <path fill="#8c5437" d="M 399.996 822.961 C 399.969 822.945 399.941 822.93 399.914 822.914 C 399.941 822.93 399.969 822.945 399.996 822.961" fill-opacity="1" fill-rule="nonzero"/>
          <path fill="#8c5437" d="M 399.719 822.793 C 399.711 822.785 399.703 822.781 399.695 822.773 C 399.703 822.781 399.711 822.785 399.719 822.793" fill-opacity="1" fill-rule="nonzero"/>
          <path fill="#8c5437" d="M 399.781 822.836 C 399.77 822.824 399.758 822.816 399.742 822.809 C 399.758 822.816 399.77 822.824 399.781 822.836" fill-opacity="1" fill-rule="nonzero"/>
          <path fill="#8c5437" d="M 399.672 822.758 C 399.664 822.75 399.652 822.742 399.645 822.734 C 399.652 822.742 399.664 822.75 399.672 822.758" fill-opacity="1" fill-rule="nonzero"/>
          <path fill="#eaab85" d="M 408.781 820.52 C 408.781 820.52 406.688 820.707 406.324 820.875 C 405.961 821.039 404.953 821.496 404.66 822.344 L 404.918 822.344 C 404.918 822.344 403.973 823.027 403.922 823.824 C 403.871 824.621 404.277 823.98 404.277 823.98 C 404.277 823.98 404.008 824.754 404.254 825.121 C 404.5 825.488 404.543 825.844 405.102 826.004 C 405.656 826.164 406.77 825.984 406.77 825.984 C 406.77 825.984 406.57 826.25 406.738 826.277 C 406.91 826.309 408.871 826.633 409.355 825.984 C 409.84 825.332 410.07 823.184 410.07 822.836 C 410.07 822.836 410.051 823.609 410.344 823.551 C 410.637 823.492 410.656 821.191 408.781 820.52" fill-opacity="1" fill-rule="nonzero"/>
          <path fill="#cb824f" d="M 409.336 826.008 C 409.344 826 409.352 825.992 409.355 825.984 C 409.355 825.98 409.359 825.98 409.359 825.98 C 409.359 825.98 409.355 825.98 409.355 825.984 C 409.352 825.992 409.344 826 409.336 826.008" fill-opacity="1" fill-rule="nonzero"/>
          <path fill="#cb824f" d="M 409.445 825.844 C 409.445 825.844 409.445 825.84 409.445 825.84 C 409.445 825.84 409.445 825.844 409.445 825.844 M 409.449 825.84 C 409.449 825.84 409.449 825.84 409.449 825.836 C 409.449 825.84 409.449 825.84 409.449 825.84 M 409.453 825.828 C 409.453 825.824 409.453 825.824 409.453 825.824 C 409.453 825.824 409.453 825.824 409.453 825.828 M 409.453 825.824 C 409.453 825.824 409.457 825.824 409.457 825.824 C 409.457 825.824 409.453 825.824 409.453 825.824 M 409.457 825.824 C 409.457 825.824 409.457 825.82 409.457 825.82 C 409.457 825.82 409.457 825.824 409.457 825.824 M 409.457 825.82 C 409.457 825.82 409.457 825.816 409.457 825.816 C 409.457 825.816 409.457 825.82 409.457 825.82 M 409.457 825.816 C 409.457 825.816 409.457 825.816 409.461 825.816 C 409.457 825.816 409.457 825.816 409.457 825.816 M 409.461 825.816 C 409.461 825.816 409.461 825.816 409.461 825.812 C 409.461 825.816 409.461 825.816 409.461 825.816 M 409.461 825.812 C 409.461 825.812 409.461 825.812 409.461 825.809 C 409.461 825.812 409.461 825.812 409.461 825.812 M 409.461 825.809 C 409.461 825.809 409.465 825.809 409.465 825.809 C 409.465 825.809 409.461 825.809 409.461 825.809 M 409.465 825.809 C 409.465 825.805 409.465 825.805 409.465 825.805 C 409.465 825.805 409.465 825.805 409.465 825.809 M 409.465 825.805 C 409.465 825.801 409.469 825.801 409.469 825.801 C 409.469 825.801 409.465 825.801 409.465 825.805 M 409.469 825.801 C 409.867 825.016 410.063 823.223 410.07 822.855 C 410.063 823.223 409.867 825.016 409.469 825.801" fill-opacity="1" fill-rule="nonzero"/>
          <path fill="#cb824f" d="M 410.313 823.555 C 410.168 823.555 410.109 823.332 410.086 823.133 C 410.109 823.332 410.168 823.555 410.313 823.555 C 410.324 823.555 410.336 823.551 410.344 823.551 C 410.336 823.551 410.324 823.555 410.313 823.555 M 410.344 823.551 C 410.367 823.547 410.383 823.531 410.402 823.508 C 410.383 823.531 410.367 823.547 410.344 823.551 M 410.402 823.508 C 410.402 823.504 410.402 823.504 410.402 823.504 C 410.402 823.504 410.402 823.504 410.402 823.508 M 410.402 823.504" fill-opacity="1" fill-rule="nonzero"/>
          <path fill="#d79467" d="M 407.969 826.387 C 407.383 826.387 406.828 826.293 406.738 826.277 C 406.688 826.27 406.672 826.242 406.672 826.203 C 406.672 826.113 406.77 825.984 406.77 825.984 C 406.77 825.984 406.23 826.07 405.719 826.07 C 405.492 826.07 405.27 826.055 405.102 826.004 C 404.969 825.965 404.863 825.918 404.777 825.859 C 404.512 825.672 404.441 825.398 404.254 825.121 C 404.176 825.004 404.148 824.852 404.148 824.691 C 404.148 824.344 404.277 823.98 404.277 823.98 C 404.277 823.98 404.125 824.223 404.016 824.223 C 403.961 824.223 403.918 824.156 403.918 823.949 C 403.918 823.914 403.918 823.871 403.922 823.824 C 403.922 823.824 403.922 823.824 403.922 823.82 C 403.922 823.82 403.922 823.82 403.922 823.816 C 403.973 823.105 404.73 822.484 404.891 822.363 C 405.109 822.32 405.395 822.223 405.773 822.027 C 405.953 821.934 406.059 821.895 406.109 821.895 C 406.398 821.895 405.043 823.09 405.023 823.223 C 405.02 823.273 405.059 823.293 405.113 823.293 C 405.227 823.293 405.402 823.223 405.402 823.223 C 405.402 823.223 405.168 824.125 405.215 824.238 L 405.543 823.75 L 405.645 823.75 C 405.645 823.75 405.16 824.73 405.418 824.73 C 405.422 824.73 405.426 824.727 405.43 824.727 C 405.715 824.699 406.172 824.184 406.824 823.824 C 406.949 823.758 407.039 823.727 407.105 823.727 C 407.387 823.727 407.203 824.238 407.203 824.238 L 407.203 824.613 C 407.203 824.613 407.734 824.324 407.992 824.039 C 408.047 823.977 408.078 823.953 408.105 823.953 C 408.148 823.953 408.156 824.031 408.18 824.113 C 408.203 824.191 408.242 824.27 408.34 824.27 C 408.348 824.27 408.355 824.27 408.363 824.27 C 408.645 824.238 408.762 822.875 408.977 822.539 C 409.027 822.453 409.07 822.422 409.102 822.422 C 409.199 822.422 409.215 822.715 409.215 822.715 C 409.215 822.715 409.859 822.648 409.418 820.855 C 410.543 821.676 410.598 823.219 410.402 823.504 C 410.402 823.504 410.402 823.504 410.402 823.508 C 410.383 823.531 410.367 823.547 410.344 823.551 C 410.336 823.551 410.324 823.555 410.313 823.555 C 410.168 823.555 410.109 823.332 410.086 823.133 C 410.07 823.008 410.07 822.891 410.07 822.852 C 410.07 822.852 410.07 822.852 410.07 822.855 C 410.063 823.223 409.867 825.016 409.469 825.801 C 409.469 825.801 409.465 825.801 409.465 825.805 C 409.465 825.805 409.465 825.805 409.465 825.809 C 409.465 825.809 409.461 825.809 409.461 825.809 C 409.461 825.812 409.461 825.812 409.461 825.812 C 409.461 825.816 409.461 825.816 409.461 825.816 C 409.457 825.816 409.457 825.816 409.457 825.816 C 409.457 825.816 409.457 825.82 409.457 825.82 C 409.457 825.82 409.457 825.824 409.457 825.824 C 409.457 825.824 409.453 825.824 409.453 825.824 C 409.453 825.824 409.453 825.824 409.453 825.828 C 409.453 825.828 409.453 825.832 409.453 825.832 C 409.453 825.832 409.453 825.832 409.449 825.832 C 409.449 825.832 409.449 825.836 409.449 825.836 C 409.449 825.84 409.449 825.84 409.449 825.84 C 409.449 825.84 409.449 825.84 409.445 825.84 C 409.445 825.84 409.445 825.844 409.445 825.844 C 409.445 825.844 409.441 825.848 409.441 825.848 C 409.441 825.848 409.441 825.852 409.441 825.852 C 409.441 825.852 409.441 825.852 409.438 825.855 C 409.438 825.859 409.434 825.859 409.434 825.863 C 409.41 825.906 409.383 825.945 409.359 825.98 C 409.359 825.98 409.355 825.98 409.355 825.984 C 409.352 825.992 409.344 826 409.336 826.008 C 409.086 826.305 408.512 826.387 407.969 826.387" fill-opacity="1" fill-rule="nonzero"/>
          <path fill="#a36540" d="M 409.734 822.773 L 409.734 822.371 C 409.512 822.629 409.188 825.102 408.977 825.359 C 408.762 825.617 407.621 825.703 407.539 825.676 C 407.457 825.648 408.02 825.246 407.961 825.129 C 407.906 825.016 406.438 825.477 406.438 825.477 C 406.438 825.477 407.223 825.129 406.77 825.102 C 406.313 825.074 405.316 825.477 405.031 825.477 C 404.746 825.477 404.605 824.469 404.691 824.238 C 404.777 824.008 404.578 823.781 404.406 823.824 C 404.305 823.852 404.207 823.488 404.141 823.184 C 404.023 823.379 403.938 823.598 403.922 823.824 C 403.871 824.621 404.277 823.98 404.277 823.98 C 404.277 823.98 404.008 824.754 404.254 825.121 C 404.5 825.488 404.543 825.844 405.102 826.004 C 405.656 826.164 406.77 825.984 406.77 825.984 C 406.77 825.984 406.57 826.25 406.738 826.277 C 406.91 826.309 408.871 826.633 409.355 825.984 C 409.84 825.332 410.066 823.195 410.07 822.836 C 410.066 822.887 410.063 823.605 410.344 823.551 C 410.516 823.516 410.594 822.703 410.246 821.902 C 410.164 822.535 409.734 822.773 409.734 822.773" fill-opacity="1" fill-rule="nonzero"/>
          <path fill="#f3608b" d="M 413.676 805.758 C 413.699 805.824 413.691 806.09 413.328 806.164 C 412.961 806.234 412.742 805.715 412.742 805.715 C 412.742 805.715 413.137 805.148 413.488 805.473 L 413.676 805.758" fill-opacity="1" fill-rule="nonzero"/>
          <path fill="#d8492e" d="M 412.773 805.742 C 412.773 805.742 412.984 805.41 413.293 805.426 C 413.598 805.437 413.676 805.746 413.676 805.746 C 413.676 805.746 413.406 806.422 412.773 805.742" fill-opacity="1" fill-rule="nonzero"/>
          <path fill="#141010" d="M 413.469 805.758 C 413.469 805.84 413.367 805.906 413.238 805.906 C 413.113 805.906 413.012 805.84 413.012 805.758 C 413.012 805.676 413.113 805.605 413.238 805.605 C 413.367 805.605 413.469 805.676 413.469 805.758" fill-opacity="1" fill-rule="nonzero"/>
          <path fill="#ffffff" d="M 413.426 805.629 C 413.426 805.668 413.395 805.699 413.359 805.699 C 413.32 805.699 413.289 805.668 413.289 805.629 C 413.289 805.594 413.32 805.562 413.359 805.562 C 413.395 805.562 413.426 805.594 413.426 805.629" fill-opacity="1" fill-rule="nonzero"/>
        </g>
        <g>
          <path fill="#f3608b" d="M 412.727 805.793 C 412.727 805.793 413.238 806.633 413.715 805.98 C 413.715 805.98 413.629 806.379 413.211 806.305 C 412.797 806.227 412.727 805.793 412.727 805.793" fill-opacity="1" fill-rule="nonzero"/>
          <path fill="#a72e21" d="M 413.293 805.426 C 412.984 805.41 412.773 805.742 412.773 805.742 C 412.82 805.793 412.863 805.836 412.91 805.871 C 412.91 805.867 412.969 805.59 413.227 805.523 C 413.484 805.457 413.676 805.746 413.676 805.746 C 413.676 805.746 413.598 805.437 413.293 805.426" fill-opacity="1" fill-rule="nonzero"/>
          <path fill="#dc5f4c" d="M 413.633 805.77 C 413.633 805.77 413.422 806.07 413.313 806 C 413.203 805.93 413.453 805.949 413.52 805.781 C 413.582 805.613 413.613 805.742 413.633 805.77" fill-opacity="1" fill-rule="nonzero"/>
        </g>
      </g>
    </g>
  </g>
</svg>