<?xml version="1.0" encoding="UTF-8" standalone="no"?>
<svg
   viewBox="149.645 248.398 84.754 70.441"
   version="1.1"
   id="svg24"
   sodipodi:docname="kiwi_tv_icon.svgz"
   xmlns:inkscape="http://www.inkscape.org/namespaces/inkscape"
   xmlns:sodipodi="http://sodipodi.sourceforge.net/DTD/sodipodi-0.dtd"
   xmlns="http://www.w3.org/2000/svg"
   xmlns:svg="http://www.w3.org/2000/svg">
  <sodipodi:namedview
     id="namedview26"
     pagecolor="#ffffff"
     bordercolor="#000000"
     borderopacity="0.25"
     inkscape:showpageshadow="2"
     inkscape:pageopacity="0.0"
     inkscape:pagecheckerboard="0"
     inkscape:deskcolor="#d1d1d1" />
  <defs
     id="defs8">
    <clipPath
       id="5dbc4011bd">
      <path
         d="M 149.648438 248.371094 L 234.398438 248.371094 L 234.398438 306 L 149.648438 306 Z M 149.648438 248.371094 "
         clip-rule="nonzero"
         id="path2" />
    </clipPath>
    <clipPath
       id="e2d8e6ebb6">
      <path
         d="M 167 313 L 217 313 L 217 318.871094 L 167 318.871094 Z M 167 313 "
         clip-rule="nonzero"
         id="path5" />
    </clipPath>
  </defs>
  <g
     id="g22">
    <g
       clip-path="url(#5dbc4011bd)"
       id="g12">
      <path
         fill="#6e757d"
         d="M 230.699219 293.734375 L 153.347656 293.734375 L 153.347656 252.449219 C 153.347656 252.265625 153.496094 252.117188 153.679688 252.117188 L 230.367188 252.117188 C 230.550781 252.117188 230.699219 252.265625 230.699219 252.449219 Z M 200.5 301.734375 C 200.105469 302.132812 199.550781 302.382812 198.945312 302.382812 L 185.101562 302.382812 C 183.882812 302.382812 182.898438 301.390625 182.898438 300.167969 C 182.898438 299.554688 183.144531 299 183.542969 298.601562 C 183.941406 298.199219 184.492188 297.953125 185.101562 297.953125 L 198.945312 297.953125 C 200.160156 297.953125 201.148438 298.945312 201.148438 300.167969 C 201.148438 300.777344 200.902344 301.332031 200.5 301.734375 Z M 230.367188 248.398438 L 153.679688 248.398438 C 151.457031 248.398438 149.644531 250.21875 149.644531 252.449219 L 149.644531 301.496094 C 149.644531 303.726562 151.457031 305.546875 153.679688 305.546875 L 230.367188 305.546875 C 232.589844 305.546875 234.398438 303.726562 234.398438 301.496094 L 234.398438 252.449219 C 234.398438 250.21875 232.589844 248.398438 230.367188 248.398438 "
         fill-opacity="1"
         fill-rule="nonzero"
         id="path10" />
    </g>
    <path
       fill="#6e757d"
       d="M 200.039 300.168 C 200.039 300.461 199.922 300.738 199.719 300.945 C 199.512 301.152 199.238 301.27 198.945 301.27 L 185.102 301.27 C 184.496 301.27 184.008 300.773 184.008 300.168 C 184.008 299.875 184.121 299.598 184.328 299.387 C 184.535 299.184 184.809 299.066 185.102 299.066 L 198.945 299.066 C 199.547 299.066 200.039 299.563 200.039 300.168"
       fill-opacity="1"
       fill-rule="nonzero"
       id="path14" />
    <g
       clip-path="url(#e2d8e6ebb6)"
       id="g18">
      <path
         fill="#6e757d"
         d="M 216.945312 318.839844 L 167.097656 318.839844 C 168.089844 315.921875 170.84375 313.816406 174.078125 313.816406 L 209.96875 313.816406 C 213.207031 313.816406 215.957031 315.921875 216.945312 318.839844 "
         fill-opacity="1"
         fill-rule="nonzero"
         id="path16" />
    </g>
    <path
       fill="#6e757d"
       d="M 201.512 312.469 L 182.535 312.469 L 184.402 306.895 L 199.645 306.895 L 201.512 312.469"
       fill-opacity="1"
       fill-rule="nonzero"
       id="path20" />
  </g>
</svg>
