<?xml version="1.0" encoding="utf-8"?>
<svg viewBox="393.521 959.43 21.642 30.742" xmlns="http://www.w3.org/2000/svg">
  <defs>
    <clipPath id="cce000fb45">
      <path d="M 396 959.425781 L 415.246094 959.425781 L 415.246094 990.175781 L 396 990.175781 Z M 396 959.425781 " clip-rule="nonzero"/>
    </clipPath>
    <clipPath id="9c73798740">
      <path d="M 401 959.425781 L 412 959.425781 L 412 963 L 401 963 Z M 401 959.425781 " clip-rule="nonzero"/>
    </clipPath>
    <clipPath id="1964cc222f">
      <path d="M 408 986 L 414 986 L 414 990.175781 L 408 990.175781 Z M 408 986 " clip-rule="nonzero"/>
    </clipPath>
    <clipPath id="9f82750073">
      <path d="M 400 986 L 406 986 L 406 990.175781 L 400 990.175781 Z M 400 986 " clip-rule="nonzero"/>
    </clipPath>
    <clipPath id="f8a5a189a6">
      <path d="M 393.496094 962 L 400 962 L 400 970 L 393.496094 970 Z M 393.496094 962 " clip-rule="nonzero"/>
    </clipPath>
  </defs>
  <g>
    <g>
      <path fill="#fec4b9" d="M 397.57 970.695 L 397.789 970.66 L 397.551 969.082 L 396.965 969.172 L 396.383 969.262 L 396.617 970.84 L 396.836 970.805 L 397.57 970.691 L 397.57 970.695 Z M 397.57 970.695" fill-opacity="1" fill-rule="nonzero"/>
      <g clip-path="url(#cce000fb45)">
        <path fill="#fec4b9" d="M 414.703125 976.355469 C 414.160156 974.152344 412.777344 972.5 412.777344 972.5 C 412.800781 972.394531 412.816406 972.285156 412.824219 972.171875 C 412.121094 971.292969 411.171875 970.527344 410.097656 969.929688 C 409.800781 969.761719 409.496094 969.605469 409.183594 969.46875 C 409.097656 969.429688 409.011719 969.390625 408.925781 969.351562 C 409.324219 969.054688 409.644531 968.667969 409.898438 968.25 C 409.898438 968.25 410.941406 968.53125 411.273438 967.597656 C 411.605469 966.664062 410.660156 966.316406 410.660156 966.316406 C 412.511719 965.851562 413.730469 965.058594 413.730469 964.152344 C 413.730469 963.460938 413.007812 962.832031 411.835938 962.363281 C 411.832031 960.257812 409.355469 959.429688 406.875 959.429688 C 404.398438 959.429688 401.921875 960.257812 401.921875 962.363281 C 400.746094 962.832031 400.023438 963.460938 400.023438 964.152344 C 400.023438 965.058594 401.246094 965.851562 403.09375 966.316406 C 403.09375 966.316406 402.148438 966.664062 402.480469 967.597656 C 402.816406 968.53125 403.855469 968.25 403.855469 968.25 C 404.109375 968.671875 404.429688 969.054688 404.832031 969.351562 C 404.746094 969.390625 404.65625 969.429688 404.570312 969.46875 C 404.257812 969.605469 403.953125 969.761719 403.652344 969.929688 C 402.585938 970.53125 401.632812 971.292969 400.929688 972.171875 C 400.933594 972.246094 400.945312 972.316406 400.953125 972.386719 C 400.066406 972.792969 399.394531 973.265625 398.941406 973.804688 C 398.695312 973.257812 397.976562 973.386719 397.976562 973.386719 L 397.570312 970.695312 L 396.835938 970.804688 L 397.328125 974.066406 C 397.097656 974.207031 396.960938 974.476562 397.003906 974.765625 L 397.199219 976.058594 C 397.242188 976.34375 397.453125 976.5625 397.710938 976.628906 L 399.6875 989.757812 L 400.421875 989.644531 L 400.410156 989.566406 L 398.429688 976.386719 C 398.433594 976.378906 398.441406 976.367188 398.453125 976.355469 L 398.453125 976.351562 C 398.929688 976.253906 399.269531 976.136719 399.554688 975.632812 C 400.25 975.726562 400.804688 975.5625 401.292969 975.289062 C 401.117188 976.054688 400.996094 976.859375 400.929688 977.707031 L 400.929688 978.597656 C 400.929688 979.507812 400.972656 980.421875 401.058594 981.332031 C 401.203125 982.90625 401.484375 984.480469 401.921875 986.050781 L 402.167969 987.765625 C 402.199219 987.996094 402.046875 988.210938 401.820312 988.25 C 401.503906 988.304688 401.074219 988.445312 400.753906 988.796875 C 400.628906 988.933594 400.539062 989.082031 400.476562 989.222656 C 400.429688 989.335938 400.414062 989.453125 400.425781 989.5625 C 400.457031 989.894531 400.726562 990.171875 401.085938 990.171875 L 404.84375 990.171875 C 405.300781 990.171875 405.671875 989.796875 405.671875 989.328125 L 405.664062 986.050781 C 405.664062 986.050781 405.613281 982.144531 406.875 982.144531 C 408.144531 982.144531 408.09375 986.050781 408.09375 986.050781 L 408.082031 989.328125 C 408.082031 989.796875 408.453125 990.171875 408.910156 990.171875 L 412.667969 990.171875 C 413.148438 990.171875 413.46875 989.671875 413.277344 989.222656 C 413.214844 989.082031 413.125 988.933594 413 988.796875 C 412.679688 988.445312 412.25 988.304688 411.9375 988.25 C 411.710938 988.210938 411.554688 987.996094 411.585938 987.765625 L 411.835938 986.050781 C 412.269531 984.480469 412.550781 982.90625 412.699219 981.332031 C 412.785156 980.421875 412.824219 979.507812 412.824219 978.597656 L 412.828125 978.597656 C 412.828125 978.597656 412.867188 980.089844 413.28125 980.519531 C 413.691406 980.945312 414.023438 980.65625 414.023438 980.65625 C 414 980.707031 413.988281 980.761719 413.988281 980.816406 C 413.988281 980.96875 414.074219 981.113281 414.21875 981.175781 C 414.378906 981.246094 414.566406 981.191406 414.671875 981.046875 C 414.800781 980.867188 414.960938 980.601562 415.054688 980.300781 C 415.226562 979.746094 415.25 978.558594 414.703125 976.355469 Z M 414.703125 976.355469 " fill-opacity="1" fill-rule="nonzero"/>
      </g>
      <path fill="#655f68" d="M 397.551 969.082 L 397.789 970.66 L 397.57 970.695 L 397.57 970.691 L 396.836 970.805 L 396.617 970.84 L 396.383 969.262 L 396.965 969.172 L 397.551 969.082 Z M 397.551 969.082" fill-opacity="1" fill-rule="nonzero"/>
      <path fill="#604533" d="M 397.977 973.387 L 398.082 974.082 C 397.945 973.988 397.773 973.941 397.598 973.969 L 397.574 973.977 C 397.484 973.988 397.398 974.02 397.328 974.066 L 396.836 970.805 L 397.57 970.695 L 397.977 973.387 Z M 397.977 973.387" fill-opacity="1" fill-rule="nonzero"/>
      <path fill="#604533" d="M 400.41 989.566 L 400.422 989.645 L 399.688 989.758 L 397.711 976.629 C 397.797 976.652 397.887 976.656 397.98 976.645 L 398 976.641 C 398.176 976.613 398.324 976.52 398.43 976.387 L 400.41 989.566 Z M 400.41 989.566" fill-opacity="1" fill-rule="nonzero"/>
      <g clip-path="url(#9c73798740)">
        <path fill="#ffc05a" d="M 411.835938 962.363281 C 410.585938 961.867188 408.828125 961.5625 406.875 961.5625 C 404.929688 961.5625 403.167969 961.867188 401.921875 962.363281 C 401.921875 960.257812 404.398438 959.429688 406.875 959.429688 C 409.355469 959.429688 411.832031 960.257812 411.835938 962.363281 Z M 411.835938 962.363281 " fill-opacity="1" fill-rule="nonzero"/>
      </g>
      <path fill="#f9b132" d="M 402.996 965.844 C 403.023 965.996 403.055 966.156 403.094 966.316 C 401.246 965.852 400.023 965.059 400.023 964.152 C 400.023 963.461 400.746 962.832 401.922 962.363 C 403.168 961.867 404.93 961.563 406.875 961.563 C 408.828 961.563 410.586 961.867 411.836 962.363 C 413.008 962.832 413.73 963.461 413.73 964.152 C 413.73 965.059 412.512 965.852 410.66 966.316 C 410.699 966.156 410.734 965.996 410.762 965.844 C 410.93 964.941 410.93 964.246 410.93 964.246 C 410.93 964.246 410.594 963.965 409.844 963.707 C 409.188 963.48 408.215 963.266 406.875 963.266 C 405.539 963.266 404.566 963.48 403.914 963.707 C 403.16 963.965 402.824 964.246 402.824 964.246 C 402.824 964.246 402.824 964.938 402.996 965.844 Z M 402.996 965.844" fill-opacity="1" fill-rule="nonzero"/>
      <path fill="#f7b6ad" d="M 403.855 968.25 C 403.855 968.25 402.816 968.531 402.48 967.598 C 402.148 966.664 403.094 966.316 403.094 966.316 C 403.246 966.949 403.484 967.641 403.855 968.25 Z M 403.855 968.25" fill-opacity="1" fill-rule="nonzero"/>
      <path fill="#f7b6ad" d="M 410.66 966.316 C 410.66 966.316 411.605 966.664 411.273 967.598 C 410.941 968.531 409.898 968.25 409.898 968.25 C 410.273 967.641 410.508 966.949 410.66 966.316 Z M 410.66 966.316" fill-opacity="1" fill-rule="nonzero"/>
      <path fill="#604533" d="M 406.875 966.227 C 407.855 966.227 408.633 967.141 408.363 967.523 C 408.113 967.887 407.508 967.523 407.508 967.523 C 407.508 967.523 407.43 967.996 406.875 967.996 C 406.328 967.996 406.27 967.523 406.27 967.523 C 406.27 967.523 405.645 967.887 405.391 967.523 C 405.125 967.141 405.898 966.227 406.875 966.227 Z M 406.875 966.227" fill-opacity="1" fill-rule="nonzero"/>
      <path fill="#604533" d="M 410.93 964.246 C 410.93 964.246 410.93 964.941 410.762 965.844 C 410.195 965.34 409.91 964.609 409.844 963.707 C 410.594 963.965 410.93 964.246 410.93 964.246 Z M 410.93 964.246" fill-opacity="1" fill-rule="nonzero"/>
      <path fill="#604533" d="M 402.824 964.246 C 402.824 964.246 403.16 963.965 403.914 963.707 C 403.844 964.609 403.559 965.336 402.996 965.844 C 402.824 964.938 402.824 964.246 402.824 964.246 Z M 402.824 964.246" fill-opacity="1" fill-rule="nonzero"/>
      <path fill="#f7b6ad" d="M 399.004 974.016 C 399.145 974.801 398.434 974.941 398.434 974.941 L 398.375 974.551 C 398.348 974.352 398.234 974.188 398.082 974.082 L 397.977 973.387 C 397.977 973.387 398.695 973.258 398.941 973.805 C 398.969 973.867 398.988 973.934 399.004 974.016 Z M 399.004 974.016" fill-opacity="1" fill-rule="nonzero"/>
      <path fill="#ffd7d2" d="M 398.453 976.355 C 398.441 976.367 398.434 976.379 398.43 976.387 C 398.324 976.52 398.176 976.613 398 976.641 L 397.98 976.645 C 397.887 976.656 397.797 976.652 397.711 976.629 C 397.453 976.563 397.242 976.344 397.199 976.059 L 397.004 974.766 C 396.961 974.477 397.098 974.207 397.328 974.066 C 397.398 974.02 397.484 973.988 397.574 973.977 L 397.598 973.969 C 397.773 973.941 397.945 973.988 398.082 974.082 C 398.234 974.188 398.348 974.352 398.375 974.551 L 398.434 974.941 L 398.57 975.848 C 398.598 976.031 398.551 976.211 398.453 976.352 L 398.453 976.355 Z M 398.453 976.355" fill-opacity="1" fill-rule="nonzero"/>
      <g clip-path="url(#1964cc222f)">
        <path fill="#655f68" d="M 413.277344 989.222656 C 413.46875 989.671875 413.148438 990.171875 412.667969 990.171875 L 408.910156 990.171875 C 408.453125 990.171875 408.082031 989.796875 408.082031 989.328125 L 408.09375 986.050781 L 411.835938 986.050781 L 411.585938 987.765625 C 411.554688 987.996094 411.710938 988.210938 411.9375 988.25 C 412.25 988.304688 412.679688 988.445312 413 988.796875 C 413.125 988.933594 413.214844 989.082031 413.277344 989.222656 Z M 413.277344 989.222656 " fill-opacity="1" fill-rule="nonzero"/>
      </g>
    </g>
    <g>
      <path fill="#604533" d="M 412.828 977.707 L 412.828 978.598 L 411.172 978.598 C 411.172 978.297 411.172 978 411.164 977.707 L 412.828 977.707 Z M 412.828 977.707" fill-opacity="1" fill-rule="nonzero"/>
      <path fill="#e15c63" d="M 411.988 973.699 C 412.434 974.914 412.715 976.25 412.824 977.707 L 411.164 977.707 C 411.117 974.895 410.844 972.301 410.098 969.93 C 411.172 970.527 412.121 971.293 412.824 972.172 C 412.816 972.285 412.801 972.395 412.777 972.5 C 412.672 972.969 412.414 973.367 411.988 973.699 Z M 411.988 973.699" fill-opacity="1" fill-rule="nonzero"/>
      <path fill="#087d99" d="M 411.172 978.598 L 412.824 978.598 C 412.824 979.508 412.785 980.422 412.699 981.332 C 411.637 981.191 410.969 980.512 410.598 979.441 C 410.938 979.441 411.211 979.16 411.211 978.816 C 411.211 978.738 411.195 978.664 411.172 978.598 Z M 411.172 978.598" fill-opacity="1" fill-rule="nonzero"/>
      <path fill="#1498b7" d="M 412.699 981.332 C 412.551 982.906 412.27 984.48 411.836 986.051 L 408.094 986.051 C 408.094 986.051 408.145 982.145 406.875 982.145 L 406.875 980.469 L 407.668 979.801 C 407.898 979.605 408.031 979.32 408.031 979.02 L 408.031 978.598 L 410.027 978.598 C 410 978.664 409.988 978.738 409.988 978.816 C 409.988 979.16 410.262 979.441 410.598 979.441 C 410.969 980.512 411.637 981.191 412.699 981.332 Z M 412.699 981.332" fill-opacity="1" fill-rule="nonzero"/>
      <path fill="#a35757" d="M 411.172 978.598 C 411.195 978.664 411.211 978.738 411.211 978.816 C 411.211 979.16 410.938 979.441 410.598 979.441 C 410.262 979.441 409.988 979.16 409.988 978.816 C 409.988 978.738 410 978.664 410.027 978.598 C 410.113 978.359 410.336 978.195 410.598 978.195 C 410.863 978.195 411.086 978.359 411.172 978.598 Z M 411.172 978.598" fill-opacity="1" fill-rule="nonzero"/>
      <path fill="#1ea6bc" d="M 411.164 977.707 C 411.172 978 411.172 978.297 411.172 978.598 C 411.086 978.359 410.863 978.195 410.598 978.195 C 410.336 978.195 410.113 978.359 410.027 978.598 C 410.027 978.301 410.023 978.004 410.02 977.707 C 409.973 974.934 409.707 972.191 409.184 969.469 C 409.496 969.605 409.801 969.762 410.098 969.93 C 410.844 972.301 411.117 974.895 411.164 977.707 Z M 411.164 977.707" fill-opacity="1" fill-rule="nonzero"/>
      <path fill="#604533" d="M 410.027 978.598 L 408.031 978.598 L 408.031 977.707 L 410.02 977.707 C 410.023 978.004 410.027 978.301 410.027 978.598 Z M 410.027 978.598" fill-opacity="1" fill-rule="nonzero"/>
      <path fill="#e15c63" d="M 410.02 977.707 L 403.738 977.707 C 403.785 974.934 404.051 972.191 404.57 969.469 C 404.656 969.43 404.746 969.391 404.832 969.352 C 405 969.48 405.188 969.598 405.391 969.691 C 405.391 969.691 405.391 971.18 406.875 971.18 C 408.363 971.18 408.363 969.691 408.363 969.691 C 408.566 969.598 408.754 969.48 408.926 969.352 C 409.012 969.391 409.098 969.43 409.184 969.469 C 409.707 972.191 409.973 974.934 410.02 977.707 Z M 410.02 977.707" fill-opacity="1" fill-rule="nonzero"/>
      <path fill="#543927" d="M 408.762 965.293 C 408.965 965.293 409.133 965.465 409.133 965.676 C 409.133 965.883 408.965 966.051 408.762 966.051 C 408.555 966.051 408.391 965.883 408.391 965.676 C 408.391 965.465 408.555 965.293 408.762 965.293 Z M 408.762 965.293" fill-opacity="1" fill-rule="nonzero"/>
      <path fill="#604533" d="M 408.031 978.598 L 408.031 979.02 C 408.031 979.32 407.898 979.605 407.668 979.801 L 406.875 980.469 L 406.875 978.598 L 408.031 978.598 Z M 408.031 978.598" fill-opacity="1" fill-rule="nonzero"/>
      <path fill="#ad6a6a" d="M 406.875 977.707 L 408.031 977.707 L 408.031 978.598 L 406.875 978.598 L 406.875 977.707 Z M 406.875 977.707" fill-opacity="1" fill-rule="nonzero"/>
      <path fill="#1498b7" d="M 406.875 980.469 L 406.875 982.145 C 405.613 982.145 405.664 986.051 405.664 986.051 L 401.922 986.051 C 401.484 984.48 401.203 982.906 401.059 981.332 C 402.117 981.191 402.785 980.512 403.156 979.441 C 403.496 979.441 403.77 979.16 403.77 978.816 C 403.77 978.738 403.754 978.664 403.73 978.598 L 406.875 978.598 L 406.875 980.469 Z M 406.875 980.469" fill-opacity="1" fill-rule="nonzero"/>
      <path fill="#604533" d="M 406.875 977.707 L 406.875 978.598 L 403.73 978.598 C 403.73 978.301 403.73 978.004 403.738 977.707 L 406.875 977.707 Z M 406.875 977.707" fill-opacity="1" fill-rule="nonzero"/>
    </g>
    <g>
      <g clip-path="url(#9f82750073)">
        <path fill="#655f68" d="M 405.664062 986.050781 L 405.671875 989.328125 C 405.671875 989.796875 405.300781 990.171875 404.84375 990.171875 L 401.085938 990.171875 C 400.726562 990.171875 400.457031 989.894531 400.425781 989.5625 C 400.414062 989.453125 400.429688 989.335938 400.476562 989.222656 C 400.539062 989.082031 400.628906 988.933594 400.753906 988.796875 C 401.074219 988.445312 401.503906 988.304688 401.820312 988.25 C 402.046875 988.210938 402.199219 987.996094 402.167969 987.765625 L 401.921875 986.050781 Z M 405.664062 986.050781 " fill-opacity="1" fill-rule="nonzero"/>
      </g>
      <path fill="#543927" d="M 404.996 965.293 C 405.199 965.293 405.367 965.465 405.367 965.676 C 405.367 965.883 405.199 966.051 404.996 966.051 C 404.789 966.051 404.625 965.883 404.625 965.676 C 404.625 965.465 404.789 965.293 404.996 965.293 Z M 404.996 965.293" fill-opacity="1" fill-rule="nonzero"/>
      <path fill="#1ea6bc" d="M 404.57 969.469 C 404.051 972.191 403.785 974.934 403.738 977.707 C 403.73 978.004 403.73 978.301 403.73 978.598 C 403.641 978.359 403.422 978.195 403.156 978.195 C 402.895 978.195 402.672 978.359 402.582 978.594 C 402.582 978.297 402.586 978 402.59 977.707 C 402.637 974.898 402.914 972.305 403.652 969.93 C 403.953 969.762 404.258 969.605 404.57 969.469 Z M 404.57 969.469" fill-opacity="1" fill-rule="nonzero"/>
      <path fill="#a35757" d="M 403.73 975.598 C 403.754 975.664 403.77 975.738 403.77 975.816 C 403.77 976.16 403.496 976.441 403.156 976.441 C 402.816 976.441 402.543 976.16 402.543 975.816 C 402.543 975.738 402.555 975.664 402.582 975.598 L 402.582 975.594 C 402.672 975.359 402.895 975.195 403.156 975.195 C 403.422 975.195 403.641 975.359 403.73 975.598 Z M 403.73 975.598" fill-opacity="1" fill-rule="nonzero"/>
      <path fill="#e15c63" d="M 401.766 973.699 C 401.309 973.344 401.043 972.902 400.953 972.387 C 400.945 972.316 400.934 972.246 400.93 972.172 C 401.633 971.293 402.586 970.531 403.652 969.93 C 402.914 972.305 402.637 974.898 402.59 977.707 L 400.93 977.707 C 400.996 976.859 401.117 976.055 401.293 975.289 C 401.422 974.738 401.578 974.207 401.766 973.699 Z M 401.766 973.699" fill-opacity="1" fill-rule="nonzero"/>
      <path fill="#087d99" d="M 402.543 978.816 C 402.543 979.16 402.816 979.441 403.156 979.441 C 402.785 980.512 402.117 981.191 401.059 981.332 C 400.973 980.422 400.93 979.508 400.93 978.598 L 402.582 978.598 C 402.555 978.664 402.543 978.738 402.543 978.816 Z M 402.543 978.816" fill-opacity="1" fill-rule="nonzero"/>
      <path fill="#604533" d="M 400.93 977.707 L 402.59 977.707 C 402.586 978 402.582 978.297 402.582 978.594 L 402.582 978.598 L 400.93 978.598 L 400.93 977.707 Z M 400.93 977.707" fill-opacity="1" fill-rule="nonzero"/>
      <path fill="#d14b62" d="M 412.379 973.316 C 412.27 973.453 412.141 973.582 411.988 973.699 C 411.898 973.457 411.805 973.219 411.699 972.984 C 411.637 972.836 411.738 972.664 411.902 972.664 C 411.98 972.664 412.055 972.711 412.094 972.781 C 412.152 972.891 412.25 973.07 412.379 973.316 Z M 412.379 973.316" fill-opacity="1" fill-rule="nonzero"/>
      <path fill="#f7b6ad" d="M 412.379 973.316 C 413.012 974.531 414.133 977.309 413.281 980.52 C 412.867 980.09 412.828 978.598 412.828 978.598 L 412.828 977.707 L 412.824 977.707 C 412.715 976.25 412.434 974.914 411.988 973.699 C 412.141 973.582 412.27 973.453 412.379 973.316 Z M 412.379 973.316" fill-opacity="1" fill-rule="nonzero"/>
      <path fill="#d14b62" d="M 401.75 972.711 C 401.949 972.711 402.082 972.918 402.004 973.102 C 401.922 973.297 401.84 973.496 401.77 973.699 C 401.613 973.578 401.48 973.449 401.371 973.309 C 401.414 973.148 401.453 973.016 401.484 972.91 C 401.52 972.793 401.629 972.711 401.75 972.711 Z M 401.75 972.711" fill-opacity="1" fill-rule="nonzero"/>
      <path fill="#f7b6ad" d="M 401.371 973.309 C 401.48 973.449 401.609 973.578 401.766 973.699 C 401.578 974.207 401.422 974.738 401.293 975.289 C 400.805 975.563 400.25 975.727 399.555 975.633 C 400.59 975.727 401.109 974.191 401.371 973.309 Z M 401.371 973.309" fill-opacity="1" fill-rule="nonzero"/>
      <path fill="#f7b6ad" d="M 406.875 970.004 C 407.449 970.004 407.941 969.891 408.363 969.691 C 408.363 969.691 408.363 970.063 408.176 970.434 C 406.563 970.957 405.469 970.16 405.469 970.16 C 405.391 969.898 405.391 969.691 405.391 969.691 C 405.813 969.891 406.305 970.004 406.875 970.004 Z M 406.875 970.004" fill-opacity="1" fill-rule="nonzero"/>
      <path fill="#604533" d="M 405.617 964.18 C 405.23 963.938 404.82 963.938 404.434 964.18 C 404.316 964.254 404.281 964.406 404.352 964.523 C 404.422 964.637 404.574 964.676 404.688 964.602 C 404.918 964.461 405.133 964.461 405.363 964.602 C 405.402 964.629 405.445 964.641 405.488 964.641 C 405.57 964.641 405.652 964.598 405.699 964.523 C 405.77 964.406 405.734 964.254 405.617 964.18 Z M 405.617 964.18" fill-opacity="1" fill-rule="nonzero"/>
      <path fill="#604533" d="M 409.324 964.18 C 408.934 963.938 408.523 963.938 408.137 964.18 C 408.023 964.254 407.988 964.406 408.059 964.523 C 408.129 964.637 408.277 964.676 408.395 964.602 C 408.621 964.461 408.836 964.461 409.066 964.602 C 409.105 964.629 409.152 964.641 409.195 964.641 C 409.277 964.641 409.355 964.598 409.402 964.523 C 409.473 964.406 409.438 964.254 409.324 964.18 Z M 409.324 964.18" fill-opacity="1" fill-rule="nonzero"/>
      <path fill="#0d87a3" d="M 406.875 980.504 C 406.742 980.504 406.633 980.613 406.633 980.75 L 406.633 981.449 C 406.633 981.586 406.742 981.695 406.875 981.695 C 407.012 981.695 407.121 981.586 407.121 981.449 L 407.121 980.75 C 407.121 980.613 407.012 980.504 406.875 980.504 Z M 406.875 980.504" fill-opacity="1" fill-rule="nonzero"/>
      <path fill="#f7b6ad" d="M 414.258 979.441 C 414.125 979.438 414.008 979.543 414.004 979.68 C 413.992 979.891 413.957 980.102 413.891 980.309 C 413.848 980.441 413.918 980.578 414.047 980.621 C 414.07 980.629 414.098 980.633 414.121 980.633 C 414.227 980.633 414.32 980.566 414.355 980.461 C 414.434 980.215 414.48 979.957 414.492 979.699 C 414.496 979.563 414.391 979.449 414.258 979.441 Z M 414.258 979.441" fill-opacity="1" fill-rule="nonzero"/>
      <g clip-path="url(#f8a5a189a6)">
        <path fill="#aba9a0" d="M 398.710938 963.132812 C 398.691406 962.996094 398.566406 962.902344 398.433594 962.925781 C 398.300781 962.945312 398.207031 963.070312 398.226562 963.207031 L 398.910156 967.734375 C 398.945312 967.964844 398.886719 968.195312 398.75 968.382812 C 398.664062 968.503906 398.550781 968.59375 398.421875 968.65625 L 397.617188 963.300781 C 397.597656 963.164062 397.472656 963.074219 397.339844 963.09375 C 397.207031 963.113281 397.113281 963.242188 397.132812 963.375 L 397.945312 968.769531 L 397.511719 968.835938 L 397.171875 968.890625 L 396.359375 963.496094 C 396.339844 963.363281 396.214844 963.269531 396.082031 963.289062 C 395.949219 963.308594 395.855469 963.4375 395.878906 963.574219 L 396.6875 968.964844 L 396.34375 969.015625 L 395.914062 969.085938 L 395.101562 963.691406 C 395.082031 963.558594 394.957031 963.464844 394.824219 963.484375 C 394.691406 963.503906 394.601562 963.632812 394.621094 963.769531 L 395.425781 969.121094 C 395.28125 969.101562 395.148438 969.046875 395.03125 968.960938 C 394.84375 968.824219 394.722656 968.617188 394.6875 968.386719 L 394.007812 963.863281 C 393.988281 963.726562 393.859375 963.632812 393.730469 963.652344 C 393.59375 963.675781 393.503906 963.800781 393.523438 963.9375 L 394.207031 968.460938 C 394.261719 968.824219 394.449219 969.144531 394.742188 969.359375 C 394.976562 969.535156 395.253906 969.628906 395.539062 969.628906 C 395.605469 969.628906 395.671875 969.621094 395.742188 969.613281 C 395.742188 969.609375 395.746094 969.613281 395.746094 969.609375 L 396.417969 969.507812 L 397.585938 969.328125 L 398.257812 969.222656 C 398.257812 969.222656 398.257812 969.222656 398.261719 969.222656 C 398.617188 969.167969 398.929688 968.972656 399.144531 968.675781 C 399.359375 968.382812 399.445312 968.019531 399.390625 967.65625 Z M 398.710938 963.132812 " fill-opacity="1" fill-rule="nonzero"/>
      </g>
    </g>
  </g>
</svg>