<?xml version="1.0" encoding="utf-8"?>
<svg viewBox="312.986 691.348 49.252 68.965" xmlns="http://www.w3.org/2000/svg">
  <defs>
    <clipPath id="5c6479b62b">
      <path d="M 320 691.332031 L 362.429688 691.332031 L 362.429688 760.332031 L 320 760.332031 Z M 320 691.332031 " clip-rule="nonzero"/>
    </clipPath>
    <clipPath id="da59cb721c">
      <path d="M 332 691.332031 L 355 691.332031 L 355 698 L 332 698 Z M 332 691.332031 " clip-rule="nonzero"/>
    </clipPath>
    <clipPath id="62a4f896eb">
      <path d="M 346 751 L 359 751 L 359 760.332031 L 346 760.332031 Z M 346 751 " clip-rule="nonzero"/>
    </clipPath>
    <clipPath id="13de4e4ed3">
      <path d="M 328 751 L 341 751 L 341 760.332031 L 328 760.332031 Z M 328 751 " clip-rule="nonzero"/>
    </clipPath>
    <clipPath id="03cc4f54cd">
      <path d="M 312.929688 699 L 327 699 L 327 715 L 312.929688 715 Z M 312.929688 699 " clip-rule="nonzero"/>
    </clipPath>
  </defs>
  <g>
    <path fill="#fec4b9" d="M 322.195 716.621 L 322.695 716.543 L 322.148 713 L 320.824 713.203 L 319.496 713.406 L 320.035 716.949 L 320.527 716.871 L 322.195 716.617 L 322.195 716.621 Z M 322.195 716.621" fill-opacity="1" fill-rule="nonzero"/>
    <g clip-path="url(#5c6479b62b)">
      <path fill="#fec4b9" d="M 361.195312 729.320312 C 359.957031 724.375 356.8125 720.671875 356.8125 720.671875 C 356.863281 720.429688 356.898438 720.1875 356.917969 719.9375 C 355.316406 717.960938 353.148438 716.25 350.710938 714.902344 C 350.035156 714.53125 349.339844 714.179688 348.628906 713.867188 C 348.433594 713.78125 348.238281 713.695312 348.039062 713.613281 L 348.039062 713.605469 C 348.949219 712.941406 349.679688 712.078125 350.257812 711.136719 C 350.257812 711.136719 352.628906 711.765625 353.390625 709.675781 C 354.144531 707.582031 351.988281 706.800781 351.988281 706.800781 C 356.199219 705.757812 358.976562 703.972656 358.976562 701.949219 C 358.976562 700.394531 357.332031 698.980469 354.660156 697.933594 L 354.660156 697.929688 C 354.65625 693.210938 349.023438 691.347656 343.378906 691.347656 C 337.738281 691.347656 332.105469 693.210938 332.101562 697.929688 L 332.101562 697.933594 C 329.429688 698.980469 327.785156 700.394531 327.785156 701.949219 C 327.785156 703.972656 330.5625 705.757812 334.773438 706.800781 C 334.773438 706.800781 332.617188 707.582031 333.371094 709.675781 C 334.132812 711.765625 336.507812 711.136719 336.507812 711.136719 C 337.082031 712.082031 337.8125 712.941406 338.722656 713.613281 C 338.527344 713.695312 338.328125 713.78125 338.132812 713.867188 C 337.417969 714.179688 336.722656 714.53125 336.042969 714.902344 L 336.042969 714.910156 C 333.613281 716.253906 331.445312 717.96875 329.84375 719.9375 C 329.855469 720.097656 329.878906 720.257812 329.898438 720.414062 C 327.878906 721.328125 326.351562 722.390625 325.316406 723.601562 C 324.757812 722.371094 323.121094 722.660156 323.121094 722.660156 L 322.195312 716.621094 L 320.527344 716.871094 L 321.644531 724.1875 C 321.121094 724.496094 320.8125 725.109375 320.90625 725.753906 L 321.351562 728.65625 C 321.449219 729.296875 321.929688 729.785156 322.523438 729.929688 L 327.015625 759.386719 L 328.6875 759.128906 L 328.660156 758.953125 L 324.148438 729.390625 C 324.167969 729.367188 324.183594 729.347656 324.207031 729.320312 L 324.207031 729.3125 C 325.289062 729.089844 326.066406 728.828125 326.710938 727.699219 C 328.300781 727.90625 329.5625 727.542969 330.671875 726.925781 C 330.273438 728.640625 329.996094 730.449219 329.84375 732.351562 L 329.84375 734.347656 C 329.84375 736.394531 329.9375 738.441406 330.132812 740.480469 C 330.46875 744.011719 331.105469 747.542969 332.101562 751.070312 L 332.660156 754.914062 C 332.734375 755.429688 332.382812 755.910156 331.867188 756 C 331.148438 756.125 330.171875 756.441406 329.445312 757.226562 C 329.160156 757.539062 328.957031 757.867188 328.816406 758.183594 C 328.707031 758.441406 328.671875 758.703125 328.695312 758.945312 C 328.773438 759.6875 329.382812 760.3125 330.199219 760.3125 L 338.757812 760.3125 C 339.792969 760.3125 340.640625 759.46875 340.640625 758.421875 L 340.617188 751.070312 C 340.617188 751.070312 340.5 742.304688 343.378906 742.304688 C 346.261719 742.304688 346.144531 751.070312 346.144531 751.070312 L 346.121094 758.421875 C 346.121094 759.46875 346.96875 760.3125 348.007812 760.3125 L 356.5625 760.3125 C 357.65625 760.3125 358.382812 759.191406 357.945312 758.183594 C 357.804688 757.867188 357.601562 757.539062 357.316406 757.226562 C 356.589844 756.441406 355.613281 756.125 354.894531 756 C 354.378906 755.910156 354.023438 755.429688 354.101562 754.914062 L 354.660156 751.070312 C 355.65625 747.542969 356.292969 744.011719 356.628906 740.480469 C 356.824219 738.441406 356.917969 736.394531 356.917969 734.347656 L 356.921875 734.347656 C 356.921875 734.347656 357.011719 737.695312 357.949219 738.65625 C 358.882812 739.621094 359.640625 738.964844 359.640625 738.964844 C 359.589844 739.078125 359.5625 739.207031 359.5625 739.328125 C 359.5625 739.667969 359.757812 739.992188 360.089844 740.132812 C 360.457031 740.285156 360.882812 740.167969 361.121094 739.839844 C 361.410156 739.441406 361.777344 738.847656 361.988281 738.171875 C 362.382812 736.925781 362.433594 734.261719 361.195312 729.320312 Z M 361.195312 729.320312 " fill-opacity="1" fill-rule="nonzero"/>
    </g>
    <path fill="#655f68" d="M 322.148 713 L 322.695 716.543 L 322.195 716.621 L 322.195 716.617 L 320.527 716.871 L 320.035 716.949 L 319.496 713.406 L 320.824 713.203 L 322.148 713 Z M 322.148 713" fill-opacity="1" fill-rule="nonzero"/>
    <path fill="#604533" d="M 323.121 722.66 L 323.363 724.219 C 323.051 724.008 322.66 723.906 322.262 723.969 L 322.211 723.98 C 322.008 724.012 321.812 724.078 321.645 724.188 L 320.527 716.871 L 322.195 716.621 L 323.121 722.66 Z M 323.121 722.66" fill-opacity="1" fill-rule="nonzero"/>
    <path fill="#604533" d="M 328.66 758.953 L 328.687 759.129 L 327.016 759.387 L 322.523 729.93 C 322.711 729.988 322.918 729.996 323.129 729.965 L 323.172 729.957 C 323.574 729.898 323.91 729.688 324.148 729.391 L 328.66 758.953 Z M 328.66 758.953" fill-opacity="1" fill-rule="nonzero"/>
    <g clip-path="url(#da59cb721c)">
      <path fill="#ffc05a" d="M 354.660156 697.929688 C 351.816406 696.820312 347.816406 696.132812 343.378906 696.132812 C 338.945312 696.132812 334.9375 696.820312 332.101562 697.929688 C 332.105469 693.210938 337.738281 691.347656 343.378906 691.347656 C 349.023438 691.347656 354.65625 693.210938 354.660156 697.929688 Z M 354.660156 697.929688 " fill-opacity="1" fill-rule="nonzero"/>
    </g>
    <path fill="#f9b132" d="M 334.543 705.738 C 334.605 706.082 334.684 706.438 334.773 706.801 C 330.562 705.758 327.785 703.973 327.785 701.949 C 327.785 700.395 329.43 698.98 332.102 697.934 L 332.102 697.93 C 334.937 696.82 338.945 696.133 343.379 696.133 C 347.816 696.133 351.816 696.82 354.66 697.93 L 354.66 697.934 C 357.332 698.98 358.977 700.395 358.977 701.949 C 358.977 703.973 356.199 705.758 351.988 706.801 C 352.078 706.438 352.156 706.082 352.219 705.742 C 352.605 703.715 352.605 702.156 352.605 702.156 C 352.605 702.156 351.84 701.527 350.129 700.941 C 348.633 700.438 346.422 699.957 343.379 699.957 C 340.332 699.957 338.121 700.438 336.633 700.941 C 334.922 701.527 334.156 702.156 334.156 702.156 C 334.156 702.156 334.156 703.707 334.543 705.738 Z M 334.543 705.738" fill-opacity="1" fill-rule="nonzero"/>
    <path fill="#f7b6ad" d="M 336.508 711.137 C 336.508 711.137 334.133 711.766 333.371 709.676 C 332.617 707.582 334.773 706.801 334.773 706.801 C 335.117 708.223 335.656 709.77 336.508 711.137 Z M 336.508 711.137" fill-opacity="1" fill-rule="nonzero"/>
    <path fill="#f7b6ad" d="M 351.988 706.801 C 351.988 706.801 354.145 707.582 353.391 709.676 C 352.629 711.766 350.258 711.137 350.258 711.137 C 351.105 709.77 351.645 708.223 351.988 706.801 Z M 351.988 706.801" fill-opacity="1" fill-rule="nonzero"/>
    <path fill="#604533" d="M 343.379 706.598 C 345.605 706.598 347.371 708.645 346.762 709.508 C 346.187 710.32 344.816 709.508 344.816 709.508 C 344.816 709.508 344.633 710.566 343.379 710.566 C 342.129 710.566 342 709.508 342 709.508 C 342 709.508 340.574 710.32 339.996 709.508 C 339.391 708.645 341.156 706.598 343.379 706.598 Z M 343.379 706.598" fill-opacity="1" fill-rule="nonzero"/>
    <path fill="#604533" d="M 352.605 702.156 C 352.605 702.156 352.605 703.715 352.219 705.742 C 350.934 704.609 350.285 702.973 350.129 700.941 C 351.84 701.527 352.605 702.156 352.605 702.156 Z M 352.605 702.156" fill-opacity="1" fill-rule="nonzero"/>
    <path fill="#604533" d="M 334.156 702.156 C 334.156 702.156 334.922 701.527 336.633 700.941 C 336.477 702.969 335.828 704.602 334.543 705.738 C 334.156 703.707 334.156 702.156 334.156 702.156 Z M 334.156 702.156" fill-opacity="1" fill-rule="nonzero"/>
    <path fill="#f7b6ad" d="M 325.461 724.07 C 325.785 725.832 324.168 726.145 324.168 726.145 L 324.035 725.277 C 323.969 724.824 323.711 724.453 323.363 724.219 L 323.121 722.66 C 323.121 722.66 324.758 722.371 325.316 723.602 C 325.379 723.734 325.43 723.891 325.461 724.07 Z M 325.461 724.07" fill-opacity="1" fill-rule="nonzero"/>
    <path fill="#ffd7d2" d="M 324.207 729.32 C 324.184 729.348 324.168 729.367 324.148 729.391 C 323.91 729.688 323.574 729.898 323.172 729.957 L 323.129 729.965 C 322.918 729.996 322.711 729.988 322.523 729.93 C 321.93 729.785 321.449 729.297 321.352 728.656 L 320.906 725.754 C 320.812 725.109 321.121 724.496 321.645 724.188 C 321.812 724.078 322.008 724.012 322.211 723.98 L 322.262 723.969 C 322.66 723.906 323.051 724.008 323.363 724.219 C 323.711 724.453 323.969 724.824 324.035 725.277 L 324.168 726.145 L 324.477 728.18 C 324.539 728.598 324.434 728.996 324.207 729.313 L 324.207 729.32 Z M 324.207 729.32" fill-opacity="1" fill-rule="nonzero"/>
    <g clip-path="url(#62a4f896eb)">
      <path fill="#655f68" d="M 357.945312 758.183594 C 358.382812 759.191406 357.65625 760.3125 356.5625 760.3125 L 348.007812 760.3125 C 346.96875 760.3125 346.121094 759.46875 346.121094 758.421875 L 346.144531 751.070312 L 354.660156 751.070312 L 354.101562 754.914062 C 354.023438 755.429688 354.378906 755.910156 354.894531 756 C 355.613281 756.125 356.589844 756.441406 357.316406 757.226562 C 357.601562 757.539062 357.804688 757.867188 357.945312 758.183594 Z M 357.945312 758.183594 " fill-opacity="1" fill-rule="nonzero"/>
    </g>
    <path fill="#604533" d="M 356.922 732.352 L 356.922 734.348 L 353.156 734.348 C 353.156 733.672 353.148 733.012 353.141 732.352 L 356.922 732.352 Z M 356.922 732.352" fill-opacity="1" fill-rule="nonzero"/>
    <path fill="#e15c63" d="M 355.012 723.363 C 356.027 726.086 356.66 729.086 356.918 732.352 L 353.141 732.352 C 353.035 726.043 352.406 720.227 350.711 714.902 C 353.148 716.25 355.316 717.961 356.918 719.938 C 356.898 720.188 356.863 720.43 356.812 720.672 C 356.566 721.723 355.977 722.617 355.012 723.363 Z M 355.012 723.363" fill-opacity="1" fill-rule="nonzero"/>
    <path fill="#087d99" d="M 353.156 734.348 L 356.918 734.348 C 356.918 736.395 356.824 738.441 356.629 740.48 C 354.211 740.164 352.695 738.645 351.852 736.238 C 352.621 736.238 353.246 735.613 353.246 734.84 C 353.246 734.664 353.211 734.496 353.156 734.348 Z M 353.156 734.348" fill-opacity="1" fill-rule="nonzero"/>
    <path fill="#1498b7" d="M 356.629 740.48 C 356.293 744.012 355.656 747.543 354.66 751.07 L 346.145 751.07 C 346.145 751.07 346.262 742.305 343.379 742.305 L 343.379 738.547 L 345.184 737.043 C 345.707 736.609 346.008 735.973 346.008 735.293 L 346.008 734.348 L 350.543 734.348 C 350.488 734.496 350.457 734.664 350.457 734.84 C 350.457 735.613 351.078 736.238 351.852 736.238 C 352.695 738.645 354.211 740.164 356.629 740.48 Z M 356.629 740.48" fill-opacity="1" fill-rule="nonzero"/>
    <path fill="#a35757" d="M 353.156 734.348 C 353.211 734.496 353.246 734.664 353.246 734.84 C 353.246 735.613 352.621 736.238 351.852 736.238 C 351.078 736.238 350.457 735.613 350.457 734.84 C 350.457 734.664 350.488 734.496 350.543 734.348 C 350.746 733.82 351.25 733.445 351.852 733.445 C 352.449 733.445 352.957 733.82 353.156 734.348 Z M 353.156 734.348" fill-opacity="1" fill-rule="nonzero"/>
    <path fill="#1ea6bc" d="M 353.141 732.352 C 353.148 733.012 353.156 733.672 353.156 734.348 C 352.957 733.82 352.449 733.445 351.852 733.445 C 351.25 733.445 350.746 733.82 350.543 734.348 C 350.543 733.68 350.539 733.016 350.527 732.352 C 350.422 726.125 349.816 719.98 348.629 713.867 C 349.34 714.18 350.035 714.531 350.711 714.902 C 352.406 720.227 353.035 726.043 353.141 732.352 Z M 353.141 732.352" fill-opacity="1" fill-rule="nonzero"/>
    <path fill="#604533" d="M 350.543 734.348 L 346.008 734.348 L 346.008 732.352 L 350.527 732.352 C 350.539 733.016 350.543 733.68 350.543 734.348 Z M 350.543 734.348" fill-opacity="1" fill-rule="nonzero"/>
    <path fill="#e15c63" d="M 350.527 732.352 L 336.234 732.352 C 336.34 726.125 336.945 719.98 338.133 713.867 C 338.328 713.781 338.527 713.695 338.723 713.613 C 339.113 713.902 339.535 714.156 339.996 714.371 C 339.996 714.371 339.996 717.707 343.379 717.707 C 346.762 717.707 346.762 714.371 346.762 714.371 C 347.223 714.156 347.648 713.902 348.039 713.605 L 348.039 713.613 C 348.238 713.695 348.434 713.781 348.629 713.867 C 349.816 719.98 350.422 726.125 350.527 732.352 Z M 350.527 732.352" fill-opacity="1" fill-rule="nonzero"/>
    <path fill="#543927" d="M 347.668 704.508 C 348.133 704.508 348.512 704.891 348.512 705.359 C 348.512 705.828 348.133 706.203 347.668 706.203 C 347.199 706.203 346.824 705.828 346.824 705.359 C 346.824 704.891 347.199 704.508 347.668 704.508 Z M 347.668 704.508" fill-opacity="1" fill-rule="nonzero"/>
    <path fill="#604533" d="M 346.008 734.348 L 346.008 735.293 C 346.008 735.973 345.707 736.609 345.184 737.043 L 343.379 738.547 L 343.379 734.348 L 346.008 734.348 Z M 346.008 734.348" fill-opacity="1" fill-rule="nonzero"/>
    <path fill="#ad6a6a" d="M 343.379 732.352 L 346.008 732.352 L 346.008 734.348 L 343.379 734.348 L 343.379 732.352 Z M 343.379 732.352" fill-opacity="1" fill-rule="nonzero"/>
    <path fill="#1498b7" d="M 343.379 738.547 L 343.379 742.305 C 340.5 742.305 340.617 751.07 340.617 751.07 L 332.102 751.07 C 331.105 747.543 330.469 744.012 330.133 740.48 C 332.551 740.164 334.066 738.645 334.91 736.238 C 335.684 736.238 336.305 735.613 336.305 734.84 C 336.305 734.664 336.273 734.496 336.219 734.348 L 343.379 734.348 L 343.379 738.547 Z M 343.379 738.547" fill-opacity="1" fill-rule="nonzero"/>
    <path fill="#604533" d="M 343.379 732.352 L 343.379 734.348 L 336.219 734.348 C 336.219 733.68 336.223 733.016 336.234 732.352 L 343.379 732.352 Z M 343.379 732.352" fill-opacity="1" fill-rule="nonzero"/>
    <g clip-path="url(#13de4e4ed3)">
      <path fill="#655f68" d="M 340.617188 751.070312 L 340.640625 758.421875 C 340.640625 759.46875 339.792969 760.3125 338.757812 760.3125 L 330.199219 760.3125 C 329.382812 760.3125 328.773438 759.6875 328.695312 758.945312 C 328.671875 758.703125 328.707031 758.441406 328.816406 758.183594 C 328.957031 757.867188 329.160156 757.539062 329.445312 757.226562 C 330.171875 756.441406 331.148438 756.125 331.867188 756 C 332.382812 755.910156 332.734375 755.429688 332.660156 754.914062 L 332.101562 751.070312 Z M 340.617188 751.070312 " fill-opacity="1" fill-rule="nonzero"/>
    </g>
    <path fill="#543927" d="M 339.094 704.508 C 339.562 704.508 339.937 704.891 339.937 705.359 C 339.937 705.828 339.562 706.203 339.094 706.203 C 338.629 706.203 338.25 705.828 338.25 705.359 C 338.25 704.891 338.629 704.508 339.094 704.508 Z M 339.094 704.508" fill-opacity="1" fill-rule="nonzero"/>
    <path fill="#1ea6bc" d="M 338.133 713.867 C 336.945 719.98 336.34 726.125 336.234 732.352 C 336.223 733.016 336.219 733.68 336.219 734.348 C 336.016 733.82 335.512 733.445 334.91 733.445 C 334.316 733.445 333.805 733.82 333.605 734.34 C 333.605 733.672 333.613 733.008 333.621 732.352 C 333.727 726.047 334.355 720.23 336.043 714.91 L 336.043 714.902 C 336.723 714.531 337.418 714.18 338.133 713.867 Z M 338.133 713.867" fill-opacity="1" fill-rule="nonzero"/>
    <path fill="#a35757" d="M 336.219 734.348 C 336.273 734.496 336.305 734.664 336.305 734.84 C 336.305 735.613 335.684 736.238 334.91 736.238 C 334.141 736.238 333.512 735.613 333.512 734.84 C 333.512 734.664 333.543 734.496 333.602 734.348 L 333.605 734.348 L 333.605 734.34 C 333.805 733.82 334.316 733.445 334.91 733.445 C 335.512 733.445 336.016 733.82 336.219 734.348 Z M 336.219 734.348" fill-opacity="1" fill-rule="nonzero"/>
    <path fill="#e15c63" d="M 331.75 723.363 C 330.707 722.563 330.102 721.578 329.898 720.414 C 329.879 720.258 329.855 720.098 329.844 719.938 C 331.445 717.969 333.613 716.254 336.043 714.91 C 334.355 720.23 333.727 726.047 333.621 732.352 L 329.844 732.352 C 329.996 730.449 330.273 728.641 330.672 726.926 C 330.969 725.691 331.324 724.504 331.75 723.363 Z M 331.75 723.363" fill-opacity="1" fill-rule="nonzero"/>
    <path fill="#087d99" d="M 333.512 734.84 C 333.512 735.613 334.141 736.238 334.91 736.238 C 334.066 738.645 332.551 740.164 330.133 740.48 C 329.937 738.441 329.844 736.395 329.844 734.348 L 333.602 734.348 C 333.543 734.496 333.512 734.664 333.512 734.84 Z M 333.512 734.84" fill-opacity="1" fill-rule="nonzero"/>
    <path fill="#604533" d="M 329.844 732.352 L 333.621 732.352 C 333.613 733.008 333.605 733.672 333.605 734.34 L 333.605 734.348 L 329.844 734.348 L 329.844 732.352 Z M 329.844 732.352" fill-opacity="1" fill-rule="nonzero"/>
    <path fill="#d14b62" d="M 355.898 722.508 C 355.656 722.813 355.355 723.094 355.012 723.363 C 354.809 722.816 354.59 722.281 354.359 721.758 C 354.211 721.422 354.445 721.043 354.812 721.043 C 354.996 721.043 355.164 721.141 355.254 721.301 C 355.387 721.543 355.609 721.953 355.898 722.508 Z M 355.898 722.508" fill-opacity="1" fill-rule="nonzero"/>
    <path fill="#f7b6ad" d="M 355.898 722.508 C 357.34 725.23 359.895 731.461 357.949 738.656 C 357.012 737.695 356.922 734.348 356.922 734.348 L 356.922 732.352 L 356.918 732.352 C 356.66 729.086 356.027 726.086 355.012 723.363 C 355.355 723.094 355.656 722.813 355.898 722.508 Z M 355.898 722.508" fill-opacity="1" fill-rule="nonzero"/>
    <path fill="#d14b62" d="M 331.711 721.145 C 332.16 721.145 332.469 721.605 332.289 722.02 C 332.098 722.461 331.918 722.906 331.75 723.363 C 331.395 723.09 331.094 722.801 330.844 722.484 C 330.949 722.129 331.035 721.824 331.105 721.594 C 331.187 721.324 331.434 721.145 331.711 721.145 Z M 331.711 721.145" fill-opacity="1" fill-rule="nonzero"/>
    <path fill="#f7b6ad" d="M 330.844 722.484 C 331.094 722.801 331.395 723.09 331.75 723.363 C 331.324 724.504 330.969 725.691 330.672 726.926 C 329.562 727.543 328.301 727.906 326.711 727.699 C 329.074 727.91 330.258 724.465 330.844 722.484 Z M 330.844 722.484" fill-opacity="1" fill-rule="nonzero"/>
    <path fill="#f7b6ad" d="M 343.379 715.07 C 344.68 715.07 345.801 714.813 346.762 714.371 C 346.762 714.371 346.762 715.203 346.34 716.039 C 342.668 717.207 340.172 715.426 340.172 715.426 C 339.996 714.836 339.996 714.371 339.996 714.371 C 340.957 714.813 342.074 715.07 343.379 715.07 Z M 343.379 715.07" fill-opacity="1" fill-rule="nonzero"/>
    <path fill="#604533" d="M 340.516 702.012 C 339.633 701.469 338.699 701.469 337.816 702.012 C 337.555 702.172 337.473 702.512 337.633 702.773 C 337.793 703.035 338.133 703.117 338.395 702.957 C 338.918 702.637 339.406 702.637 339.93 702.957 C 340.023 703.016 340.121 703.039 340.223 703.039 C 340.406 703.039 340.59 702.945 340.695 702.773 C 340.855 702.512 340.773 702.172 340.516 702.012 Z M 340.516 702.012" fill-opacity="1" fill-rule="nonzero"/>
    <path fill="#604533" d="M 348.945 702.012 C 348.062 701.469 347.129 701.469 346.25 702.012 C 345.988 702.172 345.906 702.512 346.066 702.773 C 346.227 703.035 346.566 703.117 346.828 702.957 C 347.352 702.637 347.84 702.637 348.363 702.957 C 348.457 703.016 348.555 703.039 348.652 703.039 C 348.84 703.039 349.023 702.945 349.129 702.773 C 349.289 702.512 349.207 702.172 348.945 702.012 Z M 348.945 702.012" fill-opacity="1" fill-rule="nonzero"/>
    <path fill="#0d87a3" d="M 343.379 738.625 C 343.07 738.625 342.824 738.875 342.824 739.18 L 342.824 740.742 C 342.824 741.051 343.07 741.301 343.379 741.301 C 343.684 741.301 343.934 741.051 343.934 740.742 L 343.934 739.18 C 343.934 738.875 343.684 738.625 343.379 738.625 Z M 343.379 738.625" fill-opacity="1" fill-rule="nonzero"/>
    <path fill="#f7b6ad" d="M 360.176 736.242 C 359.875 736.238 359.609 736.469 359.594 736.773 C 359.574 737.25 359.488 737.727 359.34 738.188 C 359.246 738.48 359.406 738.793 359.695 738.891 C 359.754 738.906 359.812 738.918 359.867 738.918 C 360.102 738.918 360.32 738.766 360.395 738.531 C 360.578 737.973 360.68 737.398 360.707 736.824 C 360.719 736.516 360.48 736.258 360.176 736.242 Z M 360.176 736.242" fill-opacity="1" fill-rule="nonzero"/>
    <g clip-path="url(#03cc4f54cd)">
      <path fill="#aba9a0" d="M 324.792969 699.65625 C 324.746094 699.355469 324.460938 699.144531 324.160156 699.191406 C 323.859375 699.238281 323.648438 699.523438 323.695312 699.824219 L 325.246094 709.976562 C 325.324219 710.496094 325.199219 711.011719 324.886719 711.4375 C 324.691406 711.707031 324.429688 711.90625 324.136719 712.046875 L 322.304688 700.035156 C 322.257812 699.734375 321.976562 699.527344 321.671875 699.570312 C 321.367188 699.617188 321.160156 699.902344 321.207031 700.203125 L 323.050781 712.300781 L 322.066406 712.453125 L 321.289062 712.570312 L 319.445312 700.476562 C 319.398438 700.171875 319.113281 699.964844 318.808594 700.011719 C 318.507812 700.058594 318.296875 700.339844 318.34375 700.644531 L 320.1875 712.738281 L 319.410156 712.859375 L 318.425781 713.007812 L 316.582031 700.914062 C 316.535156 700.609375 316.253906 700.40625 315.949219 700.449219 C 315.644531 700.496094 315.4375 700.777344 315.484375 701.082031 L 317.316406 713.085938 C 316.992188 713.042969 316.683594 712.929688 316.417969 712.730469 C 315.996094 712.421875 315.71875 711.964844 315.636719 711.441406 L 314.089844 701.292969 C 314.042969 700.988281 313.753906 700.78125 313.457031 700.828125 C 313.152344 700.875 312.945312 701.15625 312.992188 701.460938 L 314.539062 711.609375 C 314.664062 712.425781 315.097656 713.140625 315.757812 713.628906 C 316.292969 714.019531 316.921875 714.226562 317.574219 714.226562 C 317.726562 714.226562 317.882812 714.214844 318.039062 714.191406 C 318.039062 714.191406 318.042969 714.191406 318.046875 714.191406 L 319.578125 713.957031 L 322.230469 713.550781 C 322.230469 713.550781 322.234375 713.550781 322.234375 713.550781 L 323.765625 713.316406 C 323.765625 713.316406 323.769531 713.316406 323.769531 713.316406 C 324.582031 713.191406 325.296875 712.757812 325.78125 712.09375 C 326.269531 711.433594 326.46875 710.621094 326.34375 709.808594 Z M 324.792969 699.65625 " fill-opacity="1" fill-rule="nonzero"/>
    </g>
  </g>
</svg>