<?xml version="1.0" encoding="utf-8"?>
<svg viewBox="574.637 815.145 47.195 68.84" xmlns="http://www.w3.org/2000/svg">
  <defs>
    <clipPath id="ea3f1b02af">
      <path d="M 575 815.0625 L 621.832031 815.0625 L 621.832031 884 L 575 884 Z M 575 815.0625 " clip-rule="nonzero"/>
    </clipPath>
    <clipPath id="87309b7176">
      <path d="M 610 821 L 621.832031 821 L 621.832031 854 L 610 854 Z M 610 821 " clip-rule="nonzero"/>
    </clipPath>
    <clipPath id="f459cf2d99">
      <path d="M 581 815.0625 L 607 815.0625 L 607 819 L 581 819 Z M 581 815.0625 " clip-rule="nonzero"/>
    </clipPath>
    <clipPath id="7962a7cda5">
      <path d="M 574.582031 815.0625 L 621.832031 815.0625 L 621.832031 884 L 574.582031 884 Z M 574.582031 815.0625 " clip-rule="nonzero"/>
    </clipPath>
  </defs>
  <g>
    <g clip-path="url(#ea3f1b02af)">
      <path fill="#c2e6f9" d="M 617.875 821.652344 L 611.097656 821.652344 L 609.894531 818.941406 L 606.097656 818.941406 L 605.011719 815.691406 L 582.238281 815.691406 L 581.148438 818.941406 L 577.351562 818.941406 L 575.183594 823.820312 L 576.808594 823.820312 L 578.984375 864.46875 L 582.238281 866.636719 L 582.238281 869.347656 C 580.644531 869.347656 579.273438 870.441406 578.910156 871.984375 L 576.273438 883.4375 L 610.976562 883.4375 L 608.335938 871.984375 C 607.972656 870.441406 606.601562 869.347656 605.011719 869.347656 L 605.011719 866.636719 L 608.265625 864.46875 L 610.085938 830.339844 C 610.085938 830.339844 610.085938 830.339844 610.09375 830.332031 C 610.21875 830.152344 611.273438 828.75 613.148438 828.699219 C 615.15625 828.644531 616.304688 830.191406 616.402344 830.320312 L 616.402344 848.75 L 618.570312 850.679688 L 621.28125 853.089844 L 621.28125 825.058594 C 621.28125 823.175781 619.757812 821.652344 617.875 821.652344 Z M 617.875 821.652344 " fill-opacity="1" fill-rule="nonzero"/>
    </g>
    <path fill="#d2d2d1" d="M 591.457 863.387 L 591 866.098 C 590.102 866.008 588.328 865.707 586.57 864.469 C 585.535 863.734 584.844 862.918 584.406 862.301 C 584.902 862.496 585.445 862.684 586.027 862.84 C 588.102 863.414 589.98 863.48 591.457 863.387 Z M 591.457 863.387" fill-opacity="1" fill-rule="nonzero"/>
    <path fill="#d2d2d1" d="M 601.219 862.84 C 601.801 862.684 602.344 862.496 602.844 862.301 C 602.406 862.918 601.715 863.734 600.676 864.469 C 598.918 865.707 597.148 866.008 596.246 866.098 L 595.793 863.387 C 597.27 863.48 599.145 863.414 601.219 862.84 Z M 601.219 862.84" fill-opacity="1" fill-rule="nonzero"/>
    <path fill="#b6b6b7" d="M 596.246 866.098 L 596.336 866.637 L 590.914 866.637 L 591 866.098 L 591.457 863.387 L 595.793 863.387 L 596.246 866.098 Z M 596.246 866.098" fill-opacity="1" fill-rule="nonzero"/>
    <path fill="#9c9d9c" d="M 593.625 861.219 C 594.82 861.219 595.793 862.184 595.793 863.387 L 591.457 863.387 C 591.457 862.184 592.426 861.219 593.625 861.219 Z M 593.625 861.219" fill-opacity="1" fill-rule="nonzero"/>
    <path fill="#2e6977" d="M 601.219 873.141 C 603.316 873.141 605.012 874.84 605.012 876.938 C 605.012 879.027 603.316 880.727 601.219 880.727 C 599.117 880.727 597.422 879.027 597.422 876.938 C 597.422 874.84 599.117 873.141 601.219 873.141 Z M 601.219 873.141" fill-opacity="1" fill-rule="nonzero"/>
    <path fill="#2e6977" d="M 587.117 874.766 C 588.313 874.766 589.281 875.734 589.281 876.938 C 589.281 878.133 588.313 879.102 587.117 879.102 C 585.918 879.102 584.949 878.133 584.949 876.938 C 584.949 875.734 585.918 874.766 587.117 874.766 Z M 587.117 874.766" fill-opacity="1" fill-rule="nonzero"/>
    <path fill="#e15c63" d="M 608.336 871.984 L 610.977 883.438 L 576.273 883.438 L 578.91 871.984 C 579.273 870.441 580.645 869.348 582.238 869.348 L 605.012 869.348 C 606.602 869.348 607.973 870.441 608.336 871.984 Z M 605.012 876.938 C 605.012 874.84 603.316 873.141 601.219 873.141 C 599.117 873.141 597.422 874.84 597.422 876.938 C 597.422 879.027 599.117 880.727 601.219 880.727 C 603.316 880.727 605.012 879.027 605.012 876.938 Z M 589.281 876.938 C 589.281 875.734 588.313 874.766 587.117 874.766 C 585.918 874.766 584.949 875.734 584.949 876.938 C 584.949 878.133 585.918 879.102 587.117 879.102 C 588.313 879.102 589.281 878.133 589.281 876.938 Z M 589.281 876.938" fill-opacity="1" fill-rule="nonzero"/>
    <path fill="#93b2b8" d="M 618.57 827.656 L 618.57 850.68 L 616.402 848.75 L 616.402 830.32 C 616.305 830.191 615.156 828.645 613.148 828.699 C 611.273 828.75 610.219 830.152 610.094 830.332 L 610.262 827.07 C 610.531 826.805 611.98 825.414 614.23 825.449 C 616.859 825.48 618.387 827.41 618.57 827.656 Z M 618.57 827.656" fill-opacity="1" fill-rule="nonzero"/>
    <g clip-path="url(#87309b7176)">
      <path fill="#e15c63" d="M 621.28125 825.058594 L 621.28125 853.089844 L 618.570312 850.679688 L 618.570312 827.65625 C 618.386719 827.410156 616.859375 825.480469 614.230469 825.449219 C 611.980469 825.414062 610.53125 826.804688 610.261719 827.070312 L 610.4375 823.820312 L 612.0625 823.820312 L 611.097656 821.652344 L 617.875 821.652344 C 619.757812 821.652344 621.28125 823.175781 621.28125 825.058594 Z M 621.28125 825.058594 " fill-opacity="1" fill-rule="nonzero"/>
    </g>
    <g clip-path="url(#f459cf2d99)">
      <path fill="#e15c63" d="M 605.011719 815.691406 L 606.097656 818.941406 L 581.148438 818.941406 L 582.238281 815.691406 Z M 605.011719 815.691406 " fill-opacity="1" fill-rule="nonzero"/>
    </g>
    <path fill="#4d727a" d="M 582.238 866.637 L 605.012 866.637 L 605.012 869.348 L 582.238 869.348 L 582.238 866.637 Z M 582.238 866.637" fill-opacity="1" fill-rule="nonzero"/>
    <path fill="#4d727a" d="M 611.098 821.652 L 612.063 823.82 L 575.184 823.82 L 577.352 818.941 L 609.895 818.941 L 611.098 821.652 Z M 611.098 821.652" fill-opacity="1" fill-rule="nonzero"/>
    <g clip-path="url(#7962a7cda5)">
      <path fill="#3a322b" d="M 621.816406 853.164062 C 621.820312 853.140625 621.832031 853.113281 621.832031 853.085938 L 621.832031 825.058594 C 621.832031 822.878906 620.054688 821.105469 617.871094 821.105469 L 611.457031 821.105469 L 610.394531 818.722656 C 610.308594 818.523438 610.109375 818.394531 609.894531 818.394531 L 606.492188 818.394531 L 605.53125 815.519531 C 605.457031 815.292969 605.25 815.144531 605.011719 815.144531 L 582.234375 815.144531 C 582 815.144531 581.789062 815.292969 581.714844 815.519531 L 580.753906 818.394531 L 577.355469 818.394531 C 577.136719 818.394531 576.941406 818.523438 576.851562 818.722656 L 574.683594 823.597656 C 574.609375 823.765625 574.625 823.964844 574.726562 824.117188 C 574.824219 824.273438 575 824.367188 575.183594 824.367188 L 576.292969 824.367188 L 578.433594 864.496094 C 578.441406 864.667969 578.53125 864.828125 578.675781 864.921875 L 581.6875 866.929688 L 581.6875 868.847656 C 580.078125 869.066406 578.753906 870.242188 578.378906 871.863281 L 575.734375 883.316406 C 575.699219 883.476562 575.734375 883.648438 575.839844 883.777344 C 575.945312 883.90625 576.101562 883.984375 576.269531 883.984375 L 610.980469 883.984375 C 611.144531 883.984375 611.304688 883.90625 611.40625 883.777344 C 611.511719 883.648438 611.550781 883.476562 611.511719 883.316406 L 608.867188 871.863281 C 608.496094 870.242188 607.171875 869.066406 605.5625 868.847656 L 605.5625 866.929688 L 608.570312 864.921875 C 608.714844 864.828125 608.804688 864.667969 608.8125 864.496094 L 610.625 830.535156 C 610.90625 830.191406 611.773438 829.28125 613.160156 829.246094 C 614.597656 829.21875 615.550781 830.15625 615.851562 830.511719 L 615.851562 848.75 C 615.851562 848.757812 615.855469 848.761719 615.855469 848.765625 C 615.855469 848.820312 615.871094 848.871094 615.890625 848.921875 C 615.894531 848.941406 615.894531 848.960938 615.902344 848.976562 C 615.933594 849.046875 615.976562 849.105469 616.035156 849.160156 L 616.277344 849.375 L 618.203125 851.085938 C 618.207031 851.089844 618.210938 851.089844 618.210938 851.089844 L 620.917969 853.492188 C 620.945312 853.519531 620.976562 853.53125 621.007812 853.546875 C 621.03125 853.5625 621.050781 853.582031 621.078125 853.59375 C 621.144531 853.617188 621.214844 853.632812 621.28125 853.632812 C 621.359375 853.632812 621.433594 853.617188 621.5 853.585938 C 621.511719 853.582031 621.523438 853.570312 621.535156 853.5625 C 621.589844 853.535156 621.636719 853.503906 621.679688 853.457031 C 621.683594 853.453125 621.6875 853.453125 621.691406 853.449219 C 621.710938 853.429688 621.71875 853.402344 621.730469 853.378906 C 621.753906 853.347656 621.777344 853.316406 621.792969 853.28125 C 621.804688 853.242188 621.808594 853.203125 621.816406 853.164062 Z M 617.871094 822.199219 C 619.449219 822.199219 620.734375 823.480469 620.734375 825.058594 L 620.734375 851.867188 L 619.121094 850.433594 L 619.121094 827.65625 C 619.121094 827.535156 619.082031 827.417969 619.007812 827.324219 C 618.703125 826.925781 617.046875 824.9375 614.238281 824.898438 C 612.808594 824.886719 611.65625 825.402344 610.875 825.898438 L 610.957031 824.367188 L 612.0625 824.367188 C 612.25 824.367188 612.421875 824.273438 612.523438 824.117188 C 612.625 823.964844 612.640625 823.769531 612.566406 823.597656 L 611.941406 822.199219 Z M 582.632812 816.238281 L 604.617188 816.238281 L 605.335938 818.394531 L 581.910156 818.394531 Z M 577.710938 819.488281 L 606.09375 819.488281 C 606.097656 819.488281 606.097656 819.488281 606.097656 819.488281 L 609.535156 819.488281 L 611.21875 823.273438 L 576.027344 823.273438 Z M 604.464844 867.183594 L 604.464844 868.800781 L 582.785156 868.800781 L 582.785156 867.183594 Z M 591.921875 863.929688 L 595.328125 863.929688 L 595.6875 866.089844 L 591.558594 866.089844 Z M 596.441406 863.945312 C 598.027344 863.988281 599.585938 863.828125 601.089844 863.441406 C 600.859375 863.648438 600.613281 863.84375 600.355469 864.023438 C 599.054688 864.941406 597.71875 865.324219 596.699219 865.484375 Z M 592.105469 862.839844 C 592.332031 862.214844 592.921875 861.761719 593.625 861.761719 C 594.324219 861.761719 594.917969 862.214844 595.144531 862.839844 Z M 590.546875 865.484375 C 589.527344 865.324219 588.191406 864.941406 586.890625 864.023438 C 586.636719 863.84375 586.390625 863.648438 586.15625 863.441406 C 587.660156 863.828125 589.21875 863.988281 590.804688 863.945312 Z M 607.800781 872.109375 L 610.289062 882.890625 L 576.957031 882.890625 L 579.449219 872.109375 C 579.75 870.804688 580.894531 869.890625 582.234375 869.890625 L 605.011719 869.890625 C 606.351562 869.890625 607.496094 870.804688 607.800781 872.109375 Z M 607.734375 864.167969 L 604.847656 866.089844 L 603.867188 866.089844 L 605.46875 863.6875 C 605.519531 863.613281 605.550781 863.527344 605.558594 863.4375 L 607.1875 846.636719 C 607.214844 846.335938 606.996094 846.066406 606.691406 846.039062 C 606.386719 846.011719 606.121094 846.230469 606.09375 846.53125 L 604.480469 863.195312 L 602.550781 866.089844 L 598.714844 866.089844 C 599.449219 865.824219 600.222656 865.457031 600.992188 864.914062 C 601.882812 864.285156 602.65625 863.511719 603.292969 862.613281 C 603.433594 862.417969 603.425781 862.152344 603.273438 861.960938 C 603.125 861.773438 602.867188 861.703125 602.640625 861.792969 C 602.128906 861.992188 601.601562 862.167969 601.070312 862.316406 C 599.53125 862.738281 597.921875 862.910156 596.289062 862.847656 C 596.039062 861.609375 594.941406 860.667969 593.625 860.667969 C 592.308594 860.667969 591.210938 861.609375 590.960938 862.847656 C 589.324219 862.910156 587.71875 862.738281 586.175781 862.316406 C 585.644531 862.167969 585.117188 861.992188 584.605469 861.792969 C 584.378906 861.703125 584.125 861.773438 583.972656 861.960938 C 583.824219 862.152344 583.816406 862.417969 583.957031 862.613281 C 584.59375 863.515625 585.367188 864.285156 586.257812 864.914062 C 587.023438 865.457031 587.800781 865.828125 588.53125 866.089844 L 584.699219 866.089844 L 582.769531 863.195312 L 581.15625 846.53125 C 581.125 846.230469 580.863281 846.011719 580.554688 846.039062 C 580.253906 846.066406 580.03125 846.335938 580.0625 846.636719 L 581.6875 863.4375 C 581.699219 863.527344 581.730469 863.613281 581.777344 863.6875 L 583.382812 866.089844 L 582.402344 866.089844 L 579.515625 864.167969 L 577.390625 824.367188 L 579.015625 824.367188 L 579.519531 830.90625 C 579.539062 831.195312 579.78125 831.410156 580.066406 831.410156 C 580.078125 831.410156 580.09375 831.410156 580.105469 831.410156 C 580.410156 831.386719 580.636719 831.125 580.613281 830.824219 L 580.117188 824.367188 L 607.132812 824.367188 L 606.636719 830.824219 C 606.613281 831.125 606.839844 831.386719 607.140625 831.410156 C 607.15625 831.410156 607.167969 831.410156 607.183594 831.410156 C 607.46875 831.410156 607.707031 831.195312 607.730469 830.90625 L 608.234375 824.367188 L 609.859375 824.367188 Z M 613.132812 828.152344 C 612.101562 828.179688 611.292969 828.558594 610.710938 828.972656 L 610.800781 827.316406 C 611.289062 826.875 612.503906 825.976562 614.226562 825.992188 C 616.285156 826.019531 617.59375 827.339844 618.023438 827.847656 L 618.023438 849.460938 L 616.949219 848.507812 L 616.949219 830.324219 C 616.949219 830.210938 616.914062 830.101562 616.847656 830.007812 C 616.707031 829.808594 615.414062 828.097656 613.132812 828.152344 Z M 613.132812 828.152344 " fill-opacity="1" fill-rule="nonzero"/>
    </g>
    <path fill="#3a322b" d="M 601.215 872.594 C 598.82 872.594 596.871 874.539 596.871 876.934 C 596.871 879.328 598.82 881.273 601.215 881.273 C 603.613 881.273 605.563 879.328 605.563 876.934 C 605.563 874.539 603.613 872.594 601.215 872.594 Z M 601.215 880.18 C 599.426 880.18 597.969 878.723 597.969 876.934 C 597.969 875.145 599.426 873.688 601.215 873.688 C 603.008 873.688 604.465 875.145 604.465 876.934 C 604.465 878.727 603.008 880.18 601.215 880.18 Z M 601.215 880.18" fill-opacity="1" fill-rule="nonzero"/>
    <path fill="#3a322b" d="M 587.117 874.219 C 585.617 874.219 584.398 875.438 584.398 876.934 C 584.398 878.43 585.617 879.648 587.117 879.648 C 588.613 879.648 589.836 878.43 589.836 876.934 C 589.836 875.438 588.613 874.219 587.117 874.219 Z M 587.117 878.555 C 586.223 878.555 585.496 877.828 585.496 876.934 C 585.496 876.039 586.223 875.313 587.117 875.313 C 588.008 875.313 588.738 876.039 588.738 876.934 C 588.738 877.828 588.012 878.555 587.117 878.555 Z M 587.117 878.555" fill-opacity="1" fill-rule="nonzero"/>
  </g>
</svg>