<?xml version="1.0" encoding="utf-8"?>
<svg viewBox="396.395 1100.051 17.98 26.188" xmlns="http://www.w3.org/2000/svg">
  <defs>
    <clipPath id="1cec8b4cbe">
      <path d="M 396.375 1100.019531 L 414.375 1100.019531 L 414.375 1126.269531 L 396.375 1126.269531 Z M 396.375 1100.019531 " clip-rule="nonzero"/>
    </clipPath>
    <clipPath id="f21fa1bf90">
      <path d="M 397 1120 L 411 1120 L 411 1126.269531 L 397 1126.269531 Z M 397 1120 " clip-rule="nonzero"/>
    </clipPath>
    <clipPath id="544dcba159">
      <path d="M 409 1102 L 414.375 1102 L 414.375 1115 L 409 1115 Z M 409 1102 " clip-rule="nonzero"/>
    </clipPath>
    <clipPath id="8add08cfe7">
      <path d="M 398 1100.019531 L 409 1100.019531 L 409 1102 L 398 1102 Z M 398 1100.019531 " clip-rule="nonzero"/>
    </clipPath>
    <clipPath id="3eed828f3c">
      <path d="M 396.375 1101 L 411 1101 L 411 1104 L 396.375 1104 Z M 396.375 1101 " clip-rule="nonzero"/>
    </clipPath>
    <clipPath id="93d9b9886b">
      <path d="M 396.375 1100.019531 L 414.375 1100.019531 L 414.375 1126.269531 L 396.375 1126.269531 Z M 396.375 1100.019531 " clip-rule="nonzero"/>
    </clipPath>
  </defs>
  <g>
    <g clip-path="url(#1cec8b4cbe)">
      <path fill="#c2e6f9" d="M 412.867188 1102.527344 L 410.285156 1102.527344 L 409.828125 1101.496094 L 408.378906 1101.496094 L 407.964844 1100.261719 L 399.289062 1100.261719 L 398.875 1101.496094 L 397.429688 1101.496094 L 396.605469 1103.351562 L 397.222656 1103.351562 L 398.050781 1118.816406 L 399.289062 1119.640625 L 399.289062 1120.671875 C 398.683594 1120.671875 398.160156 1121.085938 398.023438 1121.675781 L 397.019531 1126.03125 L 410.238281 1126.03125 L 409.234375 1121.675781 C 409.09375 1121.085938 408.574219 1120.671875 407.964844 1120.671875 L 407.964844 1119.640625 L 409.207031 1118.816406 L 409.898438 1105.832031 C 409.898438 1105.832031 409.898438 1105.832031 409.902344 1105.828125 C 409.949219 1105.761719 410.351562 1105.226562 411.066406 1105.207031 C 411.832031 1105.1875 412.269531 1105.777344 412.304688 1105.824219 L 412.304688 1112.835938 L 413.132812 1113.570312 L 414.164062 1114.484375 L 414.164062 1103.824219 C 414.164062 1103.105469 413.582031 1102.527344 412.867188 1102.527344 Z M 412.867188 1102.527344 " fill-opacity="1" fill-rule="nonzero"/>
    </g>
    <path fill="#d2d2d1" d="M 402.805 1118.402 L 402.629 1119.434 C 402.285 1119.402 401.609 1119.289 400.941 1118.816 C 400.547 1118.535 400.285 1118.227 400.117 1117.992 C 400.305 1118.066 400.512 1118.137 400.734 1118.195 C 401.527 1118.414 402.242 1118.438 402.805 1118.402 Z M 402.805 1118.402" fill-opacity="1" fill-rule="nonzero"/>
    <path fill="#d2d2d1" d="M 406.523 1118.195 C 406.742 1118.137 406.949 1118.066 407.141 1117.992 C 406.973 1118.227 406.711 1118.535 406.316 1118.816 C 405.645 1119.289 404.973 1119.402 404.629 1119.434 L 404.453 1118.402 C 405.016 1118.438 405.73 1118.414 406.523 1118.195 Z M 406.523 1118.195" fill-opacity="1" fill-rule="nonzero"/>
    <path fill="#b6b6b7" d="M 404.629 1119.434 L 404.66 1119.641 L 402.598 1119.641 L 402.629 1119.434 L 402.805 1118.402 L 404.453 1118.402 L 404.629 1119.434 Z M 404.629 1119.434" fill-opacity="1" fill-rule="nonzero"/>
    <path fill="#9c9d9c" d="M 403.629 1117.578 C 404.086 1117.578 404.453 1117.945 404.453 1118.402 L 402.805 1118.402 C 402.805 1117.945 403.172 1117.578 403.629 1117.578 Z M 403.629 1117.578" fill-opacity="1" fill-rule="nonzero"/>
    <path fill="#2e6977" d="M 406.523 1122.113 C 407.32 1122.113 407.965 1122.762 407.965 1123.559 C 407.965 1124.355 407.32 1125 406.523 1125 C 405.723 1125 405.074 1124.355 405.074 1123.559 C 405.074 1122.762 405.723 1122.113 406.523 1122.113 Z M 406.523 1122.113" fill-opacity="1" fill-rule="nonzero"/>
    <path fill="#2e6977" d="M 401.148 1122.734 C 401.605 1122.734 401.977 1123.102 401.977 1123.559 C 401.977 1124.012 401.605 1124.383 401.148 1124.383 C 400.695 1124.383 400.324 1124.012 400.324 1123.559 C 400.324 1123.102 400.695 1122.734 401.148 1122.734 Z M 401.148 1122.734" fill-opacity="1" fill-rule="nonzero"/>
    <g clip-path="url(#f21fa1bf90)">
      <path fill="#e15c63" d="M 409.234375 1121.675781 L 410.238281 1126.03125 L 397.019531 1126.03125 L 398.023438 1121.675781 C 398.160156 1121.085938 398.683594 1120.671875 399.289062 1120.671875 L 407.964844 1120.671875 C 408.574219 1120.671875 409.09375 1121.085938 409.234375 1121.675781 Z M 407.964844 1123.558594 C 407.964844 1122.761719 407.320312 1122.113281 406.523438 1122.113281 C 405.722656 1122.113281 405.074219 1122.761719 405.074219 1123.558594 C 405.074219 1124.355469 405.722656 1125 406.523438 1125 C 407.320312 1125 407.964844 1124.355469 407.964844 1123.558594 Z M 401.976562 1123.558594 C 401.976562 1123.101562 401.605469 1122.734375 401.148438 1122.734375 C 400.695312 1122.734375 400.324219 1123.101562 400.324219 1123.558594 C 400.324219 1124.011719 400.695312 1124.382812 401.148438 1124.382812 C 401.605469 1124.382812 401.976562 1124.011719 401.976562 1123.558594 Z M 401.976562 1123.558594 " fill-opacity="1" fill-rule="nonzero"/>
    </g>
    <path fill="#93b2b8" d="M 413.133 1104.813 L 413.133 1113.57 L 412.305 1112.836 L 412.305 1105.824 C 412.27 1105.777 411.832 1105.188 411.066 1105.207 C 410.352 1105.227 409.949 1105.762 409.902 1105.828 L 409.969 1104.59 C 410.07 1104.488 410.621 1103.961 411.48 1103.973 C 412.48 1103.984 413.063 1104.719 413.133 1104.813 Z M 413.133 1104.813" fill-opacity="1" fill-rule="nonzero"/>
    <g clip-path="url(#544dcba159)">
      <path fill="#e15c63" d="M 414.164062 1103.824219 L 414.164062 1114.484375 L 413.132812 1113.570312 L 413.132812 1104.8125 C 413.0625 1104.71875 412.480469 1103.984375 411.480469 1103.972656 C 410.621094 1103.960938 410.070312 1104.488281 409.96875 1104.589844 L 410.035156 1103.351562 L 410.652344 1103.351562 L 410.285156 1102.527344 L 412.867188 1102.527344 C 413.582031 1102.527344 414.164062 1103.105469 414.164062 1103.824219 Z M 414.164062 1103.824219 " fill-opacity="1" fill-rule="nonzero"/>
    </g>
    <g clip-path="url(#8add08cfe7)">
      <path fill="#e15c63" d="M 407.964844 1100.261719 L 408.378906 1101.496094 L 398.875 1101.496094 L 399.289062 1100.261719 Z M 407.964844 1100.261719 " fill-opacity="1" fill-rule="nonzero"/>
    </g>
    <path fill="#4d727a" d="M 399.289 1119.641 L 407.965 1119.641 L 407.965 1120.672 L 399.289 1120.672 L 399.289 1119.641 Z M 399.289 1119.641" fill-opacity="1" fill-rule="nonzero"/>
    <g clip-path="url(#3eed828f3c)">
      <path fill="#4d727a" d="M 410.285156 1102.527344 L 410.652344 1103.351562 L 396.605469 1103.351562 L 397.429688 1101.496094 L 409.828125 1101.496094 Z M 410.285156 1102.527344 " fill-opacity="1" fill-rule="nonzero"/>
    </g>
    <g clip-path="url(#93d9b9886b)">
      <path fill="#3a322b" d="M 414.367188 1114.515625 C 414.371094 1114.503906 414.375 1114.496094 414.375 1114.484375 L 414.375 1103.824219 C 414.375 1102.996094 413.699219 1102.320312 412.867188 1102.320312 L 410.421875 1102.320312 L 410.019531 1101.414062 C 409.984375 1101.335938 409.910156 1101.289062 409.828125 1101.289062 L 408.53125 1101.289062 L 408.164062 1100.195312 C 408.136719 1100.109375 408.058594 1100.050781 407.96875 1100.050781 L 399.289062 1100.050781 C 399.199219 1100.050781 399.121094 1100.109375 399.089844 1100.195312 L 398.726562 1101.289062 L 397.429688 1101.289062 C 397.347656 1101.289062 397.273438 1101.335938 397.238281 1101.414062 L 396.414062 1103.269531 C 396.382812 1103.332031 396.390625 1103.40625 396.429688 1103.464844 C 396.46875 1103.523438 396.535156 1103.558594 396.605469 1103.558594 L 397.027344 1103.558594 L 397.839844 1118.828125 C 397.84375 1118.890625 397.878906 1118.953125 397.933594 1118.988281 L 399.082031 1119.75 L 399.082031 1120.480469 C 398.46875 1120.566406 397.964844 1121.011719 397.820312 1121.628906 L 396.8125 1125.984375 C 396.800781 1126.046875 396.8125 1126.113281 396.855469 1126.160156 C 396.894531 1126.210938 396.953125 1126.238281 397.015625 1126.238281 L 410.238281 1126.238281 C 410.304688 1126.238281 410.363281 1126.210938 410.402344 1126.160156 C 410.441406 1126.113281 410.457031 1126.046875 410.445312 1125.984375 L 409.4375 1121.628906 C 409.292969 1121.011719 408.789062 1120.566406 408.175781 1120.480469 L 408.175781 1119.75 L 409.324219 1118.988281 C 409.378906 1118.953125 409.410156 1118.890625 409.414062 1118.828125 L 410.105469 1105.90625 C 410.210938 1105.777344 410.542969 1105.429688 411.070312 1105.414062 C 411.617188 1105.40625 411.980469 1105.761719 412.097656 1105.898438 L 412.097656 1112.835938 C 412.097656 1112.839844 412.097656 1112.839844 412.097656 1112.84375 C 412.097656 1112.863281 412.105469 1112.882812 412.109375 1112.902344 C 412.113281 1112.910156 412.113281 1112.917969 412.117188 1112.921875 C 412.128906 1112.949219 412.144531 1112.972656 412.167969 1112.992188 L 412.257812 1113.074219 L 412.992188 1113.726562 C 412.992188 1113.726562 412.996094 1113.726562 412.996094 1113.726562 L 414.027344 1114.640625 C 414.035156 1114.648438 414.046875 1114.65625 414.058594 1114.660156 C 414.070312 1114.667969 414.078125 1114.675781 414.085938 1114.679688 C 414.113281 1114.6875 414.140625 1114.695312 414.164062 1114.695312 C 414.195312 1114.695312 414.222656 1114.6875 414.246094 1114.675781 C 414.253906 1114.675781 414.257812 1114.667969 414.261719 1114.667969 C 414.28125 1114.65625 414.300781 1114.644531 414.316406 1114.628906 C 414.316406 1114.625 414.320312 1114.625 414.320312 1114.625 C 414.328125 1114.617188 414.332031 1114.605469 414.335938 1114.597656 C 414.34375 1114.585938 414.351562 1114.574219 414.359375 1114.558594 C 414.363281 1114.546875 414.367188 1114.53125 414.367188 1114.515625 Z M 412.867188 1102.734375 C 413.46875 1102.734375 413.957031 1103.222656 413.957031 1103.824219 L 413.957031 1114.023438 L 413.339844 1113.476562 L 413.339844 1104.8125 C 413.339844 1104.765625 413.328125 1104.722656 413.296875 1104.6875 C 413.183594 1104.535156 412.550781 1103.777344 411.480469 1103.761719 C 410.9375 1103.757812 410.496094 1103.953125 410.199219 1104.144531 L 410.230469 1103.558594 L 410.652344 1103.558594 C 410.722656 1103.558594 410.789062 1103.523438 410.828125 1103.464844 C 410.867188 1103.40625 410.871094 1103.332031 410.84375 1103.269531 L 410.605469 1102.734375 Z M 399.441406 1100.46875 L 407.816406 1100.46875 L 408.089844 1101.289062 L 399.167969 1101.289062 Z M 397.566406 1101.703125 L 408.378906 1101.703125 C 408.378906 1101.703125 408.378906 1101.703125 408.382812 1101.703125 L 409.691406 1101.703125 L 410.332031 1103.144531 L 396.925781 1103.144531 Z M 407.757812 1119.847656 L 407.757812 1120.464844 L 399.5 1120.464844 L 399.5 1119.847656 Z M 402.980469 1118.609375 L 404.277344 1118.609375 L 404.414062 1119.433594 L 402.84375 1119.433594 Z M 404.703125 1118.617188 C 405.304688 1118.632812 405.902344 1118.570312 406.472656 1118.425781 C 406.382812 1118.503906 406.289062 1118.578125 406.195312 1118.644531 C 405.699219 1118.996094 405.1875 1119.140625 404.800781 1119.203125 Z M 403.050781 1118.195312 C 403.136719 1117.957031 403.363281 1117.785156 403.628906 1117.785156 C 403.894531 1117.785156 404.121094 1117.957031 404.207031 1118.195312 Z M 402.457031 1119.203125 C 402.066406 1119.140625 401.558594 1118.996094 401.0625 1118.644531 C 400.964844 1118.578125 400.871094 1118.503906 400.785156 1118.425781 C 401.355469 1118.570312 401.949219 1118.632812 402.554688 1118.617188 Z M 409.027344 1121.722656 L 409.976562 1125.824219 L 397.28125 1125.824219 L 398.226562 1121.722656 C 398.34375 1121.226562 398.78125 1120.878906 399.289062 1120.878906 L 407.96875 1120.878906 C 408.476562 1120.878906 408.914062 1121.226562 409.027344 1121.722656 Z M 409.003906 1118.699219 L 407.902344 1119.433594 L 407.53125 1119.433594 L 408.140625 1118.519531 C 408.160156 1118.488281 408.171875 1118.457031 408.175781 1118.421875 L 408.796875 1112.03125 C 408.804688 1111.917969 408.722656 1111.816406 408.605469 1111.804688 C 408.492188 1111.792969 408.390625 1111.878906 408.378906 1111.992188 L 407.765625 1118.332031 L 407.027344 1119.433594 L 405.570312 1119.433594 C 405.847656 1119.332031 406.144531 1119.191406 406.433594 1118.984375 C 406.773438 1118.746094 407.070312 1118.453125 407.3125 1118.109375 C 407.363281 1118.035156 407.363281 1117.933594 407.304688 1117.863281 C 407.25 1117.789062 407.148438 1117.761719 407.0625 1117.796875 C 406.867188 1117.875 406.667969 1117.941406 406.464844 1117.996094 C 405.878906 1118.15625 405.265625 1118.222656 404.644531 1118.199219 C 404.546875 1117.726562 404.128906 1117.371094 403.628906 1117.371094 C 403.128906 1117.371094 402.707031 1117.726562 402.613281 1118.199219 C 401.992188 1118.222656 401.378906 1118.15625 400.792969 1117.996094 C 400.589844 1117.941406 400.386719 1117.875 400.191406 1117.796875 C 400.105469 1117.761719 400.007812 1117.789062 399.953125 1117.863281 C 399.894531 1117.933594 399.890625 1118.035156 399.945312 1118.109375 C 400.1875 1118.453125 400.484375 1118.746094 400.820312 1118.984375 C 401.113281 1119.191406 401.410156 1119.332031 401.6875 1119.433594 L 400.226562 1119.433594 L 399.492188 1118.332031 L 398.878906 1111.992188 C 398.867188 1111.878906 398.765625 1111.792969 398.648438 1111.804688 C 398.535156 1111.816406 398.449219 1111.917969 398.460938 1112.03125 L 399.082031 1118.421875 C 399.085938 1118.457031 399.097656 1118.488281 399.117188 1118.519531 L 399.726562 1119.433594 L 399.355469 1119.433594 L 398.253906 1118.699219 L 397.445312 1103.558594 L 398.0625 1103.558594 L 398.253906 1106.046875 C 398.261719 1106.15625 398.355469 1106.242188 398.464844 1106.242188 C 398.46875 1106.242188 398.472656 1106.242188 398.480469 1106.238281 C 398.59375 1106.230469 398.679688 1106.132812 398.671875 1106.015625 L 398.484375 1103.558594 L 408.773438 1103.558594 L 408.585938 1106.015625 C 408.578125 1106.132812 408.664062 1106.230469 408.777344 1106.238281 C 408.78125 1106.242188 408.789062 1106.242188 408.792969 1106.242188 C 408.902344 1106.242188 408.992188 1106.15625 409.003906 1106.046875 L 409.195312 1103.558594 L 409.8125 1103.558594 Z M 411.0625 1105 C 410.667969 1105.011719 410.359375 1105.15625 410.136719 1105.3125 L 410.171875 1104.683594 C 410.359375 1104.515625 410.820312 1104.171875 411.476562 1104.179688 C 412.261719 1104.1875 412.761719 1104.691406 412.921875 1104.882812 L 412.921875 1113.105469 L 412.515625 1112.742188 L 412.515625 1105.828125 C 412.515625 1105.785156 412.5 1105.742188 412.476562 1105.707031 C 412.421875 1105.632812 411.929688 1104.980469 411.0625 1105 Z M 411.0625 1105 " fill-opacity="1" fill-rule="nonzero"/>
    </g>
    <path fill="#3a322b" d="M 406.52 1121.906 C 405.609 1121.906 404.867 1122.648 404.867 1123.559 C 404.867 1124.469 405.609 1125.207 406.52 1125.207 C 407.434 1125.207 408.176 1124.469 408.176 1123.559 C 408.176 1122.648 407.434 1121.906 406.52 1121.906 Z M 406.52 1124.793 C 405.84 1124.793 405.285 1124.238 405.285 1123.559 C 405.285 1122.875 405.84 1122.32 406.52 1122.32 C 407.203 1122.32 407.758 1122.875 407.758 1123.559 C 407.758 1124.238 407.203 1124.793 406.52 1124.793 Z M 406.52 1124.793" fill-opacity="1" fill-rule="nonzero"/>
    <path fill="#3a322b" d="M 401.148 1122.523 C 400.578 1122.523 400.113 1122.988 400.113 1123.559 C 400.113 1124.125 400.578 1124.59 401.148 1124.59 C 401.719 1124.59 402.184 1124.125 402.184 1123.559 C 402.184 1122.988 401.719 1122.523 401.148 1122.523 Z M 401.148 1124.176 C 400.809 1124.176 400.531 1123.898 400.531 1123.559 C 400.531 1123.219 400.809 1122.941 401.148 1122.941 C 401.488 1122.941 401.766 1123.219 401.766 1123.559 C 401.766 1123.898 401.488 1124.176 401.148 1124.176 Z M 401.148 1124.176" fill-opacity="1" fill-rule="nonzero"/>
  </g>
</svg>