<?xml version="1.0" encoding="utf-8"?>
<svg viewBox="399.152 859.027 18 32.234" xmlns="http://www.w3.org/2000/svg">
  <defs>
    <clipPath id="119a5e4434">
      <path d="M 399.152344 859.019531 L 417.152344 859.019531 L 417.152344 891.269531 L 399.152344 891.269531 Z M 399.152344 859.019531 " clip-rule="nonzero"/>
    </clipPath>
  </defs>
  <g>
    <g clip-path="url(#119a5e4434)">
      <path fill="#ff5722" d="M 414.90625 859.027344 C 416.148438 859.027344 417.152344 860.0625 417.152344 861.316406 L 417.152344 888.96875 C 417.152344 890.234375 416.144531 891.261719 414.90625 891.261719 L 401.394531 891.261719 C 400.152344 891.261719 399.152344 890.222656 399.152344 888.96875 L 399.152344 861.316406 C 399.152344 860.050781 400.160156 859.027344 401.394531 859.027344 Z M 414.90625 859.027344 " fill-opacity="1" fill-rule="evenodd"/>
    </g>
    <path fill="#ffffff" d="M 400.277 862.48 L 416.027 862.48 L 416.027 886.656 L 400.277 886.656 L 400.277 862.48 Z M 400.277 862.48" fill-opacity="1" fill-rule="evenodd"/>
    <path fill="#f5f5f5" d="M 416.027 886.656 L 400.277 886.656 L 416.027 862.48 L 416.027 886.656 Z M 416.027 886.656" fill-opacity="1" fill-rule="evenodd"/>
    <path fill="#ffffff" d="M 405.34 861.328 C 405.648 861.328 405.902 861.07 405.902 860.754 C 405.902 860.434 405.648 860.176 405.34 860.176 C 405.027 860.176 404.777 860.434 404.777 860.754 C 404.777 861.07 405.027 861.328 405.34 861.328 Z M 405.34 861.328" fill-opacity="1" fill-rule="evenodd"/>
    <path fill="#ffffff" d="M 408.152 890.109 C 408.773 890.109 409.277 889.594 409.277 888.957 C 409.277 888.324 408.773 887.809 408.152 887.809 C 407.531 887.809 407.027 888.324 407.027 888.957 C 407.027 889.594 407.531 890.109 408.152 890.109 Z M 408.152 890.109" fill-opacity="1" fill-rule="evenodd"/>
    <path fill="#ffffff" d="M 410.965 861.328 C 411.273 861.328 411.527 861.07 411.527 860.754 C 411.527 860.434 411.273 860.176 410.965 860.176 L 407.59 860.176 C 407.277 860.176 407.027 860.434 407.027 860.754 C 407.027 861.07 407.277 861.328 407.59 861.328 L 410.965 861.328 Z M 410.965 861.328" fill-opacity="1" fill-rule="evenodd"/>
  </g>
</svg>