<?xml version="1.0" encoding="utf-8"?>
<svg viewBox="257.836 818.141 65.196 65.797" xmlns="http://www.w3.org/2000/svg">
  <defs>
    <clipPath id="7f6c2840e2">
      <path d="M 257.773438 818 L 323.023438 818 L 323.023438 884 L 257.773438 884 Z M 257.773438 818 " clip-rule="nonzero"/>
    </clipPath>
  </defs>
  <g>
    <path fill="#ffffff" d="M 319.578 850.168 C 319.578 851.117 319.531 852.066 319.438 853.012 C 319.344 853.953 319.203 854.891 319.02 855.824 C 318.832 856.754 318.602 857.676 318.328 858.582 C 318.051 859.492 317.73 860.383 317.367 861.262 C 317.004 862.137 316.598 862.992 316.148 863.832 C 315.699 864.668 315.211 865.48 314.684 866.27 C 314.152 867.059 313.59 867.82 312.984 868.555 C 312.383 869.289 311.742 869.992 311.07 870.66 C 310.398 871.332 309.695 871.969 308.957 872.57 C 308.223 873.172 307.461 873.738 306.668 874.266 C 305.879 874.793 305.063 875.281 304.227 875.727 C 303.387 876.176 302.527 876.582 301.648 876.945 C 300.77 877.309 299.875 877.625 298.965 877.902 C 298.055 878.176 297.133 878.406 296.199 878.594 C 295.266 878.777 294.328 878.918 293.379 879.012 C 292.434 879.102 291.484 879.148 290.535 879.148 C 289.582 879.148 288.633 879.102 287.688 879.012 C 286.742 878.918 285.801 878.777 284.867 878.594 C 283.934 878.406 283.012 878.176 282.102 877.902 C 281.191 877.625 280.297 877.309 279.418 876.945 C 278.539 876.582 277.68 876.176 276.844 875.727 C 276.004 875.281 275.188 874.793 274.398 874.266 C 273.605 873.738 272.844 873.172 272.109 872.57 C 271.375 871.969 270.668 871.332 269.996 870.66 C 269.324 869.992 268.688 869.289 268.082 868.555 C 267.48 867.82 266.914 867.059 266.387 866.27 C 265.855 865.48 265.367 864.668 264.918 863.832 C 264.473 862.992 264.066 862.137 263.699 861.262 C 263.336 860.383 263.016 859.492 262.742 858.582 C 262.465 857.676 262.234 856.754 262.047 855.824 C 261.863 854.891 261.723 853.953 261.629 853.012 C 261.535 852.066 261.488 851.117 261.488 850.168 C 261.488 849.219 261.535 848.273 261.629 847.328 C 261.723 846.383 261.863 845.445 262.047 844.516 C 262.234 843.586 262.465 842.664 262.742 841.758 C 263.016 840.848 263.336 839.957 263.699 839.078 C 264.066 838.203 264.473 837.348 264.918 836.508 C 265.367 835.672 265.855 834.859 266.387 834.07 C 266.914 833.281 267.48 832.52 268.082 831.785 C 268.688 831.051 269.324 830.348 269.996 829.68 C 270.668 829.008 271.375 828.371 272.109 827.77 C 272.844 827.168 273.605 826.602 274.398 826.074 C 275.188 825.547 276.004 825.059 276.844 824.613 C 277.68 824.164 278.539 823.758 279.418 823.395 C 280.297 823.031 281.191 822.715 282.102 822.438 C 283.012 822.164 283.934 821.934 284.867 821.746 C 285.801 821.563 286.742 821.422 287.688 821.328 C 288.633 821.238 289.582 821.191 290.535 821.191 C 291.484 821.191 292.434 821.238 293.379 821.328 C 294.328 821.422 295.266 821.563 296.199 821.746 C 297.133 821.934 298.055 822.164 298.965 822.438 C 299.875 822.715 300.77 823.031 301.648 823.395 C 302.527 823.758 303.387 824.164 304.227 824.613 C 305.063 825.059 305.879 825.547 306.668 826.074 C 307.461 826.602 308.223 827.168 308.957 827.77 C 309.695 828.371 310.398 829.008 311.07 829.68 C 311.742 830.348 312.383 831.051 312.984 831.785 C 313.59 832.52 314.152 833.281 314.684 834.07 C 315.211 834.859 315.699 835.672 316.148 836.508 C 316.598 837.348 317.004 838.203 317.367 839.078 C 317.73 839.957 318.051 840.848 318.328 841.758 C 318.602 842.664 318.832 843.586 319.02 844.516 C 319.203 845.445 319.344 846.383 319.438 847.328 C 319.531 848.273 319.578 849.219 319.578 850.168 Z M 319.578 850.168" fill-opacity="1" fill-rule="nonzero"/>
    <g clip-path="url(#7f6c2840e2)">
      <path fill="#7a7775" d="M 314.992188 829.417969 C 313.886719 828.128906 312.6875 826.9375 311.398438 825.839844 C 310.105469 824.742188 308.734375 823.75 307.285156 822.867188 C 305.835938 821.984375 304.324219 821.21875 302.757812 820.574219 C 301.1875 819.929688 299.574219 819.410156 297.925781 819.015625 C 296.273438 818.625 294.601562 818.363281 292.90625 818.234375 C 291.214844 818.105469 289.523438 818.109375 287.828125 818.246094 C 286.136719 818.382812 284.464844 818.648438 282.816406 819.050781 C 281.164062 819.449219 279.558594 819.976562 277.992188 820.628906 C 275.128906 821.828125 272.492188 823.402344 270.082031 825.351562 C 267.667969 827.296875 265.574219 829.539062 263.800781 832.082031 C 263.09375 833.09375 262.441406 834.140625 261.847656 835.226562 C 259.332031 839.863281 258.003906 844.8125 257.859375 850.082031 C 257.859375 850.402344 257.835938 850.71875 257.835938 851.042969 C 257.832031 851.957031 257.867188 852.867188 257.9375 853.78125 C 258.011719 854.691406 258.125 855.597656 258.273438 856.5 C 258.421875 857.402344 258.605469 858.296875 258.832031 859.183594 C 259.054688 860.070312 259.316406 860.945312 259.613281 861.808594 C 259.910156 862.675781 260.242188 863.527344 260.609375 864.363281 C 260.980469 865.199219 261.382812 866.019531 261.820312 866.824219 C 262.257812 867.628906 262.726562 868.410156 263.230469 869.175781 C 263.730469 869.941406 264.265625 870.683594 264.828125 871.402344 C 265.394531 872.121094 265.988281 872.816406 266.613281 873.488281 C 267.234375 874.160156 267.882812 874.800781 268.5625 875.417969 C 269.238281 876.035156 269.941406 876.621094 270.664062 877.179688 C 271.390625 877.738281 272.140625 878.265625 272.910156 878.757812 C 273.679688 879.253906 274.46875 879.71875 275.277344 880.148438 C 276.085938 880.578125 276.914062 880.972656 277.753906 881.332031 C 278.597656 881.695312 279.453125 882.019531 280.320312 882.308594 C 281.191406 882.597656 282.070312 882.851562 282.960938 883.066406 C 285.417969 883.648438 287.910156 883.9375 290.433594 883.9375 C 308.4375 883.9375 323.03125 869.210938 323.03125 851.035156 C 323.035156 849.070312 322.863281 847.117188 322.515625 845.179688 C 322.171875 843.238281 321.652344 841.347656 320.96875 839.503906 C 320.28125 837.65625 319.4375 835.886719 318.433594 834.195312 C 317.429688 832.5 316.28125 830.90625 314.992188 829.417969 Z M 302.535156 854.472656 L 294.402344 854.472656 L 294.402344 862.824219 L 286.03125 862.824219 L 286.03125 854.472656 L 277.898438 854.472656 L 277.898438 846.308594 L 286.03125 846.308594 L 286.03125 837.953125 L 294.402344 837.953125 L 294.402344 846.308594 L 302.535156 846.308594 Z M 302.535156 854.472656 " fill-opacity="1" fill-rule="nonzero"/>
    </g>
  </g>
</svg>