<?xml version="1.0" encoding="utf-8"?>
<svg viewBox="393.523 1145.084 26.977 27.892" xmlns="http://www.w3.org/2000/svg">
  <defs>
    <clipPath id="318d59b21c">
      <path d="M 393.496094 1145 L 420.496094 1145 L 420.496094 1173 L 393.496094 1173 Z M 393.496094 1145 " clip-rule="nonzero"/>
    </clipPath>
  </defs>
  <g>
    <path fill="#ffffff" d="M 418.07 1158.66 C 418.07 1159.469 417.992 1160.266 417.84 1161.059 C 417.688 1161.848 417.457 1162.617 417.156 1163.363 C 416.855 1164.109 416.484 1164.816 416.047 1165.488 C 415.605 1166.156 415.109 1166.777 414.551 1167.348 C 413.992 1167.918 413.387 1168.43 412.73 1168.875 C 412.074 1169.324 411.383 1169.703 410.652 1170.012 C 409.922 1170.32 409.172 1170.555 408.398 1170.711 C 407.625 1170.867 406.844 1170.945 406.055 1170.945 C 405.266 1170.945 404.48 1170.867 403.707 1170.711 C 402.934 1170.555 402.184 1170.32 401.453 1170.012 C 400.727 1169.703 400.031 1169.324 399.375 1168.875 C 398.719 1168.43 398.113 1167.918 397.555 1167.348 C 396.996 1166.777 396.5 1166.156 396.059 1165.488 C 395.621 1164.816 395.25 1164.109 394.949 1163.363 C 394.648 1162.617 394.418 1161.848 394.266 1161.059 C 394.113 1160.266 394.035 1159.469 394.035 1158.66 C 394.035 1157.855 394.113 1157.055 394.266 1156.266 C 394.418 1155.473 394.648 1154.707 394.949 1153.961 C 395.25 1153.215 395.621 1152.508 396.059 1151.836 C 396.5 1151.164 396.996 1150.547 397.555 1149.977 C 398.113 1149.406 398.719 1148.895 399.375 1148.445 C 400.031 1148 400.727 1147.621 401.453 1147.313 C 402.184 1147.004 402.934 1146.77 403.707 1146.613 C 404.48 1146.457 405.266 1146.375 406.055 1146.375 C 406.844 1146.375 407.625 1146.457 408.398 1146.613 C 409.172 1146.77 409.922 1147.004 410.652 1147.313 C 411.383 1147.621 412.074 1148 412.73 1148.445 C 413.387 1148.895 413.992 1149.406 414.551 1149.977 C 415.109 1150.547 415.605 1151.164 416.047 1151.836 C 416.484 1152.508 416.855 1153.215 417.156 1153.961 C 417.457 1154.707 417.688 1155.473 417.84 1156.266 C 417.992 1157.055 418.07 1157.855 418.07 1158.66 Z M 418.07 1158.66" fill-opacity="1" fill-rule="nonzero"/>
    <g clip-path="url(#318d59b21c)">
      <path fill="#7a7775" d="M 417.171875 1149.863281 C 416.714844 1149.320312 416.222656 1148.8125 415.6875 1148.347656 C 415.152344 1147.882812 414.582031 1147.460938 413.984375 1147.085938 C 413.382812 1146.714844 412.761719 1146.390625 412.109375 1146.113281 C 411.460938 1145.839844 410.792969 1145.621094 410.109375 1145.457031 C 409.425781 1145.289062 408.734375 1145.179688 408.035156 1145.125 C 407.335938 1145.070312 406.632812 1145.070312 405.933594 1145.128906 C 405.234375 1145.1875 404.542969 1145.300781 403.859375 1145.46875 C 403.175781 1145.636719 402.511719 1145.863281 401.863281 1146.136719 C 399.445312 1147.175781 397.488281 1148.796875 395.992188 1150.992188 C 395.699219 1151.421875 395.429688 1151.867188 395.183594 1152.328125 C 394.140625 1154.292969 393.59375 1156.390625 393.53125 1158.625 C 393.53125 1158.757812 393.523438 1158.894531 393.523438 1159.03125 C 393.519531 1159.808594 393.578125 1160.578125 393.703125 1161.34375 C 393.828125 1162.113281 394.011719 1162.863281 394.257812 1163.597656 C 394.503906 1164.332031 394.808594 1165.039062 395.171875 1165.722656 C 395.535156 1166.40625 395.949219 1167.050781 396.417969 1167.664062 C 396.886719 1168.273438 397.398438 1168.839844 397.960938 1169.363281 C 398.523438 1169.886719 399.121094 1170.359375 399.761719 1170.78125 C 400.398438 1171.203125 401.066406 1171.566406 401.765625 1171.871094 C 402.464844 1172.179688 403.179688 1172.425781 403.917969 1172.609375 C 404.9375 1172.855469 405.964844 1172.976562 407.011719 1172.976562 C 414.460938 1172.976562 420.5 1166.734375 420.5 1159.027344 C 420.503906 1157.347656 420.21875 1155.71875 419.644531 1154.140625 C 419.074219 1152.5625 418.25 1151.136719 417.171875 1149.863281 Z M 412.019531 1160.484375 L 408.652344 1160.484375 L 408.652344 1164.027344 L 405.191406 1164.027344 L 405.191406 1160.484375 L 401.824219 1160.484375 L 401.824219 1157.023438 L 405.191406 1157.023438 L 405.191406 1153.484375 L 408.652344 1153.484375 L 408.652344 1157.023438 L 412.019531 1157.023438 Z M 412.019531 1160.484375 " fill-opacity="1" fill-rule="nonzero"/>
    </g>
  </g>
</svg>